<?xml version="1.0" encoding="utf-8"?>
<!-- Generator: Adobe Illustrator 19.2.1, SVG Export Plug-In . SVG Version: 6.00 Build 0)  -->
<svg version="1.1"
	 id="svg11300" inkscape:export-filename="/home/jimmac/Desktop/wi-fi.png" inkscape:export-xdpi="90.000000" inkscape:export-ydpi="90.000000" inkscape:output_extension="org.inkscape.output.svg.inkscape" inkscape:version="0.46" sodipodi:docbase="/home/jimmac/src/cvs/tango-icon-theme/scalable/apps" sodipodi:docname="preferences-system-session.svg" sodipodi:version="0.32" xmlns:cc="http://creativecommons.org/ns#" xmlns:dc="http://purl.org/dc/elements/1.1/" xmlns:inkscape="http://www.inkscape.org/namespaces/inkscape" xmlns:rdf="http://www.w3.org/1999/02/22-rdf-syntax-ns#" xmlns:sodipodi="http://sodipodi.sourceforge.net/DTD/sodipodi-0.dtd" xmlns:svg="http://www.w3.org/2000/svg"
	 xmlns="http://www.w3.org/2000/svg" xmlns:xlink="http://www.w3.org/1999/xlink" x="0px" y="0px" viewBox="0 0 48 48"
	 style="enable-background:new 0 0 48 48;" xml:space="preserve">
<style type="text/css">
	.st0{fill:#BBBFC3;}
	.st1{fill:#FFFFFF;}
	.st2{fill:#2B5082;}
	.st3{fill:#A6D0F0;}
</style>
<defs>
	
	
		<inkscape:perspective  id="perspective75" inkscape:persp3d-origin="24 : 16 : 1" inkscape:vp_x="0 : 24 : 1" inkscape:vp_y="0 : 1000 : 0" inkscape:vp_z="48 : 24 : 1" sodipodi:type="inkscape:persp3d">
		</inkscape:perspective>
</defs>
<sodipodi:namedview  bordercolor="#666666" borderopacity="0.25490196" fill="#204a87" id="base" inkscape:current-layer="layer1" inkscape:cx="-97.843136" inkscape:cy="1.9432934" inkscape:document-units="px" inkscape:grid-bbox="true" inkscape:pageopacity="0.0" inkscape:pageshadow="2" inkscape:showpageshadow="false" inkscape:window-height="688" inkscape:window-width="872" inkscape:window-x="189" inkscape:window-y="160" inkscape:zoom="1" pagecolor="#ffffff" showgrid="false" stroke="#204a87">
	</sodipodi:namedview>
<g>
	<g>
		<path class="st0" d="M41.2,38L40,37.1c2.6-3.5,4-7.6,4-12c0-11-9-20-20-20s-20,9-20,20c0,4.4,1.4,8.5,4,12L6.8,38
			C4,34.3,2.5,29.8,2.5,25.1C2.5,13.3,12.1,3.6,24,3.6s21.5,9.6,21.5,21.5C45.5,29.8,44,34.3,41.2,38z"/>
	</g>
	<g>
		<g>
			<path class="st1" d="M24,29.5c1.7,0,4.8-2.3,5.2-3c0.4-0.7,0.6-1.4,0.7-2.2c0-0.2,0.6-1.3,0.7-1.5c0.7-0.9,0.7-3.7,0.7-3.7
				l-0.7-0.7c0,0-0.2-2.3-0.3-3.5c-0.4-3.3-2.7-5.4-6.4-5.4c-3.7,0-6,2.1-6.4,5.4c-0.1,1.1-0.3,3.5-0.3,3.5l-0.7,0.7
				c0,0,0,2.8,0.7,3.7c0.1,0.2,0.7,1.3,0.7,1.5c0.2,0.8,0.3,1.5,0.7,2.2C19.2,27.2,22.3,29.5,24,29.5z"/>
			<path class="st2" d="M24,30.2c-2,0-5.3-2.4-5.8-3.3c-0.5-0.8-0.7-1.6-0.8-2.5c-0.1-0.1-0.5-1-0.6-1.2c-0.8-1.1-0.9-3.6-0.9-4.1
				l0-0.3l0.8-0.8c0.1-0.6,0.2-2.3,0.3-3.2C17.3,11,20,8.7,24,8.7c4,0,6.6,2.3,7.1,6.1c0.1,0.9,0.2,2.6,0.3,3.2l0.8,0.8l0,0.3
				c0,0.5-0.1,3.1-0.9,4.1c-0.1,0.2-0.6,1-0.6,1.2c-0.2,0.8-0.3,1.6-0.8,2.4C29.3,27.8,25.9,30.2,24,30.2z M17.3,19.4
				c0,1.1,0.2,2.5,0.6,3c0.2,0.2,0.8,1.4,0.9,1.8c0.2,0.8,0.3,1.4,0.6,2c0.3,0.5,3.2,2.6,4.6,2.6s4.2-2.1,4.6-2.6
				c0.4-0.6,0.5-1.2,0.6-2c0.1-0.4,0.7-1.6,0.9-1.8c0.3-0.5,0.5-1.9,0.6-3l-0.7-0.7l0-0.3c0,0-0.2-2.3-0.3-3.5
				c-0.4-3-2.4-4.8-5.7-4.8s-5.3,1.7-5.7,4.8c-0.1,1.1-0.3,3.4-0.3,3.4l0,0.3L17.3,19.4z"/>
		</g>
		<g>
			<path class="st3" d="M24,44.3c5.2,0,9.9-1.8,13.4-5.2v-3c-0.4-1.5-1.6-2.2-3-3L29.2,31c0,0-2.7,2.2-5.2,2.2
				c-2.5,0-4.5-2.2-4.5-2.2l-5.9,2.2c-1.4,0.7-2.6,1.5-3,3v3C14,42.5,18.8,44.3,24,44.3z"/>
			<path class="st2" d="M24,45.1c-5.4,0-10.4-1.9-13.9-5.4l-0.2-0.2l0-3.5c0.5-1.8,1.9-2.7,3.3-3.4l0.1,0l6.4-2.4l0.3,0.4
				c0,0,1.8,2,3.9,2c2.2,0,4.7-2,4.7-2.1l0.3-0.3l5.6,2.4c1.5,0.8,2.9,1.7,3.4,3.4l0,0.2v3.3l-0.2,0.2C34.3,43.1,29.4,45.1,24,45.1z
				 M11.4,38.8c3.2,3.1,7.7,4.8,12.6,4.8c4.9,0,9.4-1.7,12.6-4.8v-2.5c-0.3-1.1-1.2-1.7-2.6-2.4l-4.7-2c-0.9,0.6-3.1,2.1-5.3,2.1
				c-2.2,0-3.9-1.4-4.6-2.1l-5.4,2c-1.4,0.7-2.2,1.3-2.5,2.4V38.8z"/>
		</g>
		<g>
			<g>
				<rect x="18.8" y="27.2" class="st2" width="1.5" height="3.7"/>
			</g>
		</g>
		<g>
			<g>
				<rect x="27.7" y="27.2" class="st2" width="1.5" height="3.7"/>
			</g>
		</g>
	</g>
</g>
</svg>
