<?xml version="1.0" encoding="utf-8"?>
<!-- Generator: Adobe Illustrator 19.2.1, SVG Export Plug-In . SVG Version: 6.00 Build 0)  -->
<svg version="1.1"
	 id="svg11300" inkscape:export-filename="/home/jimmac/Desktop/wi-fi.png" inkscape:export-xdpi="90.000000" inkscape:export-ydpi="90.000000" inkscape:output_extension="org.inkscape.output.svg.inkscape" inkscape:version="0.46" sodipodi:docbase="/home/jimmac/src/cvs/tango-icon-theme/scalable/status" sodipodi:docname="image-missing.svg" sodipodi:version="0.32" xmlns:cc="http://creativecommons.org/ns#" xmlns:dc="http://purl.org/dc/elements/1.1/" xmlns:inkscape="http://www.inkscape.org/namespaces/inkscape" xmlns:rdf="http://www.w3.org/1999/02/22-rdf-syntax-ns#" xmlns:sodipodi="http://sodipodi.sourceforge.net/DTD/sodipodi-0.dtd" xmlns:svg="http://www.w3.org/2000/svg"
	 xmlns="http://www.w3.org/2000/svg" xmlns:xlink="http://www.w3.org/1999/xlink" x="0px" y="0px" viewBox="0 0 48 48"
	 style="enable-background:new 0 0 48 48;" xml:space="preserve">
<style type="text/css">
	.st0{fill:#FFFFFF;}
	.st1{fill:#A6D0F0;}
	.st2{fill:#2B5082;}
	.st3{fill:#E8E9EA;}
	.st4{fill:#CB1517;}
</style>
<defs>
	
	
		<inkscape:perspective  id="perspective43" inkscape:persp3d-origin="24 : 16 : 1" inkscape:vp_x="0 : 24 : 1" inkscape:vp_y="0 : 1000 : 0" inkscape:vp_z="48 : 24 : 1" sodipodi:type="inkscape:persp3d">
		</inkscape:perspective>
</defs>
<sodipodi:namedview  bordercolor="#666666" borderopacity="0.25490196" fill="#cc0000" id="base" inkscape:current-layer="layer1" inkscape:cx="-148.28654" inkscape:cy="31.493755" inkscape:document-units="px" inkscape:grid-bbox="true" inkscape:pageopacity="0.0" inkscape:pageshadow="2" inkscape:showpageshadow="false" inkscape:window-height="818" inkscape:window-width="1107" inkscape:window-x="0" inkscape:window-y="30" inkscape:zoom="1" pagecolor="#ffffff" showgrid="false" stroke="#cc0000">
	
		<inkscape:grid  color="#0000ff" empcolor="#0000ff" empopacity="0.4" empspacing="4" id="GridFromPre046Settings" opacity="0.2" originx="0px" originy="0px" spacingx="1px" spacingy="1px" type="xygrid">
		</inkscape:grid>
</sodipodi:namedview>
<g>
	<g>
		<g>
			<g>
				<path class="st0" d="M39.2,44.9H9.8c-1.1,0-2-0.9-2-2V5.7c0-1.1,0.9-2,2-2h23.5l7.8,7.8v31.4C41.2,44,40.3,44.9,39.2,44.9z"/>
			</g>
			<g>
				<polygon class="st1" points="32.3,3.7 32.3,12.5 41.2,12.5 				"/>
			</g>
			<g>
				<path class="st2" d="M39.2,45.9H9.8c-1.6,0-2.9-1.3-2.9-2.9V5.7c0-1.6,1.3-2.9,2.9-2.9h23.9l8.4,8.4v31.8
					C42.1,44.5,40.8,45.9,39.2,45.9z M9.8,4.7c-0.5,0-1,0.4-1,1v37.2c0,0.5,0.4,1,1,1h29.4c0.5,0,1-0.4,1-1V12l-7.3-7.3H9.8z"/>
			</g>
			<g>
				<polygon class="st2" points="38.2,13.5 31.4,13.5 31.4,6.7 33.3,6.7 33.3,11.6 38.2,11.6 				"/>
			</g>
		</g>
	</g>
	<path class="st3" d="M21.1,17.5c0,1.7-1.4,3.2-3.2,3.2c-1.8,0-3.2-1.4-3.2-3.2c0-1.7,1.4-3.2,3.2-3.2
		C19.7,14.4,21.1,15.8,21.1,17.5L21.1,17.5z M21.1,17.5"/>
	<path class="st3" d="M14.8,35.3l5.8-10.1l3.6,4.6l7-9.9l4.3,15.4H14.8z M14.8,35.3"/>
	<g>
		<path class="st4" d="M12.1,8.3h2.8l1,1.7L17,8.3h2.6l-2.1,2.9l2.2,3.2H17l-1.1-2l-1.3,2H12l2.2-3.2L12.1,8.3z"/>
	</g>
</g>
</svg>
