<?xml version="1.0" encoding="utf-8"?>
<!-- Generator: Adobe Illustrator 19.2.1, SVG Export Plug-In . SVG Version: 6.00 Build 0)  -->
<svg version="1.1"
	 id="svg2" inkscape:export-filename="/home/tigert/My Downloads/go-home.png" inkscape:export-xdpi="90.000000" inkscape:export-ydpi="90.000000" inkscape:output_extension="org.inkscape.output.svg.inkscape" inkscape:version="0.46" sodipodi:docbase="/home/jimmac/src/cvs/tango-icon-theme/scalable/actions" sodipodi:docname="go-home.svg" sodipodi:version="0.32" xmlns:cc="http://creativecommons.org/ns#" xmlns:dc="http://purl.org/dc/elements/1.1/" xmlns:inkscape="http://www.inkscape.org/namespaces/inkscape" xmlns:rdf="http://www.w3.org/1999/02/22-rdf-syntax-ns#" xmlns:sodipodi="http://sodipodi.sourceforge.net/DTD/sodipodi-0.dtd" xmlns:svg="http://www.w3.org/2000/svg"
	 xmlns="http://www.w3.org/2000/svg" xmlns:xlink="http://www.w3.org/1999/xlink" x="0px" y="0px" viewBox="0 0 48 48"
	 style="enable-background:new 0 0 48 48;" xml:space="preserve">
<style type="text/css">
	.st0{fill:#A6D0F0;}
	.st1{fill:#2B5082;}
	.st2{fill:none;}
</style>
<defs>
	
	
		<inkscape:perspective  id="perspective92" inkscape:persp3d-origin="24 : 16 : 1" inkscape:vp_x="0 : 24 : 1" inkscape:vp_y="0 : 1000 : 0" inkscape:vp_z="48 : 24 : 1" sodipodi:type="inkscape:persp3d">
		</inkscape:perspective>
</defs>
<sodipodi:namedview  bordercolor="#666666" borderopacity="0.21568627" fill="#555753" id="base" inkscape:current-layer="svg2" inkscape:cx="25.234802" inkscape:cy="-2.3755359" inkscape:guide-bbox="true" inkscape:pageopacity="0.0" inkscape:pageshadow="2" inkscape:showpageshadow="false" inkscape:window-height="691" inkscape:window-width="872" inkscape:window-x="466" inkscape:window-y="157" inkscape:zoom="1" pagecolor="#ffffff" showgrid="false" showguides="true" stroke="#a40000">
	</sodipodi:namedview>
<g>
	<rect x="21.5" y="27.7" class="st0" width="5" height="11.7"/>
	<path class="st0" d="M33.5,12.4l3.4,2.4V9h-3.4V12.4z M33.5,12.4"/>
	<path class="st1" d="M44.2,19.8l-4.9-3.4V7.8c0-0.7-0.5-1.2-1.2-1.2h-5.8c-0.7,0-1.2,0.5-1.2,1.2v2.9c0,0-6.3-4.3-6.4-4.4
		c-0.4-0.3-0.9-0.3-1.4,0L3.8,19.8c-0.5,0.4-0.7,1.1-0.3,1.7c0.2,0.3,0.6,0.5,1,0.5c0.2,0,0.5-0.1,0.7-0.2l3.5-2.4v21.2
		c0,0.7,0.5,1.2,1.2,1.2h28.2c0.7,0,1.2-0.5,1.2-1.2V19.3l3.5,2.4c0.2,0.1,0.4,0.2,0.7,0.2c0.4,0,0.8-0.2,1-0.5
		C44.9,20.9,44.8,20.1,44.2,19.8L44.2,19.8z M26.5,39.3h-5V27.7h5V39.3z M36.9,39.3h-8V26.5c0-0.7-0.5-1.2-1.2-1.2h-7.4
		c-0.7,0-1.2,0.5-1.2,1.2v12.9h-8V17.7L24,8.8l12.9,8.8V39.3z M36.9,14.8l-3.4-2.4V9h3.4V14.8z M36.9,14.8"/>
	<rect x="3.3" y="6.1" class="st2" width="41.5" height="35.7"/>
</g>
</svg>
