<?xml version="1.0" encoding="utf-8"?>
<!-- Generator: Adobe Illustrator 19.2.1, SVG Export Plug-In . SVG Version: 6.00 Build 0)  -->
<svg version="1.1"
	 id="svg11300" inkscape:export-filename="/home/jimmac/Desktop/wi-fi.png" inkscape:export-xdpi="90.000000" inkscape:export-ydpi="90.000000" inkscape:output_extension="org.inkscape.output.svg.inkscape" inkscape:version="0.46" sodipodi:docbase="/home/jimmac/src/cvs/tango-icon-theme/scalable/emblems" sodipodi:docname="emblem-unreadable.svg" sodipodi:version="0.32" xmlns:cc="http://creativecommons.org/ns#" xmlns:dc="http://purl.org/dc/elements/1.1/" xmlns:inkscape="http://www.inkscape.org/namespaces/inkscape" xmlns:rdf="http://www.w3.org/1999/02/22-rdf-syntax-ns#" xmlns:sodipodi="http://sodipodi.sourceforge.net/DTD/sodipodi-0.dtd" xmlns:svg="http://www.w3.org/2000/svg"
	 xmlns="http://www.w3.org/2000/svg" xmlns:xlink="http://www.w3.org/1999/xlink" x="0px" y="0px" viewBox="0 0 48 48"
	 style="enable-background:new 0 0 48 48;" xml:space="preserve">
<style type="text/css">
	.st0{fill:#2B5082;}
	.st1{fill:#A6D0F0;}
</style>
<defs>
	
	
		<inkscape:perspective  id="perspective57" inkscape:persp3d-origin="24 : 16 : 1" inkscape:vp_x="0 : 24 : 1" inkscape:vp_y="0 : 1000 : 0" inkscape:vp_z="48 : 24 : 1" sodipodi:type="inkscape:persp3d">
		</inkscape:perspective>
</defs>
<sodipodi:namedview  bordercolor="#666666" borderopacity="0.25490196" fill="#cc0000" id="base" inkscape:current-layer="layer1" inkscape:cx="49.436623" inkscape:cy="35.750047" inkscape:document-units="px" inkscape:grid-bbox="true" inkscape:pageopacity="0.0" inkscape:pageshadow="2" inkscape:showpageshadow="false" inkscape:window-height="818" inkscape:window-width="1002" inkscape:window-x="432" inkscape:window-y="30" inkscape:zoom="1" pagecolor="#ffffff" showgrid="false" stroke="#eeeeec">
	</sodipodi:namedview>
<g>
	<g>
		<path class="st0" d="M44.4,6.8c-1-2.9-3.3-3.3-5.9-3.3H9c-2.7,0-4.8,1-5.3,3.8c0,0.1-0.1,0.3-0.1,0.5c0,0.1,0,0.2,0,0.4v16.1
			c0,5.4-0.5,11.2,0.1,16.6c0.4,3.1,3.2,3.6,5.7,3.6h29.7c2.7,0,5.4-1.1,5.4-4.3V12.3C44.5,10.7,44.9,8.3,44.4,6.8L44.4,6.8z
			 M41.5,12.6v27.6c0,2.1-5.2,1.3-6.1,1.3H7.9c-2.1,0-1.3-5.2-1.3-6.1V7.8c0.2-2.2,4.9-1.3,6.1-1.3h27.6
			C42.3,6.5,41.5,11.6,41.5,12.6L41.5,12.6z M41.5,12.6"/>
	</g>
	<path class="st1" d="M27.3,24l7.1-7.1c0.2-0.2,0.2-0.4,0-0.6l-2.6-2.6c-0.1-0.1-0.2-0.1-0.3-0.1c-0.1,0-0.2,0-0.3,0.1L24,20.7
		l-7.1-7.1c-0.2-0.2-0.5-0.2-0.6,0l-2.6,2.6c-0.2,0.2-0.2,0.4,0,0.6l7.1,7.1l-7.1,7.1c-0.2,0.2-0.2,0.4,0,0.6l2.6,2.6
		c0.1,0.1,0.2,0.1,0.3,0.1c0.1,0,0.2,0,0.3-0.1l7.1-7.1l7.1,7.1c0.1,0.1,0.2,0.1,0.3,0.1c0.1,0,0.2,0,0.3-0.1l2.6-2.6
		c0.2-0.2,0.2-0.4,0-0.6L27.3,24z M27.3,24"/>
</g>
</svg>
