<?xml version="1.0" encoding="utf-8"?>
<!-- Generator: Adobe Illustrator 19.2.1, SVG Export Plug-In . SVG Version: 6.00 Build 0)  -->
<svg version="1.1"
	 id="svg97" inkscape:export-filename="/home/jimmac/Desktop/horlander-style3.png" inkscape:export-xdpi="90.000000" inkscape:export-ydpi="90.000000" inkscape:output_extension="org.inkscape.output.svg.inkscape" inkscape:version="0.46" sodipodi:docbase="/home/jimmac/src/cvs/tango-icon-theme/scalable/actions" sodipodi:docname="folder-new.svg" sodipodi:version="0.32" xmlns:cc="http://creativecommons.org/ns#" xmlns:dc="http://purl.org/dc/elements/1.1/" xmlns:inkscape="http://www.inkscape.org/namespaces/inkscape" xmlns:rdf="http://www.w3.org/1999/02/22-rdf-syntax-ns#" xmlns:sodipodi="http://sodipodi.sourceforge.net/DTD/sodipodi-0.dtd" xmlns:svg="http://www.w3.org/2000/svg"
	 xmlns="http://www.w3.org/2000/svg" xmlns:xlink="http://www.w3.org/1999/xlink" x="0px" y="0px" viewBox="0 0 48 48"
	 style="enable-background:new 0 0 48 48;" xml:space="preserve">
<style type="text/css">
	.st0{fill:#2B5082;}
	.st1{fill:#A6D0F0;}
	.st2{fill:none;}
	.st3{fill:#BABEC2;}
</style>
<defs>
	
	
		<inkscape:perspective  id="perspective71" inkscape:persp3d-origin="24 : 16 : 1" inkscape:vp_x="0 : 24 : 1" inkscape:vp_y="0 : 1000 : 0" inkscape:vp_z="48 : 24 : 1" sodipodi:type="inkscape:persp3d">
		</inkscape:perspective>
</defs>
<sodipodi:namedview  bordercolor="#666666" borderopacity="0.10196078" fill="#729fcf" id="base" inkscape:current-layer="layer1" inkscape:cx="-83.185817" inkscape:cy="-7.2408029" inkscape:document-units="px" inkscape:grid-bbox="true" inkscape:pageopacity="0.0" inkscape:pageshadow="2" inkscape:showpageshadow="false" inkscape:window-height="659" inkscape:window-width="872" inkscape:window-x="898" inkscape:window-y="342" inkscape:zoom="1" pagecolor="#ffffff" showgrid="false" stroke="#3465a4">
	</sodipodi:namedview>
<g>
	<g>
		<g>
			<polygon class="st0" points="9.3,31.9 7.8,31.5 11.1,21.3 40.6,21.3 40.6,23.1 34.4,29.3 33.4,28.2 38.8,22.8 12.2,22.8 			"/>
		</g>
		<g>
			<path class="st1" d="M21.2,14.6v-1.5l-3-3H2.6v29.8c0,0.8,0.7,1.5,1.5,1.5h24.4c0.7,0,1.3-0.4,1.8-0.9l11.8-11v-2.2H28.7l-3,2.2
				h-9.6l-9.5,8.9h-1V14.6H21.2z"/>
			<path class="st0" d="M28.5,42.1H4.1c-1.2,0-2.2-1-2.2-2.2V9.3h16.7l3.4,3.4v2.5H6.3l0,22.4l9.5-8.9h9.6l3-2.2h14.4v3.3L30.8,41
				C30.4,41.4,29.6,42.1,28.5,42.1z M3.3,10.8v29.1c0,0.4,0.3,0.7,0.7,0.7h24.4c0.4,0,0.8-0.3,1.2-0.7l11.6-10.8V28H28.9l-3,2.2
				h-9.5l-9.5,8.9H4.8V13.8h15.7v-0.4l-2.5-2.5H3.3z"/>
		</g>
		<g>
			<polygon class="st0" points="33.8,22.4 32.5,21.6 36.7,15.3 17.5,15.3 17.5,13.8 38.4,13.8 38.4,15.5 			"/>
		</g>
	</g>
	<g>
		<g>
			<g>
				<line class="st2" x1="41.1" y1="5.8" x2="41.1" y2="16.3"/>
			</g>
			<g>
				<rect x="40.2" y="5.8" class="st3" width="1.8" height="10.4"/>
			</g>
		</g>
		<g>
			<g>
				<line class="st2" x1="35.9" y1="11" x2="46.4" y2="11"/>
			</g>
			<g>
				<rect x="35.9" y="10.1" class="st3" width="10.4" height="1.8"/>
			</g>
		</g>
	</g>
</g>
</svg>
