<?xml version="1.0" encoding="utf-8"?>
<!-- Generator: Adobe Illustrator 19.2.1, SVG Export Plug-In . SVG Version: 6.00 Build 0)  -->
<svg version="1.1"
	 id="svg9121" inkscape:export-filename="/home/andreas/projekt/bild/tango/scalable/draw-pencil3.png" inkscape:export-xdpi="90.000000" inkscape:export-ydpi="90.000000" inkscape:output_extension="org.inkscape.output.svg.inkscape" inkscape:version="0.48.2 r9819" sodipodi:docname="tryton-text-foreground.svg" sodipodi:version="0.32" xmlns:cc="http://creativecommons.org/ns#" xmlns:dc="http://purl.org/dc/elements/1.1/" xmlns:inkscape="http://www.inkscape.org/namespaces/inkscape" xmlns:rdf="http://www.w3.org/1999/02/22-rdf-syntax-ns#" xmlns:sodipodi="http://sodipodi.sourceforge.net/DTD/sodipodi-0.dtd" xmlns:svg="http://www.w3.org/2000/svg"
	 xmlns="http://www.w3.org/2000/svg" xmlns:xlink="http://www.w3.org/1999/xlink" x="0px" y="0px" viewBox="0 0 48 48"
	 style="enable-background:new 0 0 48 48;" xml:space="preserve">
<style type="text/css">
	.st0{fill:#E8E9EA;}
	.st1{fill:#2B5082;}
</style>
<defs>
	
	
		<inkscape:perspective  id="perspective77" inkscape:persp3d-origin="24 : 16 : 1" inkscape:vp_x="0 : 24 : 1" inkscape:vp_y="0 : 1000 : 0" inkscape:vp_z="48 : 24 : 1" sodipodi:type="inkscape:persp3d">
		</inkscape:perspective>
</defs>
<sodipodi:namedview  bordercolor="#666666" borderopacity="0.17254902" fill="#3465a4" id="base" inkscape:current-layer="layer1" inkscape:cx="35.925926" inkscape:cy="25.863906" inkscape:document-units="px" inkscape:grid-bbox="true" inkscape:guide-bbox="true" inkscape:pageopacity="0.0" inkscape:pageshadow="2" inkscape:showpageshadow="false" inkscape:window-height="751" inkscape:window-maximized="0" inkscape:window-width="1022" inkscape:window-x="0" inkscape:window-y="15" inkscape:zoom="4" pagecolor="#ffffff" showgrid="false" showguides="true" stroke="#204a87">
	</sodipodi:namedview>
<g>
	<path class="st0" d="M18.9,19.4c-0.1-0.3-0.2-0.7-0.3-1.1c-0.1,0.4-0.2,0.8-0.3,1.1c-0.1,0.4-0.2,0.7-0.3,0.9l-2.1,5.7h5.5
		l-2.1-5.8C19.2,20.1,19,19.8,18.9,19.4z"/>
	<path class="st0" d="M31.4,28c-0.4,0.2-0.6,0.4-0.7,0.6c-0.1,0.2-0.2,0.5-0.2,0.7c0,0.5,0.2,0.9,0.5,1.1c0.3,0.2,0.7,0.3,1.2,0.3
		c0.3,0,0.6,0,0.8-0.1c0.3-0.1,0.5-0.1,0.7-0.2s0.4-0.2,0.7-0.4c0.2-0.2,0.4-0.4,0.6-0.6v-2.1c-0.9,0-1.6,0.1-2.2,0.2
		C32.2,27.7,31.7,27.8,31.4,28z"/>
	<path class="st0" d="M40.1,6.6H12.6c-1.2,0-5.8-0.8-6.1,1.3v27.5c0,0.9-0.8,6.1,1.3,6.1h27.5c0.9,0,6.1,0.8,6.1-1.3V12.7
		C41.5,11.7,42.2,6.6,40.1,6.6z M24.5,32.6c-0.3,0-0.5-0.1-0.7-0.2c-0.2-0.1-0.3-0.3-0.4-0.5l-1.3-3.5H15l-1.3,3.5
		c-0.1,0.2-0.2,0.4-0.4,0.5c-0.2,0.2-0.4,0.2-0.7,0.2h-2.5L17,15.3h3.3L27,32.6H24.5z M37.8,32.6h-1.3c-0.3,0-0.5,0-0.7-0.1
		c-0.2-0.1-0.3-0.3-0.4-0.5l-0.3-0.9c-0.3,0.3-0.6,0.5-0.9,0.7c-0.3,0.2-0.6,0.4-0.9,0.5c-0.3,0.1-0.7,0.3-1,0.3
		c-0.4,0.1-0.8,0.1-1.2,0.1c-0.5,0-1-0.1-1.4-0.2c-0.4-0.1-0.8-0.4-1.1-0.6c-0.3-0.3-0.6-0.6-0.7-1c-0.2-0.4-0.3-0.9-0.3-1.5
		c0-0.5,0.1-0.9,0.4-1.4c0.2-0.5,0.6-0.9,1.2-1.2c0.6-0.4,1.3-0.7,2.3-0.9s2.1-0.4,3.5-0.4v-0.7c0-0.8-0.2-1.4-0.5-1.8
		c-0.3-0.4-0.9-0.6-1.5-0.6c-0.5,0-0.9,0.1-1.2,0.2c-0.3,0.1-0.6,0.2-0.8,0.4c-0.2,0.1-0.5,0.3-0.7,0.4s-0.4,0.2-0.7,0.2
		c-0.2,0-0.4-0.1-0.5-0.2c-0.1-0.1-0.3-0.2-0.3-0.4L28.1,22c1.4-1.3,3.1-1.9,5.1-1.9c0.7,0,1.4,0.1,1.9,0.4c0.6,0.2,1,0.6,1.4,1
		c0.4,0.4,0.7,0.9,0.9,1.5c0.2,0.6,0.3,1.2,0.3,1.9V32.6z"/>
	<path class="st1" d="M17,15.3l-6.8,17.3h2.5c0.3,0,0.5-0.1,0.7-0.2c0.2-0.2,0.3-0.3,0.4-0.5l1.3-3.5h7.2l1.3,3.5
		c0.1,0.2,0.2,0.4,0.4,0.5c0.2,0.1,0.4,0.2,0.7,0.2H27l-6.8-17.3H17z M15.8,26.1l2.1-5.7c0.1-0.3,0.2-0.6,0.3-0.9
		c0.1-0.4,0.2-0.7,0.3-1.1c0.1,0.4,0.2,0.8,0.3,1.1c0.1,0.3,0.2,0.6,0.3,0.9l2.1,5.8H15.8z"/>
	<path class="st1" d="M36.6,21.4c-0.4-0.4-0.9-0.7-1.4-1c-0.6-0.2-1.2-0.4-1.9-0.4c-2,0-3.7,0.6-5.1,1.9l0.5,0.9
		c0.1,0.2,0.2,0.3,0.3,0.4c0.1,0.1,0.3,0.2,0.5,0.2c0.2,0,0.5-0.1,0.7-0.2s0.4-0.2,0.7-0.4c0.2-0.1,0.5-0.3,0.8-0.4
		c0.3-0.1,0.7-0.2,1.2-0.2c0.7,0,1.2,0.2,1.5,0.6c0.3,0.4,0.5,1,0.5,1.8v0.7c-1.4,0-2.6,0.1-3.5,0.4s-1.7,0.5-2.3,0.9
		c-0.6,0.4-1,0.8-1.2,1.2c-0.2,0.5-0.4,0.9-0.4,1.4c0,0.6,0.1,1,0.3,1.5c0.2,0.4,0.4,0.8,0.7,1c0.3,0.3,0.7,0.5,1.1,0.6
		c0.4,0.1,0.9,0.2,1.4,0.2c0.4,0,0.8,0,1.2-0.1c0.4-0.1,0.7-0.2,1-0.3c0.3-0.1,0.6-0.3,0.9-0.5c0.3-0.2,0.6-0.5,0.9-0.7l0.3,0.9
		c0.1,0.3,0.2,0.4,0.4,0.5c0.2,0.1,0.4,0.1,0.7,0.1h1.3v-7.8c0-0.7-0.1-1.3-0.3-1.9C37.3,22.4,37,21.9,36.6,21.4z M34.9,29.4
		c-0.2,0.2-0.4,0.4-0.6,0.6c-0.2,0.2-0.4,0.3-0.7,0.4s-0.5,0.2-0.7,0.2c-0.3,0.1-0.5,0.1-0.8,0.1c-0.5,0-0.9-0.1-1.2-0.3
		c-0.3-0.2-0.5-0.6-0.5-1.1c0-0.3,0.1-0.5,0.2-0.7c0.1-0.2,0.4-0.4,0.7-0.6c0.4-0.2,0.8-0.3,1.4-0.4c0.6-0.1,1.3-0.2,2.2-0.2V29.4z"
		/>
	<path class="st1" d="M38.4,3.7H9c-2.7,0-4.8,1-5.3,3.8c0,0.1-0.1,0.3-0.1,0.4c0,0.1,0,0.2,0,0.4v16c0,5.4-0.5,11.1,0.1,16.5
		c0.4,3.1,3.2,3.6,5.7,3.6H39c2.6,0,5.4-1.1,5.4-4.3V12.3c0-1.6,0.4-3.9-0.1-5.4C43.2,4,41,3.7,38.4,3.7z M41.5,12.7v27.5
		c0,2.1-5.1,1.3-6.1,1.3H7.9c-2.1,0-1.3-5.1-1.3-6.1V7.9c0.2-2.1,4.9-1.3,6.1-1.3h27.5C42.2,6.6,41.5,11.7,41.5,12.7z"/>
</g>
</svg>
