<?xml version="1.0" encoding="utf-8"?>
<!-- Generator: Adobe Illustrator 19.2.1, SVG Export Plug-In . SVG Version: 6.00 Build 0)  -->
<svg version="1.1"
	 id="svg2327" inkscape:output_extension="org.inkscape.output.svg.inkscape" inkscape:version="0.46" sodipodi:docbase="/home/jimmac/gfx/ximian/tango-icon-theme/scalable/devices" sodipodi:docname="computer.svg" sodipodi:version="0.32" xmlns:cc="http://creativecommons.org/ns#" xmlns:dc="http://purl.org/dc/elements/1.1/" xmlns:inkscape="http://www.inkscape.org/namespaces/inkscape" xmlns:rdf="http://www.w3.org/1999/02/22-rdf-syntax-ns#" xmlns:sodipodi="http://sodipodi.sourceforge.net/DTD/sodipodi-0.dtd" xmlns:svg="http://www.w3.org/2000/svg"
	 xmlns="http://www.w3.org/2000/svg" xmlns:xlink="http://www.w3.org/1999/xlink" x="0px" y="0px" viewBox="0 0 48 48"
	 style="enable-background:new 0 0 48 48;" xml:space="preserve">
<style type="text/css">
	.st0{fill:#E8E9EA;}
	.st1{fill:#A6D0F0;}
	.st2{fill:#2B5082;}
	.st3{fill:#BABEC2;}
</style>
<defs>
	
	
		<inkscape:perspective  id="perspective112" inkscape:persp3d-origin="24 : 16 : 1" inkscape:vp_x="0 : 24 : 1" inkscape:vp_y="0 : 1000 : 0" inkscape:vp_z="48 : 24 : 1" sodipodi:type="inkscape:persp3d">
		</inkscape:perspective>
</defs>
<sodipodi:namedview  bordercolor="#666666" borderopacity="0.12156863" id="base" inkscape:current-layer="layer1" inkscape:cx="75.353821" inkscape:cy="12.176086" inkscape:document-units="px" inkscape:grid-bbox="true" inkscape:pageopacity="0.0" inkscape:pageshadow="2" inkscape:showpageshadow="false" inkscape:window-height="688" inkscape:window-width="770" inkscape:window-x="402" inkscape:window-y="30" inkscape:zoom="1" pagecolor="#ffffff" showgrid="false">
	</sodipodi:namedview>
<g>
	<path class="st0" d="M7.8,29.8h32.9V9.3H7.8V29.8z M35.4,12.2c0.3-0.3,0.7-0.3,1,0l1.4,1.4c0.3,0.3,0.3,0.7,0,1
		c-0.1,0.1-0.3,0.2-0.5,0.2c-0.2,0-0.4-0.1-0.5-0.2l-1.4-1.4C35.1,12.9,35.1,12.5,35.4,12.2z M31.2,12.2c0.3-0.3,0.7-0.3,1,0
		l5.5,5.5c0.3,0.3,0.3,0.7,0,1c-0.1,0.1-0.3,0.2-0.5,0.2c-0.2,0-0.4-0.1-0.5-0.2l-5.5-5.5C31,12.9,31,12.5,31.2,12.2z"/>
	<path class="st1" d="M41.3,6.5H7.1C6.1,6.5,5,7.6,5,8.6v24.6c0,1,1.1,2.1,2.1,2.1h34.2c1,0,2.1-1.1,2.1-2.1V8.6
		C43.4,7.6,42.3,6.5,41.3,6.5z M24.2,33.9c-0.4,0-0.7-0.3-0.7-0.7c0-0.4,0.3-0.7,0.7-0.7h0c0.4,0,0.7,0.3,0.7,0.7
		C24.9,33.6,24.6,33.9,24.2,33.9z M42,30.5c0,0.4-0.3,0.7-0.7,0.7H7.1c-0.4,0-0.7-0.3-0.7-0.7V8.6c0-0.4,0.3-0.7,0.7-0.7h34.2
		c0.4,0,0.7,0.3,0.7,0.7V30.5z"/>
	<path class="st2" d="M33.1,42.1h-4.8v-3.4c0-0.4-0.3-0.7-0.7-0.7c-0.4,0-0.7,0.3-0.7,0.7v3.4h-5.5v-3.4c0-0.4-0.3-0.7-0.7-0.7
		c-0.4,0-0.7,0.3-0.7,0.7v3.4h-4.8c-0.4,0-0.7,0.3-0.7,0.7c0,0.4,0.3,0.7,0.7,0.7h17.8c0.4,0,0.7-0.3,0.7-0.7
		C33.8,42.4,33.5,42.1,33.1,42.1z"/>
	<path class="st2" d="M24.2,32.5L24.2,32.5c-0.4,0-0.7,0.3-0.7,0.7c0,0.4,0.3,0.7,0.7,0.7c0.4,0,0.7-0.3,0.7-0.7
		C24.9,32.9,24.6,32.5,24.2,32.5z"/>
	<path class="st3" d="M36.7,14.5c0.1,0.1,0.3,0.2,0.5,0.2c0.2,0,0.4-0.1,0.5-0.2c0.3-0.3,0.3-0.7,0-1l-1.4-1.4c-0.3-0.3-0.7-0.3-1,0
		c-0.3,0.3-0.3,0.7,0,1L36.7,14.5z"/>
	<path class="st3" d="M36.7,18.7c0.1,0.1,0.3,0.2,0.5,0.2c0.2,0,0.4-0.1,0.5-0.2c0.3-0.3,0.3-0.7,0-1l-5.5-5.5c-0.3-0.3-0.7-0.3-1,0
		c-0.3,0.3-0.3,0.7,0,1L36.7,18.7z"/>
	<path class="st2" d="M41.3,5.2H7.1c-1.8,0-3.4,1.7-3.4,3.4v24.6c0,1.8,1.7,3.4,3.4,3.4h34.2c1.8,0,3.4-1.7,3.4-3.4V8.6
		C44.7,6.8,43.1,5.2,41.3,5.2z M43.4,33.2c0,1-1.1,2.1-2.1,2.1H7.1c-1,0-2.1-1.1-2.1-2.1V8.6c0-1,1.1-2.1,2.1-2.1h34.2
		c1,0,2.1,1.1,2.1,2.1V33.2z"/>
	<path class="st2" d="M41.3,7.9H7.1c-0.4,0-0.7,0.3-0.7,0.7v21.9c0,0.4,0.3,0.7,0.7,0.7h34.2c0.4,0,0.7-0.3,0.7-0.7V8.6
		C42,8.2,41.7,7.9,41.3,7.9z M40.6,29.8H7.8V9.3h32.9V29.8z"/>
</g>
</svg>
