<?xml version="1.0" encoding="utf-8"?>
<!-- Generator: Adobe Illustrator 19.2.1, SVG Export Plug-In . SVG Version: 6.00 Build 0)  -->
<svg version="1.1"
	 id="svg11300" inkscape:export-filename="/home/jimmac/Desktop/wi-fi.png" inkscape:export-xdpi="90.000000" inkscape:export-ydpi="90.000000" inkscape:output_extension="org.inkscape.output.svg.inkscape" inkscape:version="0.46" sodipodi:docbase="/home/jimmac/src/cvs/tango-icon-theme/scalable/actions" sodipodi:docname="view-refresh.svg" sodipodi:version="0.32" xmlns:cc="http://creativecommons.org/ns#" xmlns:dc="http://purl.org/dc/elements/1.1/" xmlns:inkscape="http://www.inkscape.org/namespaces/inkscape" xmlns:rdf="http://www.w3.org/1999/02/22-rdf-syntax-ns#" xmlns:sodipodi="http://sodipodi.sourceforge.net/DTD/sodipodi-0.dtd" xmlns:svg="http://www.w3.org/2000/svg"
	 xmlns="http://www.w3.org/2000/svg" xmlns:xlink="http://www.w3.org/1999/xlink" x="0px" y="0px" viewBox="0 0 48 48"
	 style="enable-background:new 0 0 48 48;" xml:space="preserve">
<style type="text/css">
	.st0{fill:#A6D0F0;}
	.st1{fill:#2B5082;}
</style>
<defs>
	
	
		<inkscape:perspective  id="perspective58" inkscape:persp3d-origin="24 : 16 : 1" inkscape:vp_x="0 : 24 : 1" inkscape:vp_y="0 : 1000 : 0" inkscape:vp_z="48 : 24 : 1" sodipodi:type="inkscape:persp3d">
		</inkscape:perspective>
</defs>
<sodipodi:namedview  bordercolor="#666666" borderopacity="0.25490196" fill="#729fcf" id="base" inkscape:current-layer="layer1" inkscape:cx="2.4438651" inkscape:cy="18.153347" inkscape:document-units="px" inkscape:grid-bbox="true" inkscape:pageopacity="0.0" inkscape:pageshadow="2" inkscape:showpageshadow="false" inkscape:window-height="818" inkscape:window-width="891" inkscape:window-x="0" inkscape:window-y="30" inkscape:zoom="5.6568542" pagecolor="#ffffff" showgrid="false" stroke="#3465a4">
	</sodipodi:namedview>
<g>
	<g>
		<path class="st0" d="M19.4,10.3c4.7-0.2,9,1.9,11.8,5.3l-4.4,2.8l16,6.7V8l-4.1,2.8C35,7,29.7,4.6,24,4.8
			C16.7,5.1,10.5,9.5,7.6,15.7l0.7,0.5C10.8,12.7,14.8,10.4,19.4,10.3z"/>
		<path class="st1" d="M43.7,26.5l-19.2-8l5-3.2c-2.7-2.8-6.3-4.3-10.2-4.1l0,0c-4.1,0.2-7.9,2.2-10.4,5.5l-0.6,0.8L6.3,16l0.4-0.8
			C9.9,8.5,16.5,4.1,24,3.8c5.5-0.2,10.8,1.9,14.8,5.8l5-3.4V26.5z M28.9,18.2l12.8,5.4V9.9l-3.3,2.3l-0.6-0.6
			c-3.6-3.8-8.7-6-13.8-5.8c-5,0.2-9.6,2.4-12.8,6.1c2.4-1.6,5.2-2.6,8.2-2.7l0,0c4.9-0.2,9.5,1.9,12.6,5.7l0.7,0.9L28.9,18.2z"/>
	</g>
	<g>
		<path class="st0" d="M41.3,32.8c-2.5,3.4-6.5,5.7-11.2,5.9c-4.7,0.2-9-1.9-11.8-5.3l4.4-2.8L6.7,24v17l4.2-3
			c3.6,3.8,8.9,6.3,14.6,6.1C32.8,43.8,39,39.4,42,33.2L41.3,32.8z"/>
		<path class="st1" d="M24.8,45.1c-5.2,0-10.2-2.1-14-5.8L5.7,43V22.6l19.2,7.8l-5.1,3.2c2.7,2.8,6.3,4.3,10.2,4.1
			c4.1-0.2,7.9-2.2,10.4-5.5l0.6-0.8l2.2,1.5l-0.4,0.8c-3.2,6.8-9.8,11.2-17.3,11.4C25.3,45.1,25.1,45.1,24.8,45.1z M11,36.7
			l0.6,0.6c3.6,3.9,8.7,5.9,13.8,5.8c5-0.2,9.6-2.4,12.8-6.1c-2.4,1.6-5.2,2.6-8.2,2.7c-4.9,0.2-9.5-1.9-12.6-5.7l-0.7-0.9l3.7-2.3
			L7.7,25.5v13.6L11,36.7z"/>
	</g>
</g>
</svg>
