<?xml version="1.0" encoding="utf-8"?>
<!-- Generator: Adobe Illustrator 19.2.1, SVG Export Plug-In . SVG Version: 6.00 Build 0)  -->
<svg version="1.1"
	 id="svg6361" inkscape:output_extension="org.inkscape.output.svg.inkscape" inkscape:version="0.46" sodipodi:docbase="/home/tigert/cvs/freedesktop.org/tango-icon-theme/scalable/apps" sodipodi:docname="help-browser.svg" sodipodi:version="0.32" xmlns:cc="http://creativecommons.org/ns#" xmlns:dc="http://purl.org/dc/elements/1.1/" xmlns:inkscape="http://www.inkscape.org/namespaces/inkscape" xmlns:rdf="http://www.w3.org/1999/02/22-rdf-syntax-ns#" xmlns:sodipodi="http://sodipodi.sourceforge.net/DTD/sodipodi-0.dtd" xmlns:svg="http://www.w3.org/2000/svg"
	 xmlns="http://www.w3.org/2000/svg" xmlns:xlink="http://www.w3.org/1999/xlink" x="0px" y="0px" viewBox="0 0 48 48"
	 style="enable-background:new 0 0 48 48;" xml:space="preserve">
<style type="text/css">
	.st0{fill:#A6D0F0;}
	.st1{fill:#2B5082;}
	.st2{fill:#FFFFFF;}
</style>
<defs>
	
	
		<inkscape:perspective  id="perspective23" inkscape:persp3d-origin="24 : 16 : 1" inkscape:vp_x="0 : 24 : 1" inkscape:vp_y="0 : 1000 : 0" inkscape:vp_z="48 : 24 : 1" sodipodi:type="inkscape:persp3d">
		</inkscape:perspective>
</defs>
<sodipodi:namedview  bordercolor="#666666" borderopacity="0.15294118" fill="#deb887" id="base" inkscape:current-layer="layer1" inkscape:cx="25.160747" inkscape:cy="22.523569" inkscape:document-units="px" inkscape:grid-bbox="true" inkscape:guide-bbox="true" inkscape:pageopacity="0.0" inkscape:pageshadow="2" inkscape:showpageshadow="false" inkscape:window-height="818" inkscape:window-width="1014" inkscape:window-x="0" inkscape:window-y="30" inkscape:zoom="1" pagecolor="#ffffff" showgrid="true" showguides="true" stroke="#204a87">
	
		<inkscape:grid  color="#7171cd" empcolor="#7b7bc3" empopacity="0.5372549" empspacing="10" enabled="true" id="GridFromPre046Settings" opacity="0.12156863" originx="0px" originy="0px" spacingx="1px" spacingy="1px" type="xygrid" visible="true">
		</inkscape:grid>
</sodipodi:namedview>
<g>
	<g>
		<path class="st0" d="M24,7.5c-9.3,0-16.8,7.6-16.8,16.8c0,9.3,7.6,16.8,16.8,16.8c9.3,0,16.8-7.6,16.8-16.8
			C40.9,15.1,33.3,7.5,24,7.5z"/>
		<path class="st1" d="M24,5.3c-10.5,0-19,8.5-19,19c0,10.5,8.5,19,19,19c10.5,0,19-8.5,19-19C43.1,13.8,34.5,5.3,24,5.3z M24,41.2
			c-9.3,0-16.8-7.6-16.8-16.8c0-9.3,7.6-16.8,16.8-16.8c9.3,0,16.8,7.6,16.8,16.8C40.9,33.6,33.3,41.2,24,41.2z"/>
	</g>
	<g>
		<path class="st2" d="M28,9.2c-0.1,0.4-0.2,0.8-0.4,1.2c3.3,1,6.1,3,8.3,5.6c0.2-0.4,0.5-0.7,0.9-1C34.5,12.3,31.5,10.3,28,9.2z"/>
	</g>
	<g>
		<path class="st1" d="M18.1,15.6c0.4-0.3,0.7-0.6,1.2-0.9c0.4-0.3,0.9-0.5,1.4-0.7s1-0.4,1.6-0.5c0.6-0.1,1.2-0.2,1.9-0.2
			c0.9,0,1.7,0.1,2.5,0.4c0.7,0.3,1.4,0.6,1.9,1.1c0.5,0.5,0.9,1,1.2,1.7c0.3,0.7,0.4,1.4,0.4,2.2c0,0.8-0.1,1.5-0.3,2.1
			c-0.2,0.6-0.5,1.1-0.9,1.5c-0.3,0.4-0.7,0.8-1.1,1.1c-0.4,0.3-0.8,0.6-1.2,0.9c-0.4,0.3-0.7,0.5-0.9,0.8c-0.3,0.3-0.4,0.6-0.5,0.9
			l-0.4,2.3h-2.6L22,25.7c0-0.1,0-0.1,0-0.1s0-0.1,0-0.1c0-0.5,0.1-0.9,0.3-1.2c0.2-0.3,0.5-0.7,0.9-1c0.3-0.3,0.7-0.6,1.1-0.9
			c0.4-0.3,0.8-0.6,1.1-0.9c0.3-0.3,0.6-0.7,0.9-1.1c0.2-0.4,0.3-0.9,0.3-1.5c0-0.4-0.1-0.7-0.2-1c-0.1-0.3-0.3-0.6-0.6-0.8
			c-0.3-0.2-0.6-0.4-0.9-0.5c-0.3-0.1-0.7-0.2-1.1-0.2c-0.6,0-1.1,0.1-1.5,0.2c-0.4,0.1-0.8,0.3-1,0.4c-0.3,0.2-0.5,0.3-0.7,0.4
			s-0.4,0.2-0.5,0.2c-0.4,0-0.6-0.2-0.8-0.5L18.1,15.6z M21.1,34.1c0-0.3,0.1-0.6,0.2-0.9c0.1-0.3,0.3-0.5,0.5-0.8
			c0.2-0.2,0.5-0.4,0.8-0.5c0.3-0.1,0.6-0.2,0.9-0.2c0.3,0,0.6,0.1,0.9,0.2s0.5,0.3,0.8,0.5c0.2,0.2,0.4,0.5,0.5,0.8
			c0.1,0.3,0.2,0.6,0.2,0.9c0,0.3-0.1,0.6-0.2,0.9s-0.3,0.5-0.5,0.7c-0.2,0.2-0.5,0.4-0.8,0.5c-0.3,0.1-0.6,0.2-0.9,0.2
			c-0.3,0-0.6-0.1-0.9-0.2c-0.3-0.1-0.5-0.3-0.8-0.5c-0.2-0.2-0.4-0.5-0.5-0.7C21.1,34.7,21.1,34.4,21.1,34.1z"/>
	</g>
</g>
</svg>
