<?xml version="1.0" encoding="utf-8"?>
<!-- Generator: Adobe Illustrator 19.2.1, SVG Export Plug-In . SVG Version: 6.00 Build 0)  -->
<svg version="1.1"
	 id="svg2108" inkscape:output_extension="org.inkscape.output.svg.inkscape" inkscape:version="0.46" sodipodi:docbase="/home/jimmac/src/cvs/tango-icon-theme/scalable/apps" sodipodi:docname="system-users.svg" sodipodi:version="0.32" xmlns:cc="http://creativecommons.org/ns#" xmlns:dc="http://purl.org/dc/elements/1.1/" xmlns:inkscape="http://www.inkscape.org/namespaces/inkscape" xmlns:rdf="http://www.w3.org/1999/02/22-rdf-syntax-ns#" xmlns:sodipodi="http://sodipodi.sourceforge.net/DTD/sodipodi-0.dtd" xmlns:svg="http://www.w3.org/2000/svg"
	 xmlns="http://www.w3.org/2000/svg" xmlns:xlink="http://www.w3.org/1999/xlink" x="0px" y="0px" viewBox="0 0 48 48"
	 style="enable-background:new 0 0 48 48;" xml:space="preserve">
<style type="text/css">
	.st0{fill:#A6D0F0;}
	.st1{fill:#2B5082;}
</style>
<defs>
	
	
		<inkscape:perspective  id="perspective72" inkscape:persp3d-origin="24 : 16 : 1" inkscape:vp_x="0 : 24 : 1" inkscape:vp_y="0 : 1000 : 0" inkscape:vp_z="48 : 24 : 1" sodipodi:type="inkscape:persp3d">
		</inkscape:perspective>
</defs>
<sodipodi:namedview  bordercolor="#666666" borderopacity="1.0" fill="#9db029" id="base" inkscape:current-layer="layer2" inkscape:cx="-130.79856" inkscape:cy="13.86274" inkscape:document-units="px" inkscape:grid-bbox="true" inkscape:pageopacity="0.0" inkscape:pageshadow="2" inkscape:showpageshadow="false" inkscape:window-height="815" inkscape:window-width="872" inkscape:window-x="265" inkscape:window-y="33" inkscape:zoom="1" pagecolor="#ffffff" showgrid="false" stroke="#727e0a">
	</sodipodi:namedview>
<g>
	<g>
		<path class="st0" d="M29.1,23.3c-3.7,0-11,2-11,6v11h22v-11C40.1,25.4,32.8,23.3,29.1,23.3z"/>
	</g>
	<g>
		<path class="st1" d="M29.2,21.3c-5.5,0-10.1-4.5-10.1-10s4.5-10,10.1-10s10.1,4.5,10.1,10S34.7,21.3,29.2,21.3z M29.2,3.3
			c-4.4,0-8.1,3.6-8.1,8s3.6,8,8.1,8c4.4,0,8.1-3.6,8.1-8S33.6,3.3,29.2,3.3z"/>
	</g>
	<g>
		<path class="st1" d="M41.1,40.3h-2v-11c0-3.1-6.6-5-10-5s-10,1.9-10,5v11h-2v-11c0-4.7,7.7-7,12-7s12,2.3,12,7V40.3z"/>
	</g>
	<g>
		<rect x="23.1" y="30.3" class="st0" width="12" height="15"/>
	</g>
	<g>
		<line class="st0" x1="35.1" y1="45.3" x2="35.1" y2="30.3"/>
		<rect x="34.1" y="30.3" class="st1" width="2" height="15"/>
	</g>
	<g>
		<line class="st0" x1="23.1" y1="30.3" x2="23.1" y2="45.3"/>
		<rect x="22.1" y="30.3" class="st1" width="2" height="15"/>
	</g>
	<g>
		<path class="st1" d="M16.1,17.3c-4.4,0-8-3.6-8-7.9s3.6-7.9,8-7.9c1.7,0,3.3,0.5,4.6,1.5l-1.2,1.6c-1-0.7-2.2-1.1-3.5-1.1
			c-3.3,0-6,2.7-6,5.9c0,3.3,2.7,5.9,6,5.9c0.6,0,1.2-0.1,1.8-0.3l0.6,1.9C17.7,17.2,16.9,17.3,16.1,17.3z"/>
	</g>
	<g>
		<path class="st1" d="M10.1,34.3h-2v-11c0-3.5,5.3-5,8-5c1.7,0,4.8,0.6,6.7,2.3l-1.3,1.5c-1.2-1.1-3.7-1.8-5.3-1.8
			c-2.4,0-6,1.3-6,3V34.3z"/>
	</g>
</g>
</svg>
