<?xml version="1.0" encoding="utf-8"?>
<!-- Generator: Adobe Illustrator 19.2.1, SVG Export Plug-In . SVG Version: 6.00 Build 0)  -->
<svg version="1.1"
	 id="svg2327" inkscape:output_extension="org.inkscape.output.svg.inkscape" inkscape:version="0.46" sodipodi:docbase="/home/dobey/network-status icons/scalable/status" sodipodi:docname="network-offline.svg" sodipodi:version="0.32" xmlns:cc="http://creativecommons.org/ns#" xmlns:dc="http://purl.org/dc/elements/1.1/" xmlns:inkscape="http://www.inkscape.org/namespaces/inkscape" xmlns:rdf="http://www.w3.org/1999/02/22-rdf-syntax-ns#" xmlns:sodipodi="http://sodipodi.sourceforge.net/DTD/sodipodi-0.dtd" xmlns:svg="http://www.w3.org/2000/svg"
	 xmlns="http://www.w3.org/2000/svg" xmlns:xlink="http://www.w3.org/1999/xlink" x="0px" y="0px" viewBox="0 0 48 48"
	 style="enable-background:new 0 0 48 48;" xml:space="preserve">
<style type="text/css">
	.st0{fill:#BBBFC3;}
</style>
<defs>
	
	
		<inkscape:perspective  id="perspective191" inkscape:persp3d-origin="24 : 16 : 1" inkscape:vp_x="0 : 24 : 1" inkscape:vp_y="0 : 1000 : 0" inkscape:vp_z="48 : 24 : 1" sodipodi:type="inkscape:persp3d">
		</inkscape:perspective>
</defs>
<sodipodi:namedview  bordercolor="#666666" borderopacity="0.12156863" id="base" inkscape:current-layer="layer1" inkscape:cx="39.617218" inkscape:cy="19.247154" inkscape:document-units="px" inkscape:grid-bbox="true" inkscape:pageopacity="0.0" inkscape:pageshadow="2" inkscape:showpageshadow="false" inkscape:window-height="818" inkscape:window-width="822" inkscape:window-x="388" inkscape:window-y="30" inkscape:zoom="11.313708" pagecolor="#ffffff" showgrid="true">
	</sodipodi:namedview>
<g>
	<path class="st0" d="M42,20.2c-1.6,0-3,1-3.6,2.5L38.3,23h-4.5l0-0.4c-0.2-1.7-0.9-3.2-1.9-4.6l-0.2-0.3l3.2-3.2l0.3,0.1
		c1.5,0.7,3.2,0.4,4.4-0.7c0.7-0.7,1.1-1.7,1.1-2.7c0-1-0.4-2-1.1-2.7c-0.7-0.7-1.7-1.1-2.7-1.1c-1,0-2,0.4-2.7,1.1
		c-1.1,1.1-1.4,2.9-0.7,4.3l0.1,0.3l-3.2,3.2l-0.3-0.2c-1.3-1-2.9-1.7-4.5-1.9l-0.4,0V9.7l0.3-0.1c1.5-0.5,2.5-2,2.5-3.6
		c0-2.1-1.7-3.8-3.8-3.8c-2.1,0-3.8,1.7-3.8,3.8c0,1.6,1,3.1,2.6,3.6l0.3,0.1v4.5l-0.4,0c-1.7,0.2-3.3,0.9-4.6,1.9l-0.3,0.2
		l-3.2-3.2l0.1-0.3c0.7-1.4,0.4-3.2-0.7-4.3c-0.7-0.7-1.7-1.1-2.7-1.1c-1,0-2,0.4-2.7,1.1s-1.1,1.7-1.1,2.7s0.4,2,1.1,2.7
		c1.1,1.1,2.9,1.4,4.4,0.7l0.3-0.1l3.2,3.2l-0.2,0.3c-1,1.3-1.7,2.9-1.9,4.6l0,0.4H9.7l-0.1-0.3c-0.5-1.5-2-2.5-3.6-2.5
		c-2.1,0-3.8,1.7-3.8,3.8c0,2.1,1.7,3.8,3.8,3.8c1.6,0,3.1-1,3.6-2.6L9.7,25h4.5l0,0.4c0.2,1.7,0.9,3.3,1.9,4.6l0.2,0.3l-3.2,3.2
		l-0.3-0.1c-1.4-0.7-3.2-0.4-4.3,0.7c-0.7,0.7-1.1,1.7-1.1,2.7c0,1,0.4,2,1.1,2.7s1.7,1.1,2.7,1.1c1,0,2-0.4,2.7-1.1
		c1.1-1.1,1.4-2.9,0.7-4.4l-0.1-0.3l3.2-3.2l0.3,0.2c1.3,1,2.9,1.7,4.6,1.9l0.4,0v4.5l-0.3,0.1c-1.5,0.5-2.6,2-2.6,3.6
		c0,2.1,1.7,3.8,3.8,3.8s3.8-1.7,3.8-3.8c0-1.6-1-3-2.5-3.6L25,38.3v-4.5l0.4,0c1.7-0.2,3.2-0.9,4.6-1.9l0.3-0.2l3.2,3.2L33.3,35
		c-0.7,1.5-0.4,3.2,0.7,4.4c0.7,0.7,1.7,1.1,2.7,1.1c1,0,2-0.4,2.7-1.1c0.7-0.7,1.1-1.7,1.1-2.7c0-1-0.4-2-1.1-2.7
		c-1.1-1.1-2.9-1.4-4.3-0.7l-0.3,0.1l-3.2-3.2l0.2-0.3c1-1.3,1.7-2.9,1.9-4.6l0-0.4h4.5l0.1,0.3c0.5,1.5,2,2.6,3.6,2.6
		c2.1,0,3.8-1.7,3.8-3.8C45.8,21.9,44.1,20.2,42,20.2z M35.3,9.9c0.8-0.8,2-0.8,2.7,0c0.8,0.8,0.8,2,0,2.7c-0.4,0.4-0.9,0.6-1.4,0.6
		c-0.5,0-1-0.2-1.4-0.6C34.6,11.9,34.6,10.7,35.3,9.9z M12.7,12.7c-0.4,0.4-0.9,0.6-1.4,0.6c-0.5,0-1-0.2-1.4-0.6
		c-0.4-0.4-0.6-0.9-0.6-1.4c0-0.5,0.2-1,0.6-1.4c0.7-0.7,2-0.7,2.7,0c0.4,0.4,0.6,0.9,0.6,1.4C13.2,11.8,13,12.3,12.7,12.7z M6,25.9
		c-1.1,0-1.9-0.9-1.9-1.9S5,22.1,6,22.1S8,22.9,8,24S7.1,25.9,6,25.9z M12.7,38.1C12.7,38.1,12.7,38.1,12.7,38.1
		c-0.4,0.4-0.9,0.6-1.4,0.6s-1-0.2-1.4-0.6c-0.4-0.4-0.6-0.9-0.6-1.4c0-0.5,0.2-1,0.6-1.4c0.7-0.7,2-0.7,2.7,0
		c0.4,0.4,0.6,0.9,0.6,1.4C13.2,37.2,13,37.7,12.7,38.1z M35.3,35.3c0.7-0.7,2-0.7,2.7,0c0.4,0.4,0.6,0.9,0.6,1.4
		c0,0.5-0.2,1-0.6,1.4c-0.4,0.4-0.9,0.6-1.4,0.6s-1-0.2-1.4-0.6C34.6,37.3,34.6,36.1,35.3,35.3z M22.1,6c0-1.1,0.9-1.9,1.9-1.9
		S25.9,5,25.9,6S25.1,8,24,8S22.1,7.1,22.1,6z M25.9,42c0,1.1-0.9,1.9-1.9,1.9S22.1,43,22.1,42c0-1.1,0.9-1.9,1.9-1.9
		S25.9,40.9,25.9,42z M24,31.9c-4.4,0-7.9-3.5-7.9-7.9c0-2,0.8-3.9,2.1-5.4c1.5-1.6,3.6-2.5,5.8-2.5c4.4,0,7.9,3.5,7.9,7.9
		S28.4,31.9,24,31.9z M42,25.9c-1.1,0-1.9-0.9-1.9-1.9s0.9-1.9,1.9-1.9c1.1,0,1.9,0.9,1.9,1.9S43,25.9,42,25.9z"/>
</g>
</svg>
