<?xml version="1.0" encoding="utf-8"?>
<!-- Generator: Adobe Illustrator 19.2.1, SVG Export Plug-In . SVG Version: 6.00 Build 0)  -->
<svg version="1.1"
	 id="svg11300" inkscape:export-filename="/home/jimmac/Desktop/wi-fi.png" inkscape:export-xdpi="90.000000" inkscape:export-ydpi="90.000000" inkscape:output_extension="org.inkscape.output.svg.inkscape" inkscape:version="0.46" sodipodi:docbase="/home/jimmac/src/cvs/tango-icon-theme/scalable/actions" sodipodi:docname="view-fullscreen.svg" sodipodi:version="0.32" xmlns:cc="http://creativecommons.org/ns#" xmlns:dc="http://purl.org/dc/elements/1.1/" xmlns:inkscape="http://www.inkscape.org/namespaces/inkscape" xmlns:rdf="http://www.w3.org/1999/02/22-rdf-syntax-ns#" xmlns:sodipodi="http://sodipodi.sourceforge.net/DTD/sodipodi-0.dtd" xmlns:svg="http://www.w3.org/2000/svg"
	 xmlns="http://www.w3.org/2000/svg" xmlns:xlink="http://www.w3.org/1999/xlink" x="0px" y="0px" viewBox="0 0 48 48"
	 style="enable-background:new 0 0 48 48;" xml:space="preserve">
<style type="text/css">
	.st0{fill:#A6D0F0;}
	.st1{fill:#2B5082;}
</style>
<defs>
	
	
		<inkscape:perspective  id="perspective73" inkscape:persp3d-origin="24 : 16 : 1" inkscape:vp_x="0 : 24 : 1" inkscape:vp_y="0 : 1000 : 0" inkscape:vp_z="48 : 24 : 1" sodipodi:type="inkscape:persp3d">
		</inkscape:perspective>
</defs>
<sodipodi:namedview  bordercolor="#666666" borderopacity="0.25490196" fill="#204a87" id="base" inkscape:current-layer="layer1" inkscape:cx="6.257105" inkscape:cy="35.890897" inkscape:document-units="px" inkscape:grid-bbox="true" inkscape:pageopacity="0.0" inkscape:pageshadow="2" inkscape:showpageshadow="false" inkscape:window-height="818" inkscape:window-width="970" inkscape:window-x="0" inkscape:window-y="30" inkscape:zoom="8" pagecolor="#ffffff" showgrid="false" stroke="#ef2929">
	</sodipodi:namedview>
<g>
	<path class="st0" d="M14.6,11.9c1.8,0,3.6,0,5.4,0c1.9,0,1.9-2.9,0-2.9c-3,0-6,0-9,0c-0.8,0-1.5,0.7-1.5,1.5c0,3,0,6,0,9
		c0,1.9,2.9,1.9,2.9,0c0-1.8,0-3.6,0-5.4c2.1,2.1,4.2,4.2,6.3,6.3c1.3,1.3,3.4-0.7,2.1-2.1C18.8,16.1,16.7,14,14.6,11.9L14.6,11.9z
		 M14.6,11.9"/>
	<path class="st0" d="M38.3,27.3c0-1.9-2.9-1.9-2.9,0c0,1.8,0,3.6,0,5.4c-2.1-2.1-4.2-4.2-6.3-6.3c-1.3-1.3-3.4,0.7-2.1,2.1
		c2.1,2.1,4.2,4.2,6.3,6.3h-5.4c-1.9,0-1.9,2.9,0,2.9h9c0.8,0,1.5-0.7,1.5-1.5C38.3,33.3,38.3,30.3,38.3,27.3L38.3,27.3z M38.3,27.3
		"/>
	<path class="st1" d="M44.3,6.8c-1-2.9-3.3-3.2-5.9-3.2H9c-2.7,0-4.8,1-5.3,3.8c0,0.1-0.1,0.3-0.1,0.4c0,0.1,0,0.2,0,0.4v16
		c0,5.4-0.5,11.2,0.1,16.6c0.4,3.1,3.2,3.6,5.7,3.6h29.7c2.6,0,5.4-1.1,5.4-4.3V12.3C44.5,10.7,44.9,8.4,44.3,6.8L44.3,6.8z
		 M41.5,12.6v27.5c0,2.1-5.1,1.3-6.1,1.3H7.9c-2.1,0-1.3-5.1-1.3-6.1V7.9c0.2-2.1,4.9-1.3,6.1-1.3h27.5
		C42.3,6.5,41.5,11.7,41.5,12.6L41.5,12.6z M41.5,12.6"/>
</g>
</svg>
