<?xml version="1.0" encoding="utf-8"?>
<!-- Generator: Adobe Illustrator 19.2.1, SVG Export Plug-In . SVG Version: 6.00 Build 0)  -->
<svg version="1.1"
	 id="svg4198" inkscape:output_extension="org.inkscape.output.svg.inkscape" inkscape:version="0.48.4 r9939" sodipodi:docname="tryton-tree.svg" sodipodi:version="0.32" xmlns:cc="http://creativecommons.org/ns#" xmlns:dc="http://purl.org/dc/elements/1.1/" xmlns:inkscape="http://www.inkscape.org/namespaces/inkscape" xmlns:rdf="http://www.w3.org/1999/02/22-rdf-syntax-ns#" xmlns:sodipodi="http://sodipodi.sourceforge.net/DTD/sodipodi-0.dtd" xmlns:svg="http://www.w3.org/2000/svg"
	 xmlns="http://www.w3.org/2000/svg" xmlns:xlink="http://www.w3.org/1999/xlink" x="0px" y="0px" viewBox="0 0 48 48"
	 style="enable-background:new 0 0 48 48;" xml:space="preserve">
<style type="text/css">
	.st0{fill:#FFFFFF;}
	.st1{fill:#A6D0F0;}
	.st2{fill:#2B5082;}
</style>
<g>
	<defs>
		
		
			<inkscape:perspective  id="perspective49" inkscape:persp3d-origin="24 : 16 : 1" inkscape:vp_x="0 : 24 : 1" inkscape:vp_y="0 : 1000 : 0" inkscape:vp_z="48 : 24 : 1" sodipodi:type="inkscape:persp3d">
			</inkscape:perspective>
	</defs>
	
		<sodipodi:namedview  bordercolor="#bebebe" borderopacity="1.0000000" id="base" inkscape:current-layer="layer1" inkscape:cx="22.261972" inkscape:cy="12.80998" inkscape:document-units="px" inkscape:grid-bbox="true" inkscape:pageopacity="0.0" inkscape:pageshadow="2" inkscape:showpageshadow="false" inkscape:window-height="751" inkscape:window-maximized="0" inkscape:window-width="1364" inkscape:window-x="0" inkscape:window-y="15" inkscape:zoom="6.51" pagecolor="#ffffff" showgrid="true">
		</sodipodi:namedview>
	<g>
		<g>
			<g>
				<path class="st0" d="M38.3,43.8H10.4c-1,0-1.9-0.8-1.9-1.9V6.6c0-1,0.8-1.9,1.9-1.9h22.3l7.4,7.4v29.7
					C40.1,42.9,39.3,43.8,38.3,43.8z"/>
			</g>
			<g>
				<polygon class="st1" points="31.8,4.7 31.8,13.1 40.1,13.1 				"/>
			</g>
			<g>
				<path class="st2" d="M38.3,44.7H10.4c-1.5,0-2.8-1.3-2.8-2.8V6.6c0-1.5,1.3-2.8,2.8-2.8h22.7l8,8v30.1
					C41.1,43.4,39.8,44.7,38.3,44.7z M10.4,5.7c-0.5,0-0.9,0.4-0.9,0.9v35.3c0,0.5,0.4,0.9,0.9,0.9h27.9c0.5,0,0.9-0.4,0.9-0.9V12.6
					l-6.9-6.9H10.4z"/>
			</g>
			<g>
				<polygon class="st2" points="37.3,14 30.8,14 30.8,7.5 32.7,7.5 32.7,12.2 37.3,12.2 				"/>
			</g>
		</g>
		<g>
			<rect x="14.6" y="18.7" class="st2" width="19.9" height="2.9"/>
		</g>
		<g>
			<rect x="18.7" y="24.5" class="st2" width="15.9" height="2.9"/>
		</g>
		<g>
			<rect x="24.3" y="30.2" class="st2" width="10.2" height="2.9"/>
		</g>
		<g>
			<rect x="24.3" y="36" class="st2" width="10.2" height="2.9"/>
		</g>
	</g>
</g>
</svg>
