<?xml version="1.0" encoding="utf-8"?>
<!-- Generator: Adobe Illustrator 19.2.1, SVG Export Plug-In . SVG Version: 6.00 Build 0)  -->
<svg version="1.1"
	 id="svg11300" inkscape:export-filename="/home/jimmac/Desktop/wi-fi.png" inkscape:export-xdpi="90.000000" inkscape:export-ydpi="90.000000" inkscape:output_extension="org.inkscape.output.svg.inkscape" inkscape:version="0.46" sodipodi:docbase="/home/jimmac/src/cvs/tango-icon-theme/scalable/mimetypes" sodipodi:docname="x-office-presentation.svg" sodipodi:version="0.32" xmlns:cc="http://creativecommons.org/ns#" xmlns:dc="http://purl.org/dc/elements/1.1/" xmlns:inkscape="http://www.inkscape.org/namespaces/inkscape" xmlns:rdf="http://www.w3.org/1999/02/22-rdf-syntax-ns#" xmlns:sodipodi="http://sodipodi.sourceforge.net/DTD/sodipodi-0.dtd" xmlns:svg="http://www.w3.org/2000/svg"
	 xmlns="http://www.w3.org/2000/svg" xmlns:xlink="http://www.w3.org/1999/xlink" x="0px" y="0px" viewBox="0 0 48 48"
	 style="enable-background:new 0 0 48 48;" xml:space="preserve">
<style type="text/css">
	.st0{fill:#FFFFFF;}
	.st1{fill:#A6D0F0;}
	.st2{fill:#2B5082;}
</style>
<defs>
	
	
		<inkscape:perspective  id="perspective80" inkscape:persp3d-origin="24 : 16 : 1" inkscape:vp_x="0 : 24 : 1" inkscape:vp_y="0 : 1000 : 0" inkscape:vp_z="48 : 24 : 1" sodipodi:type="inkscape:persp3d">
		</inkscape:perspective>
</defs>
<sodipodi:namedview  bordercolor="#666666" borderopacity="0.25490196" fill="#eeeeec" id="base" inkscape:current-layer="layer1" inkscape:cx="95.591611" inkscape:cy="-8.1950324" inkscape:document-units="px" inkscape:grid-bbox="true" inkscape:pageopacity="0.0" inkscape:pageshadow="2" inkscape:showpageshadow="false" inkscape:window-height="818" inkscape:window-width="972" inkscape:window-x="462" inkscape:window-y="30" inkscape:zoom="1" pagecolor="#ffffff" showgrid="false" stroke="#ef2929">
	</sodipodi:namedview>
<g>
	<path class="st0" d="M9.6,31.2c0,0.1,0.1,0.2,0.2,0.2h29.5c0.1,0,0.2-0.1,0.2-0.2V10.7H9.6V31.2z M35.4,13.1
		c0.2-0.2,0.5-0.4,0.9-0.4c0.3,0,0.6,0.1,0.9,0.4c0.2,0.2,0.4,0.5,0.4,0.9c0,0.3-0.1,0.6-0.4,0.9c-0.2,0.2-0.5,0.4-0.9,0.4
		c-0.3,0-0.6-0.1-0.9-0.4c-0.2-0.2-0.4-0.5-0.4-0.9C35,13.6,35.2,13.3,35.4,13.1z M12,27.5l8.4-7.4c0.5-0.4,1.2-0.4,1.6,0l3.2,2.9
		l7.4-7.2c0.5-0.5,1.3-0.5,1.7,0c0.5,0.5,0.5,1.3,0,1.7l-8.3,8c-0.5,0.5-1.2,0.5-1.7,0l-3.2-2.9l-7.6,6.7c-0.2,0.2-0.5,0.3-0.8,0.3
		c-0.3,0-0.7-0.1-0.9-0.4C11.4,28.8,11.4,28,12,27.5z"/>
	<path class="st1" d="M44.1,5.6H5c-0.1,0-0.2,0.1-0.2,0.2v2.4c0,0.1,0.1,0.2,0.2,0.2h39.1c0.1,0,0.2-0.1,0.2-0.2V5.7
		C44.2,5.6,44.2,5.6,44.1,5.6z"/>
	<path class="st2" d="M44.1,3.1H5c-1.4,0-2.6,1.2-2.6,2.6v2.4c0,1.4,1.2,2.6,2.6,2.6h2.2v20.5c0,1.4,1.2,2.6,2.6,2.6h13.5v5.8
		l-12.1,3.2c-0.7,0.2-1,0.9-0.9,1.5c0.1,0.6,0.6,0.9,1.2,0.9c0.1,0,0.2,0,0.3,0l12.6-3.4c0,0,0,0,0,0c0,0,0,0,0,0l12.6,3.4
		c0.1,0,0.2,0,0.3,0c0.5,0,1-0.4,1.2-0.9c0.2-0.7-0.2-1.3-0.9-1.5l-12.1-3.2v-5.8h13.5c1.4,0,2.6-1.2,2.6-2.6V10.7h2.2
		c1.4,0,2.6-1.2,2.6-2.6V5.7C46.7,4.3,45.5,3.1,44.1,3.1z M39.4,31.2c0,0.1-0.1,0.2-0.2,0.2H9.8c-0.1,0-0.2-0.1-0.2-0.2V10.7h29.8
		V31.2z M44.2,8.1c0,0.1-0.1,0.2-0.2,0.2H5c-0.1,0-0.2-0.1-0.2-0.2V5.7c0-0.1,0.1-0.2,0.2-0.2h39.1c0.1,0,0.2,0.1,0.2,0.2V8.1z"/>
	<path class="st2" d="M12.8,29.7c0.3,0,0.6-0.1,0.8-0.3l7.6-6.7l3.2,2.9c0.5,0.4,1.2,0.4,1.7,0l8.3-8c0.5-0.5,0.5-1.3,0-1.7
		c-0.5-0.5-1.3-0.5-1.7,0L25.2,23L22,20.1c-0.5-0.4-1.2-0.4-1.6,0L12,27.5c-0.5,0.5-0.6,1.2-0.1,1.7C12.1,29.5,12.4,29.7,12.8,29.7z
		"/>
	<path class="st2" d="M36.3,15.2c0.3,0,0.6-0.1,0.9-0.4c0.2-0.2,0.4-0.5,0.4-0.9c0-0.3-0.1-0.6-0.4-0.9c-0.2-0.2-0.5-0.4-0.9-0.4
		c-0.3,0-0.6,0.1-0.9,0.4c-0.2,0.2-0.4,0.5-0.4,0.9c0,0.3,0.1,0.6,0.4,0.9C35.6,15,35.9,15.2,36.3,15.2z"/>
</g>
</svg>
