<?xml version="1.0" encoding="utf-8"?>
<!-- Generator: Adobe Illustrator 19.2.1, SVG Export Plug-In . SVG Version: 6.00 Build 0)  -->
<svg version="1.1"
	 id="svg0" inkscape:version="0.48.2 r9819" sodipodi:docname="tryton-star.svg" xmlns:cc="http://creativecommons.org/ns#" xmlns:dc="http://purl.org/dc/elements/1.1/" xmlns:inkscape="http://www.inkscape.org/namespaces/inkscape" xmlns:rdf="http://www.w3.org/1999/02/22-rdf-syntax-ns#" xmlns:sodipodi="http://sodipodi.sourceforge.net/DTD/sodipodi-0.dtd" xmlns:svg="http://www.w3.org/2000/svg"
	 xmlns="http://www.w3.org/2000/svg" xmlns:xlink="http://www.w3.org/1999/xlink" x="0px" y="0px" viewBox="0 0 48 48"
	 style="enable-background:new 0 0 48 48;" xml:space="preserve">
<style type="text/css">
	.st0{fill:#A6D0F0;}
	.st1{fill:#2B5082;}
</style>
<sodipodi:namedview  bordercolor="#666666" borderopacity="1" gridtolerance="10" guidetolerance="10" id="namedview3150" inkscape:current-layer="svg0" inkscape:cx="-11.79661" inkscape:cy="24" inkscape:pageopacity="0" inkscape:pageshadow="2" inkscape:window-height="725" inkscape:window-maximized="0" inkscape:window-width="1165" inkscape:window-x="199" inkscape:window-y="15" inkscape:zoom="4.9166667" objecttolerance="10" pagecolor="#ffffff" showgrid="false">
	</sodipodi:namedview>
<g>
	<polygon class="st0" points="24,5.6 29.6,16.9 42,18.7 33,27.4 35.1,39.8 24,33.9 13,39.8 15.1,27.4 6.1,18.7 18.5,16.9 	"/>
	<path class="st1" d="M37.3,42.8l-13.3-7l-13.3,7L13.3,28L2.5,17.5l14.9-2.2L24,1.9l6.6,13.5l14.9,2.2L34.8,28L37.3,42.8z M24,32
		l8.9,4.7l-1.7-9.9l7.2-7l-9.9-1.4l-4.4-9l-4.4,9l-9.9,1.4l7.2,7l-1.7,9.9L24,32z"/>
</g>
</svg>
