<?xml version="1.0" encoding="utf-8"?>
<!-- Generator: Adobe Illustrator 19.2.1, SVG Export Plug-In . SVG Version: 6.00 Build 0)  -->
<svg version="1.1"
	 id="svg1288" inkscape:output_extension="org.inkscape.output.svg.inkscape" inkscape:version="0.46" sodipodi:docbase="/home/jimmac/src/cvs/tango-icon-theme/scalable/apps" sodipodi:docname="system-file-manager.svg" sodipodi:version="0.32" xmlns:cc="http://creativecommons.org/ns#" xmlns:dc="http://purl.org/dc/elements/1.1/" xmlns:inkscape="http://www.inkscape.org/namespaces/inkscape" xmlns:rdf="http://www.w3.org/1999/02/22-rdf-syntax-ns#" xmlns:sodipodi="http://sodipodi.sourceforge.net/DTD/sodipodi-0.dtd" xmlns:svg="http://www.w3.org/2000/svg"
	 xmlns="http://www.w3.org/2000/svg" xmlns:xlink="http://www.w3.org/1999/xlink" x="0px" y="0px" viewBox="0 0 48 48"
	 style="enable-background:new 0 0 48 48;" xml:space="preserve">
<style type="text/css">
	.st0{fill:#FFFFFF;}
	.st1{fill:#2B5082;}
	.st2{fill:#A6D0F0;}
</style>
<defs>
	
	
		<inkscape:perspective  id="perspective43" inkscape:persp3d-origin="24 : 16 : 1" inkscape:vp_x="0 : 24 : 1" inkscape:vp_y="0 : 1000 : 0" inkscape:vp_z="48 : 24 : 1" sodipodi:type="inkscape:persp3d">
		</inkscape:perspective>
</defs>
<sodipodi:namedview  bordercolor="#666666" borderopacity="0.14117647" fill="#e9b96e" id="base" inkscape:current-layer="layer1" inkscape:cx="-125.54594" inkscape:cy="-13.769376" inkscape:document-units="px" inkscape:grid-bbox="true" inkscape:pageopacity="0.0" inkscape:pageshadow="2" inkscape:showpageshadow="false" inkscape:window-height="818" inkscape:window-width="878" inkscape:window-x="370" inkscape:window-y="30" inkscape:zoom="1" pagecolor="#ffffff" showborder="true" showgrid="false" stroke="#e9b96e">
	</sodipodi:namedview>
<g>
	<g>
		<polygon class="st0" points="35.4,6.5 31.7,6.5 31.7,5.7 16.3,5.7 16.3,6.5 12.6,6.5 4.5,23.4 4.5,26.3 43.5,26.3 43.5,23.4 		"/>
	</g>
	<g>
		<polygon class="st1" points="5.3,24.1 3.8,24.1 3.8,22.5 12.2,5.7 14.1,5.7 14.1,7.2 13.1,7.2 5.3,22.8 		"/>
	</g>
	<g>
		<polygon class="st1" points="44.2,24.1 42.7,24.1 42.7,22.8 34.9,7.2 33.9,7.2 33.9,5.7 35.8,5.7 44.2,22.5 		"/>
	</g>
	<g>
		<path class="st2" d="M31.7,24.1l-2.2,2.2h-11l-2.2-2.2H4.5v16.2h38.9V24.1H31.7z"/>
		<path class="st1" d="M44.2,41H3.8V23.4h12.8l2.2,2.2h10.4l2.2-2.2h12.8V41z M5.3,39.5h37.5V24.8H32L29.8,27H18.2L16,24.8H5.3V39.5
			z"/>
	</g>
	<g>
		<polygon class="st1" points="39.1,22.6 37.6,22.6 37.6,19.7 10.4,19.7 10.4,22.6 8.9,22.6 8.9,18.2 39.1,18.2 		"/>
	</g>
	<g>
		<polygon class="st1" points="36.9,17.5 35.4,17.5 35.4,15.3 12.6,15.3 12.6,17.5 11.1,17.5 11.1,13.8 36.9,13.8 		"/>
	</g>
	<g>
		<polygon class="st1" points="34.7,13.1 33.2,13.1 33.2,10.9 14.8,10.9 14.8,13.1 13.3,13.1 13.3,9.4 34.7,9.4 		"/>
	</g>
	<g>
		<polygon class="st1" points="32.4,8.7 31,8.7 31,6.5 17,6.5 17,8.7 15.6,8.7 15.6,5 32.4,5 		"/>
	</g>
	<g>
		<path class="st0" d="M26.6,35.1h-5.1c-0.8,0-1.5-0.7-1.5-1.5v-2.9H28v2.9C28,34.5,27.4,35.1,26.6,35.1z"/>
		<path class="st1" d="M26.6,35.9h-5.1c-1.2,0-2.2-1-2.2-2.2V30h9.6v3.7C28.8,34.9,27.8,35.9,26.6,35.9z M20.7,31.4v2.2
			c0,0.4,0.3,0.7,0.7,0.7h5.1c0.4,0,0.7-0.3,0.7-0.7v-2.2H20.7z"/>
	</g>
</g>
</svg>
