<?xml version="1.0" encoding="utf-8"?>
<!-- Generator: Adobe Illustrator 19.2.1, SVG Export Plug-In . SVG Version: 6.00 Build 0)  -->
<svg version="1.1"
	 id="svg11300" inkscape:export-filename="/home/jimmac/Desktop/wi-fi.png" inkscape:export-xdpi="90.000000" inkscape:export-ydpi="90.000000" inkscape:output_extension="org.inkscape.output.svg.inkscape" inkscape:version="0.46" sodipodi:docbase="/home/jimmac/src/cvs/tango-icon-theme/scalable/categories" sodipodi:docname="preferences-system.svg" sodipodi:version="0.32" xmlns:cc="http://creativecommons.org/ns#" xmlns:dc="http://purl.org/dc/elements/1.1/" xmlns:inkscape="http://www.inkscape.org/namespaces/inkscape" xmlns:rdf="http://www.w3.org/1999/02/22-rdf-syntax-ns#" xmlns:sodipodi="http://sodipodi.sourceforge.net/DTD/sodipodi-0.dtd" xmlns:svg="http://www.w3.org/2000/svg"
	 xmlns="http://www.w3.org/2000/svg" xmlns:xlink="http://www.w3.org/1999/xlink" x="0px" y="0px" viewBox="0 0 48 48"
	 style="enable-background:new 0 0 48 48;" xml:space="preserve">
<style type="text/css">
	.st0{fill:#A6D0F0;}
	.st1{fill:#2B5082;}
</style>
<defs>
	
	
		<inkscape:perspective  id="perspective60" inkscape:persp3d-origin="24 : 16 : 1" inkscape:vp_x="0 : 24 : 1" inkscape:vp_y="0 : 1000 : 0" inkscape:vp_z="48 : 24 : 1" sodipodi:type="inkscape:persp3d">
		</inkscape:perspective>
</defs>
<sodipodi:namedview  bordercolor="#666666" borderopacity="0.25490196" fill="#3465a4" id="base" inkscape:current-layer="layer1" inkscape:cx="19.425317" inkscape:cy="26.37487" inkscape:document-units="px" inkscape:grid-bbox="true" inkscape:pageopacity="0.0" inkscape:pageshadow="2" inkscape:showpageshadow="false" inkscape:window-height="818" inkscape:window-width="1034" inkscape:window-x="400" inkscape:window-y="30" inkscape:zoom="4" pagecolor="#ffffff" showgrid="false" stroke="#204a87">
	</sodipodi:namedview>
<g>
	<path class="st0" d="M6.9,37.9c-0.4,0.4-0.7,1-0.7,1.6c0,0.6,0.2,1.1,0.6,1.5h0c0.8,0.8,2.2,0.8,3.1-0.1l1.5-1.5l-2.8-3.1L6.9,37.9
		z"/>
	<polygon class="st0" points="37.3,13.4 39.2,8.5 34.3,10.4 34.1,10.6 37,13.6 	"/>
	<path class="st1" d="M44.5,19.9h-6.3v2.3h4v3.5h-5.1l-0.2,0.9c-0.3,1.6-1,3.1-1.9,4.5l-0.5,0.8l3.7,3.7l-2.5,2.5l-3.8-3.8l-0.8,0.5
		c-1.4,0.8-2.8,1.4-4.4,1.7l-1,0.2v5.5h-3.5v-4.6h-2.3v7h8.1v-5.9l0.1,0c1.1-0.3,2.2-0.7,3.2-1.2l0.1,0l0.1,0.1l4.1,4.1l5.8-5.8
		l-4-4l0-0.1c0.6-1.1,1.1-2.2,1.5-3.4l0-0.1h5.6V19.9z"/>
	<path class="st1" d="M5.8,22.3h6l0.2-0.9c0.3-1.3,0.8-2.6,1.6-3.9l0.5-0.8l-4.2-4.2l2.5-2.5l4.1,4.1l0.8-0.5c1.2-0.8,2.5-1.4,4-1.8
		l0.9-0.2V5.8h3.5v4.4h2.3V3.5h-8.1v6.2l-0.1,0c-1,0.3-2,0.8-2.9,1.3l-0.1,0L16.8,11l-4.4-4.4l-5.8,5.8l4.6,4.6l0,0.1
		c-0.5,0.9-0.9,1.8-1.1,2.8l0,0.1H3.5v8.1h7.3v-2.3h-5V22.3z"/>
	<path class="st1" d="M32.9,24c0-0.7-0.1-1.4-0.3-2.2l0-0.1l0.1-0.1l6.7-6.7l4.5-11.1L33.1,8.1l-7.2,7.2l-0.1,0
		c-0.6-0.1-1.2-0.2-1.8-0.2c-4.9,0-8.9,4-8.9,8.9c0,0.6,0.1,1.2,0.2,1.8l0,0.1l0,0L5,36c-1.9,1.9-2,4.9-0.1,6.8
		c0.9,0.9,2,1.3,3.3,1.3c1.3,0,2.6-0.5,3.5-1.5l10.1-10.1l0.1,0c0.8,0.2,1.5,0.3,2.2,0.3C28.9,32.9,32.9,28.9,32.9,24z M34.2,10.2
		L39.7,8l-2.2,5.5L37,14l-3.3-3.3L34.2,10.2z M17.5,23.3c0.3-3.1,2.8-5.5,5.9-5.8l0.3,0l-6.2,6.2L17.5,23.3z M10,41
		c-0.5,0.5-1.2,0.8-1.9,0.8c-0.6,0-1.2-0.2-1.6-0.6h0c-0.4-0.4-0.7-1.1-0.6-1.7c0-0.7,0.3-1.3,0.8-1.8l1.9-1.9l3.1,3.5L10,41z
		 M13.3,37.7l-3.1-3.5l7.8-7.8l14.1-14.1l3.3,3.3l-0.1,0.1L13.3,37.7z M30.6,23.7l0,0.3c0,3.6-2.9,6.5-6.5,6.5l-0.3,0L30.6,23.7z"/>
</g>
</svg>
