<?xml version="1.0" encoding="utf-8"?>
<!-- Generator: Adobe Illustrator 19.2.1, SVG Export Plug-In . SVG Version: 6.00 Build 0)  -->
<svg version="1.1"
	 id="svg1306" inkscape:export-filename="/home/andreas/projekt/bild/tango/clear2.png" inkscape:export-xdpi="90.000000" inkscape:export-ydpi="90.000000" inkscape:output_extension="org.inkscape.output.svg.inkscape" inkscape:version="0.46" sodipodi:docbase="/home/tigert/cvs/freedesktop.org/tango-icon-theme/scalable/actions" sodipodi:docname="edit-clear.svg" sodipodi:version="0.32" xmlns:cc="http://creativecommons.org/ns#" xmlns:dc="http://purl.org/dc/elements/1.1/" xmlns:inkscape="http://www.inkscape.org/namespaces/inkscape" xmlns:rdf="http://www.w3.org/1999/02/22-rdf-syntax-ns#" xmlns:sodipodi="http://sodipodi.sourceforge.net/DTD/sodipodi-0.dtd" xmlns:svg="http://www.w3.org/2000/svg"
	 xmlns="http://www.w3.org/2000/svg" xmlns:xlink="http://www.w3.org/1999/xlink" x="0px" y="0px" viewBox="0 0 48 48"
	 style="enable-background:new 0 0 48 48;" xml:space="preserve">
<style type="text/css">
	.st0{fill:#A6D0F0;}
	.st1{fill:#2B5082;}
</style>
<defs>
	
	
		<inkscape:perspective  id="perspective62" inkscape:persp3d-origin="24 : 16 : 1" inkscape:vp_x="0 : 24 : 1" inkscape:vp_y="0 : 1000 : 0" inkscape:vp_z="48 : 24 : 1" sodipodi:type="inkscape:persp3d">
		</inkscape:perspective>
</defs>
<sodipodi:namedview  bordercolor="#666666" borderopacity="0.17254902" id="base" inkscape:current-layer="layer1" inkscape:cx="9.561293" inkscape:cy="43.364823" inkscape:document-units="px" inkscape:grid-bbox="true" inkscape:pageopacity="0.0" inkscape:pageshadow="2" inkscape:showpageshadow="false" inkscape:window-height="818" inkscape:window-width="916" inkscape:window-x="518" inkscape:window-y="30" inkscape:zoom="4" pagecolor="#ffffff" showgrid="false">
	</sodipodi:namedview>
<g>
	<path class="st0" d="M19.5,35.5c-0.1,0.2-0.4,0.3-0.6,0.3c-0.1,0-0.3,0-0.4-0.1c-0.3-0.2-0.4-0.7-0.2-1l7.7-11.1L25.6,23L12,36.6
		c1,1,2.1,1.8,3.3,2.6l1.3-1.9c0.2-0.3,0.7-0.4,1-0.2c0.3,0.2,0.4,0.7,0.2,1l-1.3,1.9c1.2,0.7,2.5,1.3,3.8,1.8
		c1.8-4.5,4.3-10.3,7.4-16.7l-0.5-0.5L19.5,35.5z"/>
	<path class="st0" d="M24.1,16.9c-0.2,0-0.4,0.1-0.5,0.2l-0.5,0.5c-0.3,0.3-0.3,0.7,0,1l2.9,2.9c0,0,0,0,0,0c0,0,0,0,0,0l2.9,2.9
		c0.1,0.1,0.3,0.2,0.5,0.2c0.2,0,0.4-0.1,0.5-0.2l0.5-0.5c0.3-0.3,0.3-0.7,0-1l-5.9-5.9C24.5,17,24.3,16.9,24.1,16.9z"/>
	<path class="st1" d="M42.8,6.7L29.5,20l-1.9-1.9L40.9,4.8c0.3-0.3,0.3-0.7,0-1c-0.3-0.3-0.7-0.3-1,0L26.6,17.1l-1-1
		c-0.4-0.4-0.9-0.6-1.5-0.6c-0.6,0-1.1,0.2-1.5,0.6l-0.5,0.5c-0.6,0.6-0.7,1.4-0.5,2.2c-6.6,3.2-12.4,5.8-16.9,7.5
		c-0.3,0.1-0.5,0.5-0.4,0.9c1.3,3.7,3.4,7.2,6.2,9.9c2.8,2.8,6.2,4.9,9.9,6.2c0.1,0,0.1,0,0.2,0c0.3,0,0.5-0.2,0.6-0.4
		c1.7-4.5,4.3-10.4,7.5-16.9c0.2,0.1,0.4,0.1,0.7,0.1c0.6,0,1.1-0.2,1.5-0.6l0.5-0.5c0.8-0.8,0.8-2.1,0-2.9l-1-1L43.8,7.7
		c0.3-0.3,0.3-0.7,0-1C43.5,6.4,43.1,6.4,42.8,6.7z M8.4,32.3l7.4-5.1c0.3-0.2,0.4-0.7,0.2-1c-0.2-0.3-0.7-0.4-1-0.2l-7.3,5.1
		c-0.7-1.2-1.3-2.5-1.8-3.8c4.5-1.8,10.3-4.3,16.7-7.4l0.5,0.5l-5.6,3.9c-0.3,0.2-0.4,0.7-0.2,1c0.1,0.2,0.4,0.3,0.6,0.3
		c0.1,0,0.3,0,0.4-0.1l5.8-4.1l0.6,0.6L11,35.6C10,34.6,9.2,33.5,8.4,32.3z M20.3,41.8c-1.3-0.5-2.6-1.1-3.8-1.8l1.3-1.9
		c0.2-0.3,0.1-0.7-0.2-1c-0.3-0.2-0.7-0.1-1,0.2l-1.3,1.9c-1.2-0.8-2.3-1.6-3.3-2.6L25.6,23l0.6,0.6l-7.7,11.1
		c-0.2,0.3-0.1,0.7,0.2,1c0.1,0.1,0.3,0.1,0.4,0.1c0.2,0,0.4-0.1,0.6-0.3l7.6-10.9l0.5,0.5C24.6,31.5,22,37.2,20.3,41.8z M30.5,23
		c0.3,0.3,0.3,0.7,0,1L30,24.5c-0.1,0.1-0.3,0.2-0.5,0.2c-0.2,0-0.4-0.1-0.5-0.2l-2.9-2.9c0,0,0,0,0,0c0,0,0,0,0,0l-2.9-2.9
		c-0.3-0.3-0.3-0.7,0-1l0.5-0.5c0.1-0.1,0.3-0.2,0.5-0.2c0.2,0,0.4,0.1,0.5,0.2L30.5,23z"/>
</g>
</svg>
