<?xml version="1.0" encoding="utf-8"?>
<!-- Generator: Adobe Illustrator 19.2.1, SVG Export Plug-In . SVG Version: 6.00 Build 0)  -->
<svg version="1.1"
	 id="svg5816" inkscape:output_extension="org.inkscape.output.svg.inkscape" inkscape:version="0.48.1 r9760" sodipodi:docname="mail-message-new.svg" sodipodi:version="0.32" xmlns:cc="http://creativecommons.org/ns#" xmlns:dc="http://purl.org/dc/elements/1.1/" xmlns:inkscape="http://www.inkscape.org/namespaces/inkscape" xmlns:rdf="http://www.w3.org/1999/02/22-rdf-syntax-ns#" xmlns:sodipodi="http://sodipodi.sourceforge.net/DTD/sodipodi-0.dtd" xmlns:svg="http://www.w3.org/2000/svg"
	 xmlns="http://www.w3.org/2000/svg" xmlns:xlink="http://www.w3.org/1999/xlink" x="0px" y="0px" viewBox="0 0 48 48"
	 style="enable-background:new 0 0 48 48;" xml:space="preserve">
<style type="text/css">
	.st0{fill:#FFFFFF;}
	.st1{fill:#2B5082;}
	.st2{fill:#A6D0F0;}
</style>
<defs>
	
	
		<inkscape:perspective  id="perspective74" inkscape:persp3d-origin="24 : 16 : 1" inkscape:vp_x="0 : 24 : 1" inkscape:vp_y="0 : 1000 : 0" inkscape:vp_z="48 : 24 : 1" sodipodi:type="inkscape:persp3d">
		</inkscape:perspective>
</defs>
<sodipodi:namedview  bordercolor="#666666" borderopacity="1.0" id="base" inkscape:current-layer="layer1" inkscape:cx="36.042151" inkscape:cy="32.243573" inkscape:document-units="px" inkscape:grid-bbox="true" inkscape:pageopacity="0.0" inkscape:pageshadow="2" inkscape:showpageshadow="false" inkscape:window-height="543" inkscape:window-maximized="0" inkscape:window-width="912" inkscape:window-x="316" inkscape:window-y="105" inkscape:zoom="2.8284271" pagecolor="#ffffff" showgrid="false">
	</sodipodi:namedview>
<g>
	<g>
		<path class="st0" d="M42.4,22.3h-2.3H7.4H5.1c-1.3,0-2.3,1-2.3,2.3v17.5h41.9V24.6C44.7,23.4,43.7,22.3,42.4,22.3z"/>
	</g>
	<g>
		<path class="st1" d="M45.4,42.9H2.1V24.6c0-1.7,1.4-3,3-3h2.3v1.5H5.1c-0.8,0-1.5,0.7-1.5,1.5v16.7h40.3V24.6
			c0-0.8-0.7-1.5-1.5-1.5h-2.3v-1.5h2.3c1.7,0,3,1.4,3,3V42.9z"/>
	</g>
	<g>
		<path class="st1" d="M43.9,13.2h-4.6v-1.5h3c0-1.3-1-2.3-2.3-2.3h-3V7.9h3c2.1,0,3.8,1.7,3.8,3.8V13.2z"/>
	</g>
	<g>
		<path class="st0" d="M13.5,8.7c-1.7,0-3,1.4-3,3V30h26.6V11.7c0-1.7,1.4-3,3-3H13.5z"/>
		<path class="st1" d="M37.8,30.7H9.7v-19c0-2.1,1.7-3.8,3.8-3.8h26.6v1.5c-1.3,0-2.3,1-2.3,2.3V30.7z M11.2,29.2h25.1V11.7
			c0-0.9,0.3-1.6,0.8-2.3H13.5c-1.3,0-2.3,1-2.3,2.3V29.2z"/>
	</g>
	<g>
		<rect x="5.9" y="29.2" class="st1" width="35.8" height="1.5"/>
	</g>
	<g>
		<path class="st2" d="M37.1,42.1H10.4v-2.3c0-1.7,1.3-3,3-3h20.6c1.7,0,3,1.3,3,3V42.1z"/>
		<path class="st1" d="M37.8,42.9H9.7v-3.8c0-1.7,1.4-3,3-3h22.1c1.7,0,3,1.4,3,3V42.9z M11.2,41.4h25.1v-2.3c0-0.8-0.7-1.5-1.5-1.5
			H12.7c-0.8,0-1.5,0.7-1.5,1.5V41.4z"/>
	</g>
	<g>
		<rect x="5.9" y="38.3" class="st1" width="1.5" height="1.5"/>
	</g>
	<g>
		<rect x="5.9" y="35.3" class="st1" width="1.5" height="1.5"/>
	</g>
	<g>
		<rect x="5.9" y="32.2" class="st1" width="1.5" height="1.5"/>
	</g>
	<g>
		<polygon class="st1" points="8.2,27.7 6.6,27.7 6.6,17.8 8.9,17.8 8.9,19.3 8.2,19.3 		"/>
	</g>
	<g>
		<polygon class="st1" points="40.9,27.7 39.4,27.7 39.4,19.3 38.6,19.3 38.6,17.8 40.9,17.8 		"/>
	</g>
	<g>
		<path class="st1" d="M27,25.7c-1.2,0.5-2.3,0.7-3.7,0.7c-3.4,0-6.3-2.4-6.3-6.4c0-4.1,3-7.7,7.6-7.7c3.6,0,6.1,2.4,6.1,5.8
			c0,3-1.7,4.8-3.8,4.8c-1,0-1.6-0.5-1.7-1.6h0c-0.6,1-1.5,1.6-2.6,1.6c-1.3,0-2.3-1-2.3-2.6c0-2.5,1.8-4.7,4.7-4.7
			c0.9,0,1.9,0.2,2.4,0.5L26.7,20c-0.2,1.2-0.1,1.7,0.5,1.8c0.9,0,2-1.1,2-3.4c0-2.6-1.7-4.7-4.8-4.7c-3.1,0-5.8,2.4-5.8,6.3
			c0,3.4,2.1,5.3,5.2,5.3c1,0,2.1-0.2,3-0.6L27,25.7z M25.2,17.4c-0.2,0-0.4-0.1-0.6-0.1c-1.3,0-2.4,1.3-2.4,2.9
			c0,0.8,0.3,1.3,1,1.3c0.7,0,1.5-1,1.7-2.1L25.2,17.4z"/>
	</g>
</g>
</svg>
