<?xml version="1.0" encoding="utf-8"?>
<!-- Generator: Adobe Illustrator 19.2.1, SVG Export Plug-In . SVG Version: 6.00 Build 0)  -->
<svg version="1.1"
	 id="svg11300" inkscape:export-filename="/home/jimmac/Desktop/wi-fi.png" inkscape:export-xdpi="90.000000" inkscape:export-ydpi="90.000000" inkscape:output_extension="org.inkscape.output.svg.inkscape" inkscape:version="0.46" sodipodi:docbase="/home/jimmac/src/cvs/tango-icon-theme/scalable/emblems" sodipodi:docname="emblem-readonly.svg" sodipodi:version="0.32" xmlns:cc="http://creativecommons.org/ns#" xmlns:dc="http://purl.org/dc/elements/1.1/" xmlns:inkscape="http://www.inkscape.org/namespaces/inkscape" xmlns:rdf="http://www.w3.org/1999/02/22-rdf-syntax-ns#" xmlns:sodipodi="http://sodipodi.sourceforge.net/DTD/sodipodi-0.dtd" xmlns:svg="http://www.w3.org/2000/svg"
	 xmlns="http://www.w3.org/2000/svg" xmlns:xlink="http://www.w3.org/1999/xlink" x="0px" y="0px" viewBox="0 0 48 48"
	 style="enable-background:new 0 0 48 48;" xml:space="preserve">
<style type="text/css">
	.st0{fill:#2B5082;}
</style>
<defs>
	
	
		<inkscape:perspective  id="perspective47" inkscape:persp3d-origin="24 : 16 : 1" inkscape:vp_x="0 : 24 : 1" inkscape:vp_y="0 : 1000 : 0" inkscape:vp_z="48 : 24 : 1" sodipodi:type="inkscape:persp3d">
		</inkscape:perspective>
</defs>
<sodipodi:namedview  bordercolor="#666666" borderopacity="0.25490196" fill="#729fcf" id="base" inkscape:current-layer="layer1" inkscape:cx="24.194962" inkscape:cy="-13.983676" inkscape:document-units="px" inkscape:grid-bbox="true" inkscape:pageopacity="0.0" inkscape:pageshadow="2" inkscape:showpageshadow="false" inkscape:window-height="707" inkscape:window-width="872" inkscape:window-x="155" inkscape:window-y="141" inkscape:zoom="1" pagecolor="#ffffff" showgrid="false" stroke="#ef2929">
	</sodipodi:namedview>
<g>
	<path class="st0" d="M0.6,19.7c0,1,0.3,1.4,0.5,1.7c0.1,0.1,0.1,0.2,0.2,0.3c0.1,0.2,0.2,0.5,0.2,0.8c1,7.1,1.2,8.1,3.6,9.7
		c1.2,0.8,3.5,1.3,5.9,1.3c1.9,0,4.6-0.3,6.8-1.7c3.3-2.1,4.5-9.3,4.5-9.7c0,0,0.1-0.9,1.6-0.9h0.1c1.4,0,1.5,0.9,1.5,1
		c0.1,0.3,1.3,7.5,4.5,9.6c2.2,1.4,4.9,1.7,6.8,1.7c2.4,0,4.8-0.5,5.9-1.3c2.4-1.6,2.6-2.5,3.6-9.7c0-0.3,0.1-0.6,0.2-0.8
		c0.1-0.1,0.1-0.2,0.2-0.3c0.2-0.3,0.5-0.7,0.5-1.7c0-0.2,0-0.5,0-0.8c0-0.5,0-1,0-1.3c-0.1-1.4-1.1-2-1.6-2.1
		c-3.3-0.8-7.3-1.1-11.6-0.7l-0.2,0c-2.6,0.2-4,0.3-5.7,1.3c-0.4,0.2-0.8,0.5-1.2,0.7c-0.6,0.4-1.6,0.8-2.1,1
		c-0.2,0.1-0.4,0.1-0.6,0.2c-0.3,0.1-0.8,0.1-1,0c-0.2,0-0.4-0.1-0.6-0.2c-0.5-0.1-1.4-0.6-2.1-1c-0.4-0.2-0.8-0.5-1.2-0.7
		C18,15.1,16.6,15,14,14.8l-0.2,0c-4.2-0.4-8.2-0.1-11.5,0.7c-0.5,0.1-1.6,0.7-1.6,2.1c0,0.3,0,0.8,0,1.3
		C0.6,19.2,0.6,19.5,0.6,19.7L0.6,19.7z M46.4,17.9V19l-1.1-0.5L46.4,17.9z M27.7,19.5c0.2-0.5,1.2-2.2,7.6-2.6
		c1.1-0.1,2.1-0.1,2.9-0.1c3.8,0,5,0.8,5.7,2.2c0.4,0.8,0.7,2.5,0.7,3.6c0,2.3-0.4,6.5-3,8c-1.2,0.7-3,1.1-4.8,1.1
		c-3.5,0-6.3-1.5-7.4-3.9C26.8,22.6,27.7,19.5,27.7,19.5L27.7,19.5z M4.2,18.9c0.7-1.3,1.9-2.2,5.7-2.2c0.8,0,1.8,0,2.9,0.1
		c6.4,0.5,7.4,2.1,7.6,2.7c0,0,0.8,3.1-1.6,8.2c-1.2,2.4-4,3.9-7.4,3.9c-1.8,0-3.6-0.4-4.8-1.1c-2.6-1.6-3-5.7-3-8
		C3.4,21.4,3.7,19.7,4.2,18.9L4.2,18.9z M1.6,17.9l1.1,0.5L1.6,19V17.9z M1.6,17.9"/>
</g>
</svg>
