<?xml version="1.0" encoding="utf-8"?>
<!-- Generator: Adobe Illustrator 19.2.1, SVG Export Plug-In . SVG Version: 6.00 Build 0)  -->
<svg version="1.1"
	 id="svg11300" inkscape:export-filename="/home/jimmac/Desktop/wi-fi.png" inkscape:export-xdpi="90.000000" inkscape:export-ydpi="90.000000" inkscape:output_extension="org.inkscape.output.svg.inkscape" inkscape:version="0.46" sodipodi:docbase="/home/jimmac/src/cvs/tango-icon-theme/scalable/categories" sodipodi:docname="preferences-desktop.svg" sodipodi:version="0.32" xmlns:cc="http://creativecommons.org/ns#" xmlns:dc="http://purl.org/dc/elements/1.1/" xmlns:inkscape="http://www.inkscape.org/namespaces/inkscape" xmlns:rdf="http://www.w3.org/1999/02/22-rdf-syntax-ns#" xmlns:sodipodi="http://sodipodi.sourceforge.net/DTD/sodipodi-0.dtd" xmlns:svg="http://www.w3.org/2000/svg"
	 xmlns="http://www.w3.org/2000/svg" xmlns:xlink="http://www.w3.org/1999/xlink" x="0px" y="0px" viewBox="0 0 48 48"
	 style="enable-background:new 0 0 48 48;" xml:space="preserve">
<style type="text/css">
	.st0{fill:#A6D0F0;}
	.st1{fill:#2B5082;}
</style>
<defs>
	
	
		<inkscape:perspective  id="perspective106" inkscape:persp3d-origin="24 : 16 : 1" inkscape:vp_x="0 : 24 : 1" inkscape:vp_y="0 : 1000 : 0" inkscape:vp_z="48 : 24 : 1" sodipodi:type="inkscape:persp3d">
		</inkscape:perspective>
</defs>
<sodipodi:namedview  bordercolor="#666666" borderopacity="0.25490196" fill="#eeeeec" id="base" inkscape:current-layer="layer1" inkscape:cx="28.237586" inkscape:cy="23.130045" inkscape:document-units="px" inkscape:grid-bbox="true" inkscape:pageopacity="0.0" inkscape:pageshadow="2" inkscape:showpageshadow="false" inkscape:window-height="818" inkscape:window-width="1024" inkscape:window-x="410" inkscape:window-y="30" inkscape:zoom="1" pagecolor="#ffffff" showgrid="false" stroke="#ef2929">
	</sodipodi:namedview>
<g>
	<circle class="st0" cx="24" cy="14" r="1.8"/>
	<circle class="st0" cx="12.5" cy="24.6" r="1.8"/>
	<circle class="st0" cx="35.5" cy="29.2" r="1.8"/>
	<path class="st1" d="M36.7,25.2V12.1c0-0.6-0.5-1.2-1.2-1.2s-1.2,0.5-1.2,1.2v13.1c-1.7,0.5-3,2.1-3,4c0,1.9,1.3,3.5,3,4v3.9
		c0,0.6,0.5,1.2,1.2,1.2s1.2-0.5,1.2-1.2v-3.9c1.7-0.5,3-2.1,3-4C39.7,27.3,38.4,25.7,36.7,25.2z M35.5,31c-1,0-1.8-0.8-1.8-1.8
		c0-1,0.8-1.8,1.8-1.8c1,0,1.8,0.8,1.8,1.8C37.4,30.2,36.5,31,35.5,31z"/>
	<path class="st1" d="M24,9.8c-2.3,0-4.2,1.9-4.2,4.2c0,1.9,1.3,3.5,3,4v19c0,0.6,0.5,1.2,1.2,1.2c0.6,0,1.2-0.5,1.2-1.2v-19
		c1.7-0.5,3-2.1,3-4C28.2,11.7,26.3,9.8,24,9.8z M24,15.9c-1,0-1.8-0.8-1.8-1.8c0-1,0.8-1.8,1.8-1.8c1,0,1.8,0.8,1.8,1.8
		C25.9,15.1,25,15.9,24,15.9z"/>
	<path class="st1" d="M13.7,20.6v-8.5c0-0.6-0.5-1.2-1.2-1.2c-0.6,0-1.2,0.5-1.2,1.2v8.5c-1.7,0.5-3,2.1-3,4s1.3,3.5,3,4v8.5
		c0,0.6,0.5,1.2,1.2,1.2c0.6,0,1.2-0.5,1.2-1.2v-8.5c1.7-0.5,3-2.1,3-4S15.4,21.1,13.7,20.6z M12.5,26.4c-1,0-1.8-0.8-1.8-1.8
		c0-1,0.8-1.8,1.8-1.8c1,0,1.8,0.8,1.8,1.8C14.3,25.6,13.5,26.4,12.5,26.4z"/>
	<path class="st1" d="M38.4,3.7H9c-2.7,0-4.8,1-5.3,3.8c0,0.1-0.1,0.3-0.1,0.4c0,0.1,0,0.2,0,0.4v16c0,5.4-0.5,11.2,0.1,16.5
		c0.4,3.1,3.2,3.6,5.7,3.6h29.7c2.6,0,5.4-1.1,5.4-4.3V12.4c0-1.6,0.4-3.9-0.1-5.5C43.3,4,41.1,3.7,38.4,3.7z M41.5,12.7v27.5
		c0,2.1-5.1,1.3-6.1,1.3H7.9c-2.1,0-1.3-5.1-1.3-6.1V7.9c0.2-2.1,4.9-1.3,6.1-1.3h27.5C42.3,6.6,41.5,11.7,41.5,12.7z"/>
</g>
</svg>
