<?xml version="1.0" encoding="utf-8"?>
<!-- Generator: Adobe Illustrator 19.2.1, SVG Export Plug-In . SVG Version: 6.00 Build 0)  -->
<svg version="1.1"
	 id="svg3471" inkscape:output_extension="org.inkscape.output.svg.inkscape" inkscape:version="0.48.0 r9654" sodipodi:docname="tryton-currency.svg" sodipodi:version="0.32" xmlns:cc="http://creativecommons.org/ns#" xmlns:dc="http://purl.org/dc/elements/1.1/" xmlns:inkscape="http://www.inkscape.org/namespaces/inkscape" xmlns:rdf="http://www.w3.org/1999/02/22-rdf-syntax-ns#" xmlns:sodipodi="http://sodipodi.sourceforge.net/DTD/sodipodi-0.dtd" xmlns:svg="http://www.w3.org/2000/svg"
	 xmlns="http://www.w3.org/2000/svg" xmlns:xlink="http://www.w3.org/1999/xlink" x="0px" y="0px" viewBox="0 0 64 64"
	 style="enable-background:new 0 0 64 64;" xml:space="preserve">
<style type="text/css">
	.st0{fill:#A6D0F0;}
	.st1{fill:#2B5082;}
	.st2{fill:#FFFFFF;}
</style>
<defs>
	
	
		<inkscape:perspective  id="perspective3479" inkscape:persp3d-origin="32 : 21.333333 : 1" inkscape:vp_x="0 : 32 : 1" inkscape:vp_y="0 : 1000 : 0" inkscape:vp_z="64 : 32 : 1" sodipodi:type="inkscape:persp3d">
		</inkscape:perspective>
</defs>
<sodipodi:namedview  bordercolor="#666666" borderopacity="1.0" id="base" inkscape:current-layer="layer1" inkscape:cx="33.147054" inkscape:cy="31.673852" inkscape:document-units="px" inkscape:grid-bbox="true" inkscape:pageopacity="0.0" inkscape:pageshadow="2" inkscape:window-height="1024" inkscape:window-maximized="0" inkscape:window-width="1280" inkscape:window-x="0" inkscape:window-y="0" inkscape:zoom="9.3995622" pagecolor="#ffffff" showgrid="true">
	</sodipodi:namedview>
<g>
	<g>
		<g>
			<path class="st0" d="M29.9,19.2c0.9,0,5.5-8.4,6.5-9.7c0.3-0.5,0.4-0.7,0.2-1c-0.3-0.3-0.9-0.3-1.5-0.1c-1.2,0.4-2.7,0-4.5-0.5
				c-3.4-1-8.4-2.3-10.4,1.2c-0.2,0.3-0.1,0.3,0.3,0.7c1,1.1,5.4,9.4,6.3,9.4H29.9z"/>
			<path class="st1" d="M29.9,20.2h-3.1c-1,0-1.6-0.9-4.9-6.2c-0.9-1.5-1.9-3.1-2.2-3.5c-0.1-0.1-0.1-0.1-0.2-0.2
				c-0.2-0.2-0.8-0.8-0.3-1.7c2.4-4.3,8.1-2.7,11.5-1.7c1.5,0.4,2.9,0.8,3.9,0.5c1.2-0.3,2.1-0.2,2.6,0.4c0.8,1,0.1,1.9-0.1,2.2
				c-0.3,0.4-1.1,1.7-1.9,3.1C31.4,19.5,30.8,20.2,29.9,20.2z M29.5,18.3L29.5,18.3L29.5,18.3z M27.2,18.3L27.2,18.3L27.2,18.3z
				 M27.1,18.2h2.5c0.8-0.8,2.8-4.2,3.9-6.1c0.8-1.3,1.3-2.2,1.7-2.8c-1.5,0.4-3.1,0-5-0.5c-3.8-1.1-7.3-1.9-9,0.4
				c0.5,0.5,1.2,1.8,2.4,3.7C24.7,14.7,26.4,17.5,27.1,18.2z"/>
		</g>
		<g>
			<path class="st0" d="M32,17.3c-3.3-2-6.6-1.1-8.7,0C13.1,22.8,8.9,33.5,8.9,38.8c0,10.6,8.4,13.4,18.8,13.4
				c10.4,0,18.8-2.6,18.8-13.3C46.5,33.8,42.1,23.4,32,17.3z"/>
			<path class="st1" d="M27.7,53.2c-13.3,0-19.8-4.7-19.8-14.4c0-6,4.6-16.9,15-22.4c1.5-0.8,5.6-2.5,9.7,0l0,0
				c10.3,6.3,14.9,16.9,14.9,22.5C47.5,53.2,32.6,53.2,27.7,53.2z M27.9,17.1c-1.7,0-3.1,0.6-4,1.1C13.3,23.8,9.9,34.5,9.9,38.8
				c0,8.5,5.7,12.4,17.8,12.4c12.3,0,17.8-3.8,17.8-12.3c0-5-4.4-15-14-20.8l0,0C30.3,17.3,29,17.1,27.9,17.1z"/>
		</g>
		<g>
			<path class="st1" d="M14.4,37.8h-2c0-4.6,3.6-13,11.6-17.3l0.9,1.8C16.9,26.5,14.4,34.6,14.4,37.8z"/>
		</g>
	</g>
	<g>
		<g>
			<path class="st2" d="M44.7,26.2c-3.9,0-7,1.3-7,3v25c0,1.7,3.1,3,7,3s7-1.3,7-3v-25C51.7,27.6,48.6,26.2,44.7,26.2z"/>
		</g>
		<g>
			<path class="st1" d="M44.7,38.2c-4,0-8-1.4-8-4v-5h2v5c0,0.7,2.3,2,6,2s6-1.3,6-2v-5h2v5C52.7,36.8,48.7,38.2,44.7,38.2z"/>
		</g>
		<g>
			<path class="st1" d="M44.7,43.2c-4,0-8-1.4-8-4v-5h2v5c0,0.7,2.3,2,6,2s6-1.3,6-2v-5h2v5C52.7,41.8,48.7,43.2,44.7,43.2z"/>
		</g>
		<g>
			<path class="st1" d="M44.7,48.2c-4,0-8-1.4-8-4v-5h2v5c0,0.7,2.3,2,6,2s6-1.3,6-2v-5h2v5C52.7,46.8,48.7,48.2,44.7,48.2z"/>
		</g>
		<g>
			<path class="st1" d="M44.7,53.2c-4,0-8-1.4-8-4v-5h2v5c0,0.7,2.3,2,6,2s6-1.3,6-2v-5h2v5C52.7,51.8,48.7,53.2,44.7,53.2z"/>
		</g>
		<g>
			<path class="st1" d="M44.7,58.2c-4,0-8-1.4-8-4v-5h2v5c0,0.7,2.3,2,6,2s6-1.3,6-2v-5h2v5C52.7,56.8,48.7,58.2,44.7,58.2z"/>
		</g>
		<g>
			<path class="st1" d="M44.7,33.2c-4,0-8-1.4-8-4s4-4,8-4s8,1.4,8,4S48.7,33.2,44.7,33.2z M44.7,27.2c-3.7,0-6,1.3-6,2s2.3,2,6,2
				s6-1.3,6-2S48.4,27.2,44.7,27.2z"/>
		</g>
	</g>
</g>
</svg>
