<?xml version="1.0" encoding="utf-8"?>
<!-- Generator: Adobe Illustrator 19.2.1, SVG Export Plug-In . SVG Version: 6.00 Build 0)  -->
<svg version="1.1"
	 id="svg11300" inkscape:export-filename="/home/jimmac/Desktop/wi-fi.png" inkscape:export-xdpi="90.000000" inkscape:export-ydpi="90.000000" inkscape:output_extension="org.inkscape.output.svg.inkscape" inkscape:version="0.46" sodipodi:docbase="/home/jimmac/src/cvs/tango-icon-theme/scalable/actions" sodipodi:docname="system-log-out.svg" sodipodi:modified="true" sodipodi:version="0.32" xmlns:cc="http://creativecommons.org/ns#" xmlns:dc="http://purl.org/dc/elements/1.1/" xmlns:inkscape="http://www.inkscape.org/namespaces/inkscape" xmlns:rdf="http://www.w3.org/1999/02/22-rdf-syntax-ns#" xmlns:sodipodi="http://sodipodi.sourceforge.net/DTD/sodipodi-0.dtd" xmlns:svg="http://www.w3.org/2000/svg"
	 xmlns="http://www.w3.org/2000/svg" xmlns:xlink="http://www.w3.org/1999/xlink" x="0px" y="0px" viewBox="0 0 48 48"
	 style="enable-background:new 0 0 48 48;" xml:space="preserve">
<style type="text/css">
	.st0{fill:#FFFFFF;}
	.st1{fill:#2B5082;}
	.st2{fill:#A6D0F0;}
</style>
<defs>
	
	
		<inkscape:perspective  id="perspective70" inkscape:persp3d-origin="24 : 16 : 1" inkscape:vp_x="0 : 24 : 1" inkscape:vp_y="0 : 1000 : 0" inkscape:vp_z="48 : 24 : 1" sodipodi:type="inkscape:persp3d">
		</inkscape:perspective>
</defs>
<sodipodi:namedview  bordercolor="#666666" borderopacity="0.25490196" fill="#727e0a" id="base" inkscape:current-layer="layer1" inkscape:cx="-103.37653" inkscape:cy="5.4914491" inkscape:document-units="px" inkscape:grid-bbox="true" inkscape:pageopacity="0.0" inkscape:pageshadow="2" inkscape:showpageshadow="false" inkscape:window-height="762" inkscape:window-width="966" inkscape:window-x="468" inkscape:window-y="86" inkscape:zoom="1" pagecolor="#ffffff" showgrid="false" stroke="#a40000">
	</sodipodi:namedview>
<g>
	<g>
		<rect x="14.3" y="9.1" class="st0" width="24.9" height="29.7"/>
	</g>
	<g>
		<polygon class="st1" points="39.9,39.6 16.4,39.6 16.4,32 17.8,32 17.8,38.2 38.5,38.2 38.5,12.6 17.8,12.6 17.8,15.4 16.4,15.4 
			16.4,11.2 39.9,11.2 		"/>
	</g>
	<g>
		<polygon class="st0" points="39.2,38.9 26,43.7 25.4,43.7 25.4,4.3 26,4.3 39.2,9.1 		"/>
		<path class="st1" d="M26.2,44.4h-1.5V3.6h1.5l13.7,5v30.7L26.2,44.4z M26.1,5V43l12.4-4.6V9.6L26.1,5z"/>
	</g>
	<g>
		<rect x="9.5" y="38.2" class="st1" width="7.6" height="1.4"/>
	</g>
	<g>
		<rect x="39.9" y="38.2" class="st1" width="2.8" height="1.4"/>
	</g>
	<g>
		<rect x="44.1" y="38.2" class="st1" width="2.1" height="1.4"/>
	</g>
	<g>
		<polygon class="st2" points="2.9,24.3 11.8,15.4 11.8,20.2 22.2,20.2 22.2,28.5 11.8,28.5 11.8,33.3 		"/>
		<path class="st1" d="M1.9,24.3l10.7-10.7v5.8h10.4v9.7H12.5V35L1.9,24.3z M21.5,20.9H11.1V17l-7.3,7.3l7.3,7.3v-3.9h10.4V20.9z"/>
	</g>
	<g>
		<polygon class="st1" points="28.8,27.4 27.5,26.8 28.1,25.6 28.1,22.4 27.5,21.2 28.8,20.6 29.5,22.1 29.5,25.9 		"/>
	</g>
	<g>
		<rect x="6.7" y="38.2" class="st1" width="1.4" height="1.4"/>
	</g>
	<g>
		<polygon class="st1" points="15,14 13.6,14 13.6,8.4 25.4,8.4 25.4,9.8 15,9.8 		"/>
	</g>
	<g>
		<rect x="13.6" y="34.7" class="st1" width="1.4" height="4.1"/>
	</g>
</g>
</svg>
