<?xml version="1.0" encoding="utf-8"?>
<!-- Generator: Adobe Illustrator 19.2.1, SVG Export Plug-In . SVG Version: 6.00 Build 0)  -->
<svg version="1.1"
	 id="svg2963" inkscape:output_extension="org.inkscape.output.svg.inkscape" inkscape:version="0.46" sodipodi:docbase="/home/jimmac/src/cvs/tango-icon-theme/scalable/mimetypes" sodipodi:docname="package-x-generic.svg" sodipodi:version="0.32" xmlns:cc="http://creativecommons.org/ns#" xmlns:dc="http://purl.org/dc/elements/1.1/" xmlns:inkscape="http://www.inkscape.org/namespaces/inkscape" xmlns:rdf="http://www.w3.org/1999/02/22-rdf-syntax-ns#" xmlns:sodipodi="http://sodipodi.sourceforge.net/DTD/sodipodi-0.dtd" xmlns:svg="http://www.w3.org/2000/svg"
	 xmlns="http://www.w3.org/2000/svg" xmlns:xlink="http://www.w3.org/1999/xlink" x="0px" y="0px" viewBox="0 0 48 48"
	 style="enable-background:new 0 0 48 48;" xml:space="preserve">
<style type="text/css">
	.st0{fill:#E9EAEB;}
	.st1{fill:#A3D4FF;}
	.st2{fill:#2A5082;}
	.st3{fill:#FFFFFF;}
</style>
<defs>
	
	
		<inkscape:perspective  id="perspective77" inkscape:persp3d-origin="24 : 16 : 1" inkscape:vp_x="0 : 24 : 1" inkscape:vp_y="0 : 1000 : 0" inkscape:vp_z="48 : 24 : 1" sodipodi:type="inkscape:persp3d">
		</inkscape:perspective>
</defs>
<sodipodi:namedview  bordercolor="#666666" borderopacity="0.16470588" fill="#e9b96e" id="base" inkscape:current-layer="layer1" inkscape:cx="74.637005" inkscape:cy="39.004018" inkscape:document-units="px" inkscape:grid-bbox="true" inkscape:pageopacity="0.0" inkscape:pageshadow="2" inkscape:showpageshadow="false" inkscape:window-height="706" inkscape:window-width="872" inkscape:window-x="392" inkscape:window-y="142" inkscape:zoom="1" pagecolor="#ffffff" showgrid="false" stroke="#c17d11">
	</sodipodi:namedview>
<g>
	<g>
		<polygon class="st0" points="23.3,12 9,20.3 23.3,28.8 37.6,20.3 		"/>
	</g>
	<g>
		<polygon class="st1" points="9.3,30 9.3,34.9 23.3,43.4 37.2,34.9 37.2,30 		"/>
	</g>
	<g>
		<polygon class="st2" points="23.3,44.2 8.5,35.4 8.5,30 10,30 10,34.5 23.3,42.5 36.5,34.5 36.5,30 38,30 38,35.4 		"/>
	</g>
	<g>
		<polygon class="st3" points="45.1,25.4 30.8,33.9 23.3,28.8 37.6,20.3 		"/>
		<path class="st2" d="M30.8,34.7l-9-6l15.8-9.3l9,6L30.8,34.7z M24.6,28.9l6.2,4.2l12.9-7.6l-6.2-4.2L24.6,28.9z"/>
	</g>
	<g>
		<polygon class="st3" points="1.4,25.4 15.7,33.9 23.3,28.8 9,20.3 		"/>
		<path class="st2" d="M15.7,34.7L0,25.4l9-6l15.7,9.3L15.7,34.7z M2.8,25.3l12.9,7.6l6.2-4.2L9,21.2L2.8,25.3z"/>
	</g>
	<g>
		<polygon class="st3" points="45.1,15.3 30.8,6.9 23.3,12 37.6,20.3 		"/>
		<path class="st2" d="M37.7,21.3L21.9,12l9-6l15.7,9.3L37.7,21.3z M24.6,11.9l12.9,7.6l6.2-4.2L30.8,7.7L24.6,11.9z"/>
	</g>
	<g>
		<polygon class="st3" points="1.4,15.3 15.7,6.9 23.3,12 9,20.3 		"/>
		<path class="st2" d="M9,21.3l-9-6L15.7,6l9,6L9,21.3z M2.8,15.3L9,19.5l12.9-7.6l-6.2-4.2L2.8,15.3z"/>
	</g>
	<g>
		<rect x="22.5" y="31.4" class="st2" width="1.5" height="11.7"/>
	</g>
</g>
</svg>
