<?xml version="1.0" encoding="utf-8"?>
<!-- Generator: Adobe Illustrator 19.2.1, SVG Export Plug-In . SVG Version: 6.00 Build 0)  -->
<svg version="1.1"
	 id="svg249" inkscape:export-filename="/home/jimmac/gfx/novell/pdes/trunk/docs/BIGmime-text.png" inkscape:export-xdpi="240.00000" inkscape:export-ydpi="240.00000" inkscape:output_extension="org.inkscape.output.svg.inkscape" inkscape:version="0.46" sodipodi:docbase="/home/jimmac/src/cvs/tango-icon-theme/scalable/actions" sodipodi:docname="document-new.svg" sodipodi:version="0.32" xmlns:cc="http://creativecommons.org/ns#" xmlns:dc="http://purl.org/dc/elements/1.1/" xmlns:inkscape="http://www.inkscape.org/namespaces/inkscape" xmlns:rdf="http://www.w3.org/1999/02/22-rdf-syntax-ns#" xmlns:sodipodi="http://sodipodi.sourceforge.net/DTD/sodipodi-0.dtd" xmlns:svg="http://www.w3.org/2000/svg"
	 xmlns="http://www.w3.org/2000/svg" xmlns:xlink="http://www.w3.org/1999/xlink" x="0px" y="0px" viewBox="0 0 48 48"
	 style="enable-background:new 0 0 48 48;" xml:space="preserve">
<style type="text/css">
	.st0{fill:#FFFFFF;}
	.st1{fill:#A6D0F0;}
	.st2{fill:#2B5082;}
</style>
<defs>
	
	
		<inkscape:perspective  id="perspective69" inkscape:persp3d-origin="24 : 16 : 1" inkscape:vp_x="0 : 24 : 1" inkscape:vp_y="0 : 1000 : 0" inkscape:vp_z="48 : 24 : 1" sodipodi:type="inkscape:persp3d">
		</inkscape:perspective>
</defs>
<sodipodi:namedview  bordercolor="#666666" borderopacity="0.32941176" id="base" inkscape:current-layer="layer6" inkscape:cx="-130.2425" inkscape:cy="-6.4480487" inkscape:document-units="px" inkscape:grid-bbox="true" inkscape:pageopacity="0.0" inkscape:pageshadow="2" inkscape:showpageshadow="false" inkscape:window-height="688" inkscape:window-width="872" inkscape:window-x="166" inkscape:window-y="151" inkscape:zoom="1" pagecolor="#ffffff" showgrid="false">
	</sodipodi:namedview>
<g>
	<g>
		<path class="st0" d="M16.2,4.5h20.9l7,7V42c0,1-0.8,1.7-1.7,1.7H16.2c-1,0-1.7-0.8-1.7-1.7V6.3C14.5,5.3,15.2,4.5,16.2,4.5z"/>
	</g>
	<g>
		<polygon class="st1" points="36.3,4.5 36.3,12.4 44.1,12.4 		"/>
	</g>
	<g>
		<path class="st2" d="M42.4,44.7H16.2c-1.4,0-2.6-1.2-2.6-2.6V6.3c0-1.4,1.2-2.6,2.6-2.6h21.3l7.5,7.5V42
			C45,43.5,43.8,44.7,42.4,44.7z M16.2,5.4c-0.5,0-0.9,0.4-0.9,0.9V42c0,0.5,0.4,0.9,0.9,0.9h26.2c0.5,0,0.9-0.4,0.9-0.9V11.9
			l-6.5-6.5H16.2z"/>
	</g>
	<g>
		<g>
			<polygon class="st2" points="41.5,13.3 35.4,13.3 35.4,7.2 37.1,7.2 37.1,11.5 41.5,11.5 			"/>
		</g>
	</g>
	<g>
		<g>
			<path class="st2" d="M5.6,13.4l-1.4-1.4c-0.5-0.5-0.8-1.2-0.8-1.9c0-0.7,0.3-1.4,0.8-1.9l0.1-0.1c1-1,2.7-1,3.7,0l1.4,1.4
				l-1.2,1.2L6.8,9.4c-0.3-0.3-0.9-0.3-1.2,0L5.4,9.6C5.2,9.8,5.2,10,5.2,10.2s0.1,0.5,0.3,0.6l1.4,1.4L5.6,13.4z"/>
		</g>
		<g>
			<polygon class="st1" points="5.7,13.3 28.4,35.9 35.4,39.4 31.9,32.5 9.2,9.8 			"/>
			<path class="st2" d="M35.4,40.3c-0.1,0-0.3,0-0.4-0.1l-7-3.5c-0.1,0-0.2-0.1-0.2-0.2L5.1,13.9c-0.3-0.3-0.3-0.9,0-1.2l3.5-3.5
				c0.3-0.3,0.9-0.3,1.2,0l22.7,22.7c0.1,0.1,0.1,0.1,0.2,0.2l3.5,7c0.2,0.3,0.1,0.7-0.2,1C35.9,40.2,35.6,40.3,35.4,40.3z
				 M28.9,35.2l4.5,2.3L31.2,33l-22-22L7,13.3L28.9,35.2z"/>
		</g>
		<g>
			<line class="st0" x1="31.9" y1="32.5" x2="28.4" y2="35.9"/>
			
				<rect x="27.7" y="33.3" transform="matrix(0.7071 -0.7071 0.7071 0.7071 -15.3454 31.3501)" class="st2" width="4.9" height="1.7"/>
		</g>
		<g>
			
				<rect x="4.5" y="14.6" transform="matrix(0.7071 -0.7071 0.7071 0.7071 -8.3432 10.7443)" class="st2" width="8.6" height="1.7"/>
		</g>
		<g>
			
				<rect x="6.6" y="14.1" transform="matrix(0.7071 -0.7071 0.7071 0.7071 -12.1191 11.2243)" class="st2" width="1.7" height="12.3"/>
		</g>
	</g>
</g>
</svg>
