<?xml version="1.0" encoding="utf-8"?>
<!-- Generator: Adobe Illustrator 19.2.1, SVG Export Plug-In . SVG Version: 6.00 Build 0)  -->
<svg version="1.1"
	 id="svg11300" inkscape:export-filename="/home/jimmac/Desktop/wi-fi.png" inkscape:export-xdpi="90.000000" inkscape:export-ydpi="90.000000" inkscape:output_extension="org.inkscape.output.svg.inkscape" inkscape:version="0.46" sodipodi:docbase="/home/jimmac/src/cvs/tango-icon-theme/scalable/apps" sodipodi:docname="preferences-desktop-locale.svg" sodipodi:version="0.32" xmlns:cc="http://creativecommons.org/ns#" xmlns:dc="http://purl.org/dc/elements/1.1/" xmlns:inkscape="http://www.inkscape.org/namespaces/inkscape" xmlns:rdf="http://www.w3.org/1999/02/22-rdf-syntax-ns#" xmlns:sodipodi="http://sodipodi.sourceforge.net/DTD/sodipodi-0.dtd" xmlns:svg="http://www.w3.org/2000/svg"
	 xmlns="http://www.w3.org/2000/svg" xmlns:xlink="http://www.w3.org/1999/xlink" x="0px" y="0px" viewBox="0 0 48 48"
	 style="enable-background:new 0 0 48 48;" xml:space="preserve">
<style type="text/css">
	.st0{fill:#2B5082;}
	.st1{fill:#A6D0F0;}
</style>
<defs>
	
	
		<inkscape:perspective  id="perspective133" inkscape:persp3d-origin="24 : 16 : 1" inkscape:vp_x="0 : 24 : 1" inkscape:vp_y="0 : 1000 : 0" inkscape:vp_z="48 : 24 : 1" sodipodi:type="inkscape:persp3d">
		</inkscape:perspective>
</defs>
<sodipodi:namedview  bordercolor="#666666" borderopacity="0.25490196" fill="#edd400" id="base" inkscape:current-layer="layer1" inkscape:cx="-139" inkscape:cy="14.5" inkscape:document-units="px" inkscape:grid-bbox="true" inkscape:pageopacity="0.0" inkscape:pageshadow="2" inkscape:showpageshadow="false" inkscape:window-height="688" inkscape:window-width="804" inkscape:window-x="630" inkscape:window-y="30" inkscape:zoom="1" pagecolor="#ffffff" showgrid="false" stroke="#ef2929">
	</sodipodi:namedview>
<g>
	<path class="st0" d="M24.5,3.7C13.3,3.7,4.2,12.8,4.2,24c0,11.2,9.1,20.3,20.3,20.3S44.8,35.2,44.8,24C44.8,12.8,35.7,3.7,24.5,3.7
		L24.5,3.7z M24.5,41c-9.4,0-17-7.6-17-17c0-9.4,7.6-17,17-17c9.4,0,17,7.6,17,17C41.5,33.4,33.9,41,24.5,41L24.5,41z M24.5,41"/>
	<path class="st0" d="M24.5,14.7c-5.1,0-9.3,4.2-9.3,9.3c0,5.1,4.2,9.3,9.3,9.3c5.1,0,9.3-4.2,9.3-9.3
		C33.8,18.9,29.6,14.7,24.5,14.7L24.5,14.7z M24.5,30.1c-3.4,0-6.1-2.7-6.1-6.1c0-3.4,2.7-6.1,6.1-6.1c3.4,0,6.1,2.7,6.1,6.1
		C30.6,27.4,27.9,30.1,24.5,30.1L24.5,30.1z M24.5,30.1"/>
	<path class="st1" d="M28,24c0,1.9-1.6,3.5-3.5,3.5c-1.9,0-3.5-1.6-3.5-3.5c0-1.9,1.6-3.5,3.5-3.5C26.4,20.5,28,22.1,28,24L28,24z
		 M28,24"/>
</g>
</svg>
