<?xml version="1.0" encoding="utf-8"?>
<!-- Generator: Adobe Illustrator 19.2.1, SVG Export Plug-In . SVG Version: 6.00 Build 0)  -->
<svg version="1.1"
	 id="svg13684" inkscape:output_extension="org.inkscape.output.svg.inkscape" inkscape:version="0.48.0 r9654" sodipodi:docname="x-office-spreadsheet.svg" sodipodi:version="0.32" xmlns:cc="http://creativecommons.org/ns#" xmlns:dc="http://purl.org/dc/elements/1.1/" xmlns:inkscape="http://www.inkscape.org/namespaces/inkscape" xmlns:rdf="http://www.w3.org/1999/02/22-rdf-syntax-ns#" xmlns:sodipodi="http://sodipodi.sourceforge.net/DTD/sodipodi-0.dtd" xmlns:svg="http://www.w3.org/2000/svg"
	 xmlns="http://www.w3.org/2000/svg" xmlns:xlink="http://www.w3.org/1999/xlink" x="0px" y="0px" viewBox="0 0 48 48"
	 style="enable-background:new 0 0 48 48;" xml:space="preserve">
<style type="text/css">
	.st0{fill:#E8E9EA;}
	.st1{fill:#A6D0F0;}
	.st2{fill:#2B5082;}
</style>
<defs>
	
	
		<inkscape:perspective  id="perspective114" inkscape:persp3d-origin="24 : 16 : 1" inkscape:vp_x="0 : 24 : 1" inkscape:vp_y="0 : 1000 : 0" inkscape:vp_z="48 : 24 : 1" sodipodi:type="inkscape:persp3d">
		</inkscape:perspective>
</defs>
<sodipodi:namedview  bordercolor="#666666" borderopacity="1.0" id="base" inkscape:current-layer="layer2" inkscape:cx="24" inkscape:cy="24" inkscape:document-units="px" inkscape:grid-bbox="true" inkscape:grid-points="true" inkscape:pageopacity="0.0" inkscape:pageshadow="2" inkscape:showpageshadow="false" inkscape:window-height="1007" inkscape:window-maximized="0" inkscape:window-width="702" inkscape:window-x="0" inkscape:window-y="15" inkscape:zoom="11.895833" pagecolor="#ffffff" showgrid="false">
	</sodipodi:namedview>
<g>
	<path class="st0" d="M20.6,28.6h16.8c-0.7,8.5-7.9,15.2-16.6,15.2c-9.2,0-16.6-7.5-16.6-16.6c0-8.7,6.7-15.8,15.2-16.6v16.7
		C19.4,28,19.9,28.6,20.6,28.6L20.6,28.6z M20.6,28.6"/>
	<path class="st1" d="M43.8,22.3H25.9V4.2C35.5,4.8,43.2,12.6,43.8,22.3L43.8,22.3z M43.8,22.3"/>
	<path class="st2" d="M46.4,23.4v0.1c0,0.7-0.6,1.3-1.3,1.3H24.6c-0.7,0-1.3-0.6-1.3-1.3V2.9c0-0.3,0.1-0.7,0.4-0.9
		c0.2-0.2,0.6-0.4,0.9-0.4h0C36.6,1.7,46.4,11.4,46.4,23.4L46.4,23.4z M25.9,22.3h17.9c-0.6-9.7-8.3-17.5-17.9-18.1V22.3z
		 M25.9,22.3"/>
	<path class="st2" d="M39.6,26.5c0.2,0.2,0.4,0.6,0.4,0.9c-0.1,10.5-8.7,19-19.2,19c-10.6,0-19.2-8.6-19.2-19.2
		c0-10.5,8.5-19.1,19-19.2c0.4,0,0.7,0.1,0.9,0.4c0.2,0.2,0.4,0.6,0.4,0.9v16.8h16.8C39,26.1,39.4,26.2,39.6,26.5L39.6,26.5z
		 M37.4,28.6H20.6c-0.7,0-1.3-0.6-1.3-1.3V10.6c-8.5,0.7-15.2,7.9-15.2,16.6c0,9.2,7.5,16.6,16.6,16.6
		C29.5,43.8,36.7,37.1,37.4,28.6L37.4,28.6z M37.4,28.6"/>
</g>
</svg>
