<?xml version="1.0" encoding="utf-8"?>
<!-- Generator: Adobe Illustrator 19.2.1, SVG Export Plug-In . SVG Version: 6.00 Build 0)  -->
<svg version="1.1"
	 id="svg4198" inkscape:output_extension="org.inkscape.output.svg.inkscape" inkscape:version="0.46" sodipodi:docbase="/home/tigert/cvs/freedesktop.org/tango-icon-theme/scalable/actions" sodipodi:docname="edit-copy.svg" sodipodi:version="0.32" xmlns:cc="http://creativecommons.org/ns#" xmlns:dc="http://purl.org/dc/elements/1.1/" xmlns:inkscape="http://www.inkscape.org/namespaces/inkscape" xmlns:rdf="http://www.w3.org/1999/02/22-rdf-syntax-ns#" xmlns:sodipodi="http://sodipodi.sourceforge.net/DTD/sodipodi-0.dtd" xmlns:svg="http://www.w3.org/2000/svg"
	 xmlns="http://www.w3.org/2000/svg" xmlns:xlink="http://www.w3.org/1999/xlink" x="0px" y="0px" viewBox="0 0 48 48"
	 style="enable-background:new 0 0 48 48;" xml:space="preserve">
<style type="text/css">
	.st0{fill:#A6D0F0;}
	.st1{fill:none;stroke:#2B5082;stroke-width:2;stroke-miterlimit:10;}
	.st2{fill:#FFFFFF;}
</style>
<defs>
	
	
		<inkscape:perspective  id="perspective45" inkscape:persp3d-origin="24 : 16 : 1" inkscape:vp_x="0 : 24 : 1" inkscape:vp_y="0 : 1000 : 0" inkscape:vp_z="48 : 24 : 1" sodipodi:type="inkscape:persp3d">
		</inkscape:perspective>
</defs>
<sodipodi:namedview  bordercolor="#bebebe" borderopacity="1.0000000" id="base" inkscape:current-layer="layer1" inkscape:cx="-57.902952" inkscape:cy="48.133585" inkscape:document-units="px" inkscape:grid-bbox="true" inkscape:pageopacity="0.0" inkscape:pageshadow="2" inkscape:showpageshadow="false" inkscape:window-height="699" inkscape:window-width="873" inkscape:window-x="264" inkscape:window-y="149" inkscape:zoom="1.4142136" pagecolor="#ffffff" showgrid="false">
	</sodipodi:namedview>
<g>
	<g>
		<path class="st0" d="M6.5,1.9h14.6L26.2,7v19.7c0,0.7-0.6,1.3-1.3,1.3H6.5c-0.7,0-1.3-0.6-1.3-1.3V3.2C5.2,2.5,5.8,1.9,6.5,1.9z"
			/>
		<polygon class="st0" points="20.5,1.9 20.5,7.6 26.2,7.6 		"/>
		<path class="st1" d="M5.2,3.2c0-0.7,0.6-1.3,1.3-1.3h14.6L26.2,7v19.7c0,0.7-0.6,1.3-1.3,1.3H6.5c-0.7,0-1.3-0.6-1.3-1.3V3.2z"/>
		<polyline class="st1" points="24.3,7.6 20.5,7.6 20.5,3.8 		"/>
	</g>
	<g>
		<path class="st2" d="M20.1,15.8h16.8l5.8,5.8v22.6c0,0.8-0.7,1.5-1.5,1.5H20.1c-0.8,0-1.5-0.7-1.5-1.5v-27
			C18.6,16.5,19.3,15.8,20.1,15.8z"/>
		<polygon class="st0" points="36.1,15.8 36.1,22.4 42.7,22.4 		"/>
		<path class="st1" d="M18.6,17.3c0-0.8,0.7-1.5,1.5-1.5h16.8l5.8,5.8v22.6c0,0.8-0.7,1.5-1.5,1.5H20.1c-0.8,0-1.5-0.7-1.5-1.5V17.3
			z"/>
		<polyline class="st1" points="40.5,22.4 36.1,22.4 36.1,18 		"/>
	</g>
</g>
</svg>
