<?xml version="1.0" encoding="utf-8"?>
<!-- Generator: Adobe Illustrator 19.2.1, SVG Export Plug-In . SVG Version: 6.00 Build 0)  -->
<svg version="1.1"
	 id="svg79606" inkscape:output_extension="org.inkscape.output.svg.inkscape" inkscape:version="0.46" sodipodi:docbase="/home/garrett/Source/tango-icon-theme/scalable/status" sodipodi:docname="mail-attachment.svg" sodipodi:version="0.32" xmlns:cc="http://creativecommons.org/ns#" xmlns:dc="http://purl.org/dc/elements/1.1/" xmlns:inkscape="http://www.inkscape.org/namespaces/inkscape" xmlns:rdf="http://www.w3.org/1999/02/22-rdf-syntax-ns#" xmlns:sodipodi="http://sodipodi.sourceforge.net/DTD/sodipodi-0.dtd" xmlns:svg="http://www.w3.org/2000/svg"
	 xmlns="http://www.w3.org/2000/svg" xmlns:xlink="http://www.w3.org/1999/xlink" x="0px" y="0px" viewBox="0 0 48 48"
	 style="enable-background:new 0 0 48 48;" xml:space="preserve">
<style type="text/css">
	.st0{fill:none;stroke:#888A85;stroke-width:3;stroke-linecap:round;stroke-linejoin:round;}
	.st1{fill:none;stroke:url(#path7053_1_);stroke-linecap:round;stroke-linejoin:round;}
	.st2{opacity:0.25;fill:url(#path3556_1_);enable-background:new    ;}
	.st3{fill:#FFFFFF;}
	.st4{fill:#A6D0F0;}
	.st5{fill:#2B5082;}
</style>
<defs>
	
	
		<inkscape:perspective  id="perspective20" inkscape:persp3d-origin="24 : 16 : 1" inkscape:vp_x="0 : 24 : 1" inkscape:vp_y="0 : 1000 : 0" inkscape:vp_z="48 : 24 : 1" sodipodi:type="inkscape:persp3d">
		</inkscape:perspective>
</defs>
<sodipodi:namedview  bordercolor="#666666" borderopacity="0.23529412" id="base" inkscape:current-layer="layer1" inkscape:cx="10.476522" inkscape:cy="24" inkscape:document-units="px" inkscape:grid-bbox="true" inkscape:pageopacity="0.0" inkscape:pageshadow="2" inkscape:showpageshadow="false" inkscape:window-height="818" inkscape:window-width="940" inkscape:window-x="0" inkscape:window-y="30" inkscape:zoom="11.979167" pagecolor="#ffffff" showgrid="true" stroke="#d3d7cf">
	
		<inkscape:grid  color="#0000ff" empcolor="#0000ff" empopacity="0.4" empspacing="4" id="GridFromPre046Settings" opacity="0.2" originx="0px" originy="0px" spacingx="1px" spacingy="1px" type="xygrid">
		</inkscape:grid>
</sodipodi:namedview>
<g id="layer1" inkscape:groupmode="layer" inkscape:label="Layer 1">
	<g id="g3902">
		<path id="path7057" inkscape:r_cx="true" inkscape:r_cy="true" class="st0" d="M21.8,10.4L10.9,29c-1.9,3.3-0.8,7.5,2.6,9.4
			l2.1,1.2c3.3,1.9,7.6,0.8,9.6-2.5L36.9,17c1.9-3.3,1.2-7.3-1.6-8.9c-2.8-1.6-6.6-0.2-8.6,3.1l-8.2,14c-1.9,3.3-2.1,6.8-0.5,7.7
			c1.7,1,4.6-0.9,6.5-4.2l4-6.8"/>
		
			<linearGradient id="path7053_1_" gradientUnits="userSpaceOnUse" x1="25.3855" y1="41.8883" x2="22.4845" y2="17.8044" gradientTransform="matrix(1 0 0 -1 0.494 49.0585)">
			<stop  offset="0" style="stop-color:#D3D7CF"/>
			<stop  offset="0.5" style="stop-color:#F5F5F5"/>
			<stop  offset="1" style="stop-color:#BEBEBE"/>
		</linearGradient>
		<path id="path7053" inkscape:r_cx="true" inkscape:r_cy="true" class="st1" d="M21.8,10.4L10.9,29c-1.9,3.3-0.8,7.5,2.6,9.4
			l2.1,1.2c3.3,1.9,7.6,0.8,9.6-2.5L36.9,17c1.9-3.3,1.2-7.3-1.6-8.9c-2.8-1.6-6.6-0.2-8.6,3.1l-8.2,14c-1.9,3.3-2.1,6.8-0.5,7.7
			c1.7,1,4.6-0.9,6.5-4.2l4-6.8"/>
	</g>
	
		<radialGradient id="path3556_1_" cx="-105.4348" cy="-2050.9236" r="15.5714" gradientTransform="matrix(1.2866 0 0 -0.1606 160.3902 -287.7768)" gradientUnits="userSpaceOnUse">
		<stop  offset="0" style="stop-color:#000000"/>
		<stop  offset="1" style="stop-color:#000000;stop-opacity:0"/>
	</radialGradient>
	
		<path id="path3556" inkscape:r_cx="true" inkscape:r_cy="true" sodipodi:cx="22.571428" sodipodi:cy="30.857143" sodipodi:rx="15.571428" sodipodi:ry="10.142858" sodipodi:type="arc" class="st2" d="
		M48,41.5c0,1.4-9.2,2.5-20.5,2.5S7,42.9,7,41.5c0-1.4,9.2-2.5,20.5-2.5S48,40.1,48,41.5z"/>
</g>
<g>
	<g>
		<path class="st3" d="M38.9,3.4H15.3l-6.7,6.7V43c0,0.9,0.8,1.7,1.7,1.7h28.6c0.9,0,1.7-0.8,1.7-1.7V5C40.6,4.1,39.8,3.4,38.9,3.4z
			"/>
	</g>
	<g>
		<polygon class="st4" points="8.5,10.9 16.1,10.9 16.1,3.4 		"/>
	</g>
	<g>
		<path class="st5" d="M38.9,45.6H10.2c-1.5,0-2.7-1.2-2.7-2.7V9.7l7.3-7.3h24c1.5,0,2.7,1.2,2.7,2.7v2.5h-2V5
			c0-0.4-0.3-0.7-0.7-0.7H15.7l-6.2,6.2V43c0,0.4,0.3,0.7,0.7,0.7h28.6c0.4,0,0.7-0.3,0.7-0.7v-7.6h2V43
			C41.6,44.4,40.4,45.6,38.9,45.6z"/>
	</g>
	<g>
		<polygon class="st5" points="17.1,11.9 11.1,11.9 11.1,9.9 15.1,9.9 15.1,5.9 17.1,5.9 		"/>
	</g>
	<g>
		<path class="st5" d="M26.9,41.4c-2.1,0-4.2-0.8-5.8-2.4c-3.2-3.2-3.2-8.3,0-11.5l16.4-16.4c2.2-2.2,5.9-2.2,8.2,0
			c2.2,2.2,2.2,5.9,0,8.2L29.3,35.7c-1.3,1.3-3.5,1.3-4.8,0c-1.3-1.3-1.3-3.5,0-4.8L41,14.5l1.4,1.4L26,32.3c-0.5,0.5-0.5,1.4,0,2
			c0.5,0.5,1.4,0.5,2,0l16.4-16.4c1.5-1.5,1.5-3.9,0-5.3c-1.5-1.5-3.9-1.5-5.3,0L22.6,28.9c-2.4,2.4-2.4,6.3,0,8.7
			c2.4,2.4,6.3,2.4,8.7,0l13.1-13l1.4,1.4L32.7,39C31.1,40.6,29,41.4,26.9,41.4z"/>
	</g>
</g>
</svg>
