<?xml version="1.0" encoding="utf-8"?>
<!-- Generator: Adobe Illustrator 19.2.1, SVG Export Plug-In . SVG Version: 6.00 Build 0)  -->
<svg version="1.1"
	 id="svg5816" inkscape:output_extension="org.inkscape.output.svg.inkscape" inkscape:version="0.48.0 r9654" sodipodi:docname="tryton-mail-message.svg" sodipodi:version="0.32" xmlns:cc="http://creativecommons.org/ns#" xmlns:dc="http://purl.org/dc/elements/1.1/" xmlns:inkscape="http://www.inkscape.org/namespaces/inkscape" xmlns:rdf="http://www.w3.org/1999/02/22-rdf-syntax-ns#" xmlns:sodipodi="http://sodipodi.sourceforge.net/DTD/sodipodi-0.dtd" xmlns:svg="http://www.w3.org/2000/svg"
	 xmlns="http://www.w3.org/2000/svg" xmlns:xlink="http://www.w3.org/1999/xlink" x="0px" y="0px" viewBox="0 0 48 48"
	 style="enable-background:new 0 0 48 48;" xml:space="preserve">
<style type="text/css">
	.st0{fill:#E8E9EA;}
	.st1{fill:#2B5082;}
</style>
<defs>
	
	
		<inkscape:perspective  id="perspective74" inkscape:persp3d-origin="24 : 16 : 1" inkscape:vp_x="0 : 24 : 1" inkscape:vp_y="0 : 1000 : 0" inkscape:vp_z="48 : 24 : 1" sodipodi:type="inkscape:persp3d">
		</inkscape:perspective>
</defs>
<sodipodi:namedview  bordercolor="#666666" borderopacity="1.0" id="base" inkscape:current-layer="layer1" inkscape:cx="26.443986" inkscape:cy="23.5" inkscape:document-units="px" inkscape:grid-bbox="true" inkscape:pageopacity="0.0" inkscape:pageshadow="2" inkscape:showpageshadow="false" inkscape:window-height="1024" inkscape:window-maximized="0" inkscape:window-width="1280" inkscape:window-x="0" inkscape:window-y="0" inkscape:zoom="12.791045" pagecolor="#ffffff" showgrid="false">
	</sodipodi:namedview>
<g>
	<polygon class="st0" points="41.4,11.8 8.1,11.8 24.7,27.2 	"/>
	<path class="st1" d="M44.7,9.2H4.8c-0.7,0-1.3,0.6-1.3,1.3v27.5c0,0.7,0.6,1.3,1.3,1.3h39.9c0.7,0,1.3-0.6,1.3-1.3V10.5
		C46,9.8,45.4,9.2,44.7,9.2z M41.4,11.8L24.7,27.2L8.1,11.8H41.4z M6.1,13.5l6.2,5.8l-6.2,5.9V13.5z M43.4,36.8H6.1v-8.1l8.1-7.7
		l9.6,8.9c0.2,0.2,0.6,0.3,0.9,0.3s0.6-0.1,0.9-0.3l9.6-8.9l7.9,7.5c0.1,0.1,0.1,0.1,0.2,0.1V36.8z M43.4,25.1l-6.2-5.9l6.2-5.8
		V25.1z"/>
</g>
</svg>
