<?xml version="1.0" encoding="utf-8"?>
<!-- Generator: Adobe Illustrator 19.2.1, SVG Export Plug-In . SVG Version: 6.00 Build 0)  -->
<svg version="1.1"
	 id="svg11300" inkscape:export-filename="/home/jimmac/Desktop/wi-fi.png" inkscape:export-xdpi="90.000000" inkscape:export-ydpi="90.000000" inkscape:output_extension="org.inkscape.output.svg.inkscape" inkscape:version="0.46" sodipodi:docbase="/home/tigert/cvs/freedesktop.org/tango-icon-theme/scalable/actions" sodipodi:docname="edit-undo.svg" sodipodi:version="0.32" xmlns:cc="http://creativecommons.org/ns#" xmlns:dc="http://purl.org/dc/elements/1.1/" xmlns:inkscape="http://www.inkscape.org/namespaces/inkscape" xmlns:rdf="http://www.w3.org/1999/02/22-rdf-syntax-ns#" xmlns:sodipodi="http://sodipodi.sourceforge.net/DTD/sodipodi-0.dtd" xmlns:svg="http://www.w3.org/2000/svg"
	 xmlns="http://www.w3.org/2000/svg" xmlns:xlink="http://www.w3.org/1999/xlink" x="0px" y="0px" viewBox="0 0 48 48"
	 style="enable-background:new 0 0 48 48;" xml:space="preserve">
<style type="text/css">
	.st0{fill:#A6D0F0;}
	.st1{fill:#2B5082;}
</style>
<defs>
	
	
		<inkscape:perspective  id="perspective31" inkscape:persp3d-origin="24 : 16 : 1" inkscape:vp_x="0 : 24 : 1" inkscape:vp_y="0 : 1000 : 0" inkscape:vp_z="48 : 24 : 1" sodipodi:type="inkscape:persp3d">
		</inkscape:perspective>
</defs>
<sodipodi:namedview  bordercolor="#666666" borderopacity="0.25490196" fill="#edd400" id="base" inkscape:current-layer="layer1" inkscape:cx="-19.855325" inkscape:cy="-15.183692" inkscape:document-units="px" inkscape:grid-bbox="true" inkscape:pageopacity="0.0" inkscape:pageshadow="2" inkscape:showpageshadow="false" inkscape:window-height="818" inkscape:window-width="891" inkscape:window-x="0" inkscape:window-y="30" inkscape:zoom="2.8284271" pagecolor="#ffffff" showgrid="false" stroke="#c4a000">
	</sodipodi:namedview>
<g>
	<g>
		<path class="st0" d="M41.5,25.2l0.7-0.5c-2.9-6.2-9.1-10.6-16.5-10.9c-5.7-0.2-11,2.2-14.6,6.1L7,17.1v17l16-6.7l-4.4-2.8
			c2.8-3.4,7-5.5,11.8-5.3C35,19.4,39,21.7,41.5,25.2z"/>
		<path class="st1" d="M6,15.2l5,3.4c4-3.9,9.3-6,14.8-5.8c7.5,0.3,14.1,4.7,17.3,11.4l0.4,0.8l-2.2,1.5l-0.6-0.8
			c-2.5-3.3-6.2-5.4-10.4-5.5l0,0c-3.9-0.2-7.5,1.3-10.2,4.1l5,3.2L6,35.6V15.2z M17.1,24.8l0.7-0.9c3.1-3.8,7.7-5.9,12.6-5.7l0,0
			c3,0.1,5.8,1.1,8.2,2.7c-3.2-3.7-7.8-5.9-12.8-6.1c-5.2-0.2-10.2,1.9-13.8,5.8l-0.6,0.6L8,19v13.6l12.8-5.4L17.1,24.8z"/>
	</g>
</g>
</svg>
