<?xml version="1.0" encoding="UTF-8" standalone="no"?>
<!-- Generator: Adobe Illustrator 19.2.1, SVG Export Plug-In . SVG Version: 6.00 Build 0)  -->

<svg
   xmlns:dc="http://purl.org/dc/elements/1.1/"
   xmlns:cc="http://creativecommons.org/ns#"
   xmlns:rdf="http://www.w3.org/1999/02/22-rdf-syntax-ns#"
   xmlns:svg="http://www.w3.org/2000/svg"
   xmlns="http://www.w3.org/2000/svg"
   xmlns:sodipodi="http://sodipodi.sourceforge.net/DTD/sodipodi-0.dtd"
   xmlns:inkscape="http://www.inkscape.org/namespaces/inkscape"
   version="1.1"
   id="svg11300"
   inkscape:export-filename="/home/jimmac/Desktop/wi-fi.png"
   inkscape:export-xdpi="90.000000"
   inkscape:export-ydpi="90.000000"
   inkscape:output_extension="org.inkscape.output.svg.inkscape"
   inkscape:version="0.48.4 r9939"
   sodipodi:docname="tryton-go-next.svg"
   sodipodi:version="0.32"
   x="0px"
   y="0px"
   viewBox="0 0 48 48"
   style="enable-background:new 0 0 48 48;"
   xml:space="preserve"
   width="100%"
   height="100%"><metadata
     id="metadata25"><rdf:RDF><cc:Work
         rdf:about=""><dc:format>image/svg+xml</dc:format><dc:type
           rdf:resource="http://purl.org/dc/dcmitype/StillImage" /><dc:title></dc:title></cc:Work></rdf:RDF></metadata><style
     type="text/css"
     id="style3">
	.st0{fill:#FFFFFF;}
</style><defs
     id="defs5"><inkscape:perspective
       id="perspective23"
       inkscape:persp3d-origin="24 : 16 : 1"
       inkscape:vp_x="0 : 24 : 1"
       inkscape:vp_y="0 : 1000 : 0"
       inkscape:vp_z="48 : 24 : 1"
       sodipodi:type="inkscape:persp3d" /></defs><sodipodi:namedview
     bordercolor="#666666"
     borderopacity="0.25490196"
     fill="#4e9a06"
     id="base"
     inkscape:current-layer="g15"
     inkscape:cx="2.7867745"
     inkscape:cy="27.398876"
     inkscape:document-units="px"
     inkscape:grid-bbox="true"
     inkscape:pageopacity="0.0"
     inkscape:pageshadow="2"
     inkscape:showpageshadow="false"
     inkscape:window-height="818"
     inkscape:window-width="1280"
     inkscape:window-x="335"
     inkscape:window-y="461"
     inkscape:zoom="11.313708"
     pagecolor="#ffffff"
     showgrid="false"
     stroke="#4e9a06"
     inkscape:window-maximized="0" /><defs
     id="defs9"><inkscape:perspective
       id="perspective11"
       inkscape:persp3d-origin="24 : 16 : 1"
       inkscape:vp_x="0 : 24 : 1"
       inkscape:vp_y="0 : 1000 : 0"
       inkscape:vp_z="48 : 24 : 1"
       sodipodi:type="inkscape:persp3d" /></defs><sodipodi:namedview
     bordercolor="#666666"
     borderopacity="0.25490196"
     fill="#4e9a06"
     id="namedview13"
     inkscape:current-layer="layer1"
     inkscape:cx="20.508639"
     inkscape:cy="27.398876"
     inkscape:document-units="px"
     inkscape:grid-bbox="true"
     inkscape:pageopacity="0.0"
     inkscape:pageshadow="2"
     inkscape:showpageshadow="false"
     inkscape:window-height="818"
     inkscape:window-width="1280"
     inkscape:window-x="0"
     inkscape:window-y="30"
     inkscape:zoom="11.313708"
     pagecolor="#ffffff"
     showgrid="false"
     stroke="#4e9a06" /><g
     id="g15"
     style="fill:#000000"><g
       id="g17"
       style="fill:#000000"><path
         inkscape:connector-curvature="0"
         style="fill:#2b5082;fill-opacity:1"
         id="path21"
         d="M 44.3,6.8 C 43.3,3.9 41,3.6 38.4,3.6 H 9 c -2.7,0 -4.8,1 -5.3,3.8 0,0.1 -0.1,0.3 -0.1,0.4 0,0.1 0,0.2 0,0.4 v 16 c 0,5.4 -0.5,11.2 0.1,16.5 0.4,3.1 3.2,3.6 5.7,3.6 h 29.7 c 2.6,0 5.4,-1.1 5.4,-4.3 V 12.3 c 0,-1.6 0.4,-3.9 -0.2,-5.5 l 0,0 z m -2.8,5.8 v 27.5 c 0,2.1 -5.1,1.3 -6.1,1.3 H 7.9 C 5.8,41.4 6.6,36.3 6.6,35.3 V 7.9 C 6.8,5.8 11.5,6.6 12.7,6.6 h 27.5 c 2.1,-0.1 1.3,5.1 1.3,6 l 0,0 z"
         class="st0" /></g><path
       class="st0"
       d="M27,16.6c-1.3-1.3-3.4,0.7-2.1,2.1c1.3,1.3,2.6,2.6,3.8,3.8c-3,0-10.1,0-13,0c-1.9,0-1.9,2.9,0,2.9   c3,0,10,0,13,0l-3.8,3.8c-1.3,1.3,0.7,3.4,2.1,2.1l6.3-6.3c0.6-0.6,0.6-1.5,0-2.1C31.2,20.9,29.1,18.7,27,16.6L27,16.6z"
       id="path23"
       style="fill:#a3d4ff;fill-opacity:1" /></g></svg>