<?xml version="1.0" encoding="utf-8"?>
<!-- Generator: Adobe Illustrator 19.2.1, SVG Export Plug-In . SVG Version: 6.00 Build 0)  -->
<svg version="1.1"
	 id="svg4198" inkscape:output_extension="org.inkscape.output.svg.inkscape" inkscape:version="0.46" sodipodi:docbase="/home/jimmac/src/cvs/tango-icon-theme/scalable/actions" sodipodi:docname="format-justify-fill.svg" sodipodi:version="0.32" xmlns:cc="http://creativecommons.org/ns#" xmlns:dc="http://purl.org/dc/elements/1.1/" xmlns:inkscape="http://www.inkscape.org/namespaces/inkscape" xmlns:rdf="http://www.w3.org/1999/02/22-rdf-syntax-ns#" xmlns:sodipodi="http://sodipodi.sourceforge.net/DTD/sodipodi-0.dtd" xmlns:svg="http://www.w3.org/2000/svg"
	 xmlns="http://www.w3.org/2000/svg" xmlns:xlink="http://www.w3.org/1999/xlink" x="0px" y="0px" viewBox="0 0 48 48"
	 style="enable-background:new 0 0 48 48;" xml:space="preserve">
<style type="text/css">
	.st0{fill:#FFFFFF;}
	.st1{fill:#A6D0F0;}
	.st2{fill:#2B5082;}
</style>
<defs>
	
	
		<inkscape:perspective  id="perspective49" inkscape:persp3d-origin="24 : 16 : 1" inkscape:vp_x="0 : 24 : 1" inkscape:vp_y="0 : 1000 : 0" inkscape:vp_z="48 : 24 : 1" sodipodi:type="inkscape:persp3d">
		</inkscape:perspective>
</defs>
<sodipodi:namedview  bordercolor="#bebebe" borderopacity="1.0000000" id="base" inkscape:current-layer="layer1" inkscape:cx="50.477879" inkscape:cy="12.80998" inkscape:document-units="px" inkscape:grid-bbox="true" inkscape:pageopacity="0.0" inkscape:pageshadow="2" inkscape:showpageshadow="false" inkscape:window-height="818" inkscape:window-width="1280" inkscape:window-x="154" inkscape:window-y="30" inkscape:zoom="4" pagecolor="#ffffff" showgrid="true">
	</sodipodi:namedview>
<g>
	<g>
		<g>
			<path class="st0" d="M39.2,44.6H9.9c-1.1,0-2-0.9-2-2V5.5c0-1.1,0.9-2,2-2h23.4l7.8,7.8v31.3C41.1,43.7,40.3,44.6,39.2,44.6z"/>
		</g>
		<g>
			<polygon class="st1" points="32.4,3.6 32.4,12.4 41.1,12.4 			"/>
		</g>
		<g>
			<path class="st2" d="M39.2,45.6H9.9c-1.6,0-2.9-1.3-2.9-2.9V5.5c0-1.6,1.3-2.9,2.9-2.9h23.9l8.4,8.4v31.7
				C42.1,44.3,40.8,45.6,39.2,45.6z M9.9,4.5c-0.5,0-1,0.4-1,1v37.1c0,0.5,0.4,1,1,1h29.3c0.5,0,1-0.4,1-1V11.8l-7.2-7.2H9.9z"/>
		</g>
		<g>
			<polygon class="st2" points="38.2,13.3 31.4,13.3 31.4,6.5 33.3,6.5 33.3,11.4 38.2,11.4 			"/>
		</g>
	</g>
	<g>
		<rect x="20.1" y="18.2" class="st2" width="15.1" height="2"/>
	</g>
	<g>
		<rect x="14.1" y="18.2" class="st2" width="3" height="2"/>
	</g>
	<g>
		<rect x="20.1" y="22.1" class="st2" width="15.1" height="2"/>
	</g>
	<g>
		<rect x="14.1" y="22.1" class="st2" width="3" height="2"/>
	</g>
	<g>
		<rect x="20.1" y="26" class="st2" width="15.1" height="2"/>
	</g>
	<g>
		<rect x="14.1" y="26" class="st2" width="3" height="2"/>
	</g>
	<g>
		<rect x="20.1" y="29.9" class="st2" width="15.1" height="2"/>
	</g>
	<g>
		<rect x="14.1" y="29.9" class="st2" width="3" height="2"/>
	</g>
	<g>
		<rect x="20.1" y="33.8" class="st2" width="15.1" height="2"/>
	</g>
	<g>
		<rect x="14.1" y="33.8" class="st2" width="3" height="2"/>
	</g>
</g>
</svg>
