<?xml version="1.0" encoding="utf-8"?>
<!-- Generator: Adobe Illustrator 19.2.1, SVG Export Plug-In . SVG Version: 6.00 Build 0)  -->
<svg version="1.1"
	 id="svg2913" inkscape:output_extension="org.inkscape.output.svg.inkscape" inkscape:version="0.46" sodipodi:docbase="/home/jimmac/src/cvs/tango-icon-theme/scalable/actions" sodipodi:docname="document-save.svg" sodipodi:version="0.32" xmlns:cc="http://creativecommons.org/ns#" xmlns:dc="http://purl.org/dc/elements/1.1/" xmlns:inkscape="http://www.inkscape.org/namespaces/inkscape" xmlns:rdf="http://www.w3.org/1999/02/22-rdf-syntax-ns#" xmlns:sodipodi="http://sodipodi.sourceforge.net/DTD/sodipodi-0.dtd" xmlns:svg="http://www.w3.org/2000/svg"
	 xmlns="http://www.w3.org/2000/svg" xmlns:xlink="http://www.w3.org/1999/xlink" x="0px" y="0px" viewBox="0 0 48 48"
	 style="enable-background:new 0 0 48 48;" xml:space="preserve">
<style type="text/css">
	.st0{fill:#A6D0F0;}
	.st1{fill:#2B5082;}
</style>
<defs>
	
	
		<inkscape:perspective  id="perspective104" inkscape:persp3d-origin="24 : 16 : 1" inkscape:vp_x="0 : 24 : 1" inkscape:vp_y="0 : 1000 : 0" inkscape:vp_z="48 : 24 : 1" sodipodi:type="inkscape:persp3d">
		</inkscape:perspective>
</defs>
<sodipodi:namedview  bordercolor="#666666" borderopacity="0.22745098" fill="#3465a4" id="base" inkscape:current-layer="layer2" inkscape:cx="-133.68151" inkscape:cy="11.891468" inkscape:document-units="px" inkscape:grid-bbox="true" inkscape:pageopacity="0.0" inkscape:pageshadow="2" inkscape:showpageshadow="false" inkscape:window-height="818" inkscape:window-width="999" inkscape:window-x="0" inkscape:window-y="30" inkscape:zoom="1" pagecolor="#ffffff" showgrid="false" stroke="#204a87">
	</sodipodi:namedview>
<g>
	<path class="st0" d="M35.3,7.4v9.9H12V7.4H7.7v33.9h2.8V25.8h26.9v15.5h2.8V12.4C40.3,9.7,38,7.5,35.3,7.4z"/>
	<path class="st1" d="M35.3,6L35.3,6l-29,0v36.7h35.3V12.4C41.7,8.9,38.8,6,35.3,6z M13.4,7.4h20.5v8.5H13.4V7.4z M36,41.3H12V27.2
		h24V41.3z M40.3,41.3h-2.8V25.8H10.6v15.5H7.7V7.4H12v9.9h23.3V7.4c2.7,0,4.9,2.3,4.9,5V41.3z"/>
	<path class="st1" d="M14.1,15.2h4.9V8.1h-4.9V15.2z M15.5,9.5h2.1v4.2h-2.1V9.5z"/>
</g>
</svg>
