<?xml version="1.0" encoding="utf-8"?>
<!-- Generator: Adobe Illustrator 19.2.1, SVG Export Plug-In . SVG Version: 6.00 Build 0)  -->
<svg version="1.1"
	 id="svg19655" inkscape:export-filename="/home/jimmac/Desktop/poing.png" inkscape:export-xdpi="392.72742" inkscape:export-ydpi="392.72742" inkscape:output_extension="org.inkscape.output.svg.inkscape" inkscape:version="0.46" sodipodi:docbase="/home/garrett/Source/tango-icon-theme/scalable/status" sodipodi:docname="dialog-information.svg" sodipodi:version="0.32" xmlns:cc="http://creativecommons.org/ns#" xmlns:dc="http://purl.org/dc/elements/1.1/" xmlns:inkscape="http://www.inkscape.org/namespaces/inkscape" xmlns:rdf="http://www.w3.org/1999/02/22-rdf-syntax-ns#" xmlns:sodipodi="http://sodipodi.sourceforge.net/DTD/sodipodi-0.dtd" xmlns:svg="http://www.w3.org/2000/svg"
	 xmlns="http://www.w3.org/2000/svg" xmlns:xlink="http://www.w3.org/1999/xlink" x="0px" y="0px" viewBox="0 0 48 48"
	 style="enable-background:new 0 0 48 48;" xml:space="preserve">
<style type="text/css">
	.st0{fill:#BBBFC3;}
	.st1{fill:#A6D0F0;}
	.st2{fill:#2B5082;}
</style>
<defs>
	
	
		<inkscape:perspective  id="perspective155" inkscape:persp3d-origin="24 : 16 : 1" inkscape:vp_x="0 : 24 : 1" inkscape:vp_y="0 : 1000 : 0" inkscape:vp_z="48 : 24 : 1" sodipodi:type="inkscape:persp3d">
		</inkscape:perspective>
</defs>
<sodipodi:namedview  bordercolor="#666666" borderopacity="0.55294118" id="base" inkscape:current-layer="layer1" inkscape:cx="-132.96706" inkscape:cy="19.729332" inkscape:document-units="px" inkscape:grid-bbox="true" inkscape:pageopacity="0.0" inkscape:pageshadow="2" inkscape:showpageshadow="false" inkscape:window-height="818" inkscape:window-width="1060" inkscape:window-x="0" inkscape:window-y="30" inkscape:zoom="1" pagecolor="#ffffff" showgrid="true">
	
		<inkscape:grid  color="#0000ff" empcolor="#0000ff" empopacity="0.4" empspacing="4" id="GridFromPre046Settings" opacity="0.2" originx="0px" originy="0px" spacingx="1px" spacingy="1px" type="xygrid">
		</inkscape:grid>
</sodipodi:namedview>
<g>
	<g>
		<g>
			<rect x="18.1" y="0.3" transform="matrix(0.9659 -0.2588 0.2588 0.9659 0.2644 5.0116)" class="st0" width="2.1" height="2.3"/>
		</g>
		<g>
			<rect x="10.9" y="4.6" transform="matrix(0.7071 -0.7071 0.7071 0.7071 -0.5784 10.153)" class="st0" width="2.1" height="2.3"/>
		</g>
		<g>
			
				<rect x="6.8" y="11.9" transform="matrix(0.2589 -0.9659 0.9659 0.2589 -6.8038 17.2877)" class="st0" width="2.1" height="2.3"/>
		</g>
		<g>
			<rect x="6.8" y="20.4" transform="matrix(0.9659 -0.2588 0.2588 0.9659 -5.2812 2.7919)" class="st0" width="2.3" height="2.1"/>
		</g>
		<g>
			
				<rect x="11.1" y="27.6" transform="matrix(0.7071 -0.7071 0.7071 0.7071 -16.6801 17.0458)" class="st0" width="2.3" height="2.1"/>
		</g>
		<g>
			
				<rect x="34.1" y="27.2" transform="matrix(0.7071 -0.7071 0.7071 0.7071 -9.787 33.1474)" class="st0" width="2.1" height="2.3"/>
		</g>
		<g>
			<rect x="38.2" y="19.9" transform="matrix(0.2587 -0.966 0.966 0.2587 8.7077 53.5166)" class="st0" width="2.1" height="2.3"/>
		</g>
		<g>
			<rect x="38" y="11.7" transform="matrix(0.9659 -0.2588 0.2588 0.9659 -1.9563 10.5587)" class="st0" width="2.3" height="2.1"/>
		</g>
		<g>
			<rect x="33.7" y="4.5" transform="matrix(0.7071 -0.7071 0.7071 0.7071 6.3147 26.2546)" class="st0" width="2.3" height="2.1"/>
		</g>
		<g>
			
				<rect x="26.4" y="0.4" transform="matrix(0.2588 -0.9659 0.9659 0.2588 19.0619 27.6473)" class="st0" width="2.3" height="2.1"/>
		</g>
	</g>
	<g>
		<path class="st1" d="M24.3,5.1C17,4.8,11,10.5,11,17.7c0,3.5,1.4,6.6,3.7,8.9c1.5,1.5,2.4,3.5,2.4,5.7v1.6h13.1v-1.6
			c0-2.1,0.8-4.1,2.3-5.5c2.3-2.3,3.8-5.5,3.8-9C36.3,11.1,30.9,5.4,24.3,5.1z"/>
	</g>
	<g>
		<path class="st2" d="M31.2,33.8h-2.1v-1.6c0-2.4,1-4.7,2.6-6.3c2.2-2.2,3.5-5.1,3.5-8.2c0-6.1-4.9-11.3-11-11.6
			C21,6,18,7.1,15.7,9.3c-2.3,2.2-3.6,5.2-3.6,8.4c0,3.1,1.2,6,3.4,8.1c1.8,1.8,2.7,4,2.7,6.4v1.6h-2.1v-1.6c0-1.8-0.7-3.5-2.1-4.9
			c-2.6-2.6-4-6-4-9.6c0-3.8,1.5-7.3,4.2-9.9c2.7-2.6,6.3-3.9,10.1-3.8c7.2,0.3,13,6.5,13,13.7c0,3.7-1.5,7.1-4.1,9.7
			c-1.3,1.2-2,3-2,4.8V33.8z"/>
	</g>
	<g>
		<path class="st2" d="M16.2,14.2l-1.9-0.8c1.3-2.9,3.9-5,7-5.7l0.4,2.1C19.3,10.3,17.2,11.9,16.2,14.2z"/>
	</g>
	<g>
		<path class="st2" d="M15.6,17.3h-2.1c0-0.7,0.1-1.3,0.2-2l2.1,0.4C15.6,16.2,15.6,16.8,15.6,17.3z"/>
	</g>
	<g>
		<polygon class="st2" points="25.4,46.2 21.9,46.2 20.2,44.4 18.9,44.4 18.9,42.3 21,42.3 22.8,44.1 24.5,44.1 26.3,42.3 
			28.4,42.3 28.4,44.4 27.1,44.4 		"/>
	</g>
	<g>
		<rect x="16.3" y="35.4" class="st2" width="14.8" height="2.1"/>
	</g>
	<g>
		<rect x="16.3" y="38.9" class="st2" width="14.8" height="2.1"/>
	</g>
</g>
</svg>
