<?xml version="1.0" encoding="utf-8"?>
<!-- Generator: Adobe Illustrator 19.2.1, SVG Export Plug-In . SVG Version: 6.00 Build 0)  -->
<svg version="1.1"
	 id="svg249" inkscape:export-filename="/home/steven/edit-find-48.png" inkscape:export-xdpi="90.000000" inkscape:export-ydpi="90.000000" inkscape:output_extension="org.inkscape.output.svg.inkscape" inkscape:version="0.46" sodipodi:docbase="/home/jimmac/src/cvs/tango-icon-theme/scalable/actions" sodipodi:docname="edit-find.svg" sodipodi:version="0.32" xmlns:cc="http://creativecommons.org/ns#" xmlns:dc="http://purl.org/dc/elements/1.1/" xmlns:inkscape="http://www.inkscape.org/namespaces/inkscape" xmlns:rdf="http://www.w3.org/1999/02/22-rdf-syntax-ns#" xmlns:sodipodi="http://sodipodi.sourceforge.net/DTD/sodipodi-0.dtd" xmlns:svg="http://www.w3.org/2000/svg"
	 xmlns="http://www.w3.org/2000/svg" xmlns:xlink="http://www.w3.org/1999/xlink" x="0px" y="0px" viewBox="0 0 48 48"
	 style="enable-background:new 0 0 48 48;" xml:space="preserve">
<style type="text/css">
	.st0{fill:#FFFFFF;}
	.st1{fill:#2B5082;}
	.st2{fill:#A6D0F0;}
</style>
<defs>
	
	
		<inkscape:perspective  id="perspective113" inkscape:persp3d-origin="24 : 16 : 1" inkscape:vp_x="0 : 24 : 1" inkscape:vp_y="0 : 1000 : 0" inkscape:vp_z="48 : 24 : 1" sodipodi:type="inkscape:persp3d">
		</inkscape:perspective>
</defs>
<sodipodi:namedview  bordercolor="#666666" borderopacity="0.25490196" id="base" inkscape:current-layer="layer6" inkscape:cx="25.938708" inkscape:cy="14.980943" inkscape:document-units="px" inkscape:grid-bbox="true" inkscape:pageopacity="0.0" inkscape:pageshadow="2" inkscape:showpageshadow="false" inkscape:window-height="818" inkscape:window-width="1016" inkscape:window-x="418" inkscape:window-y="30" inkscape:zoom="1" pagecolor="#ffffff" showgrid="true">
	</sodipodi:namedview>
<g>
	<g>
		
			<rect x="34.2" y="28.3" transform="matrix(0.7071 -0.7071 0.7071 0.7071 -15.0884 36.3954)" class="st0" width="4.3" height="16.3"/>
		<path class="st1" d="M40.6,44.8L28,32.2l4.1-4.1l12.6,12.6L40.6,44.8z M30.2,32.2l10.4,10.4l2-2L32.2,30.2L30.2,32.2z"/>
	</g>
	<g>
		<g>
			
				<rect x="29.1" y="26.2" transform="matrix(0.7071 -0.7071 0.7071 0.7071 -11.3084 29.4369)" class="st1" width="1.5" height="4.3"/>
		</g>
		<g>
			
				<rect x="27.6" y="27.7" transform="matrix(0.7071 -0.7071 0.7071 0.7071 -12.8397 28.7954)" class="st1" width="1.5" height="4.3"/>
		</g>
	</g>
	<g>
		<g>
			<circle class="st2" cx="18" cy="17.3" r="14.2"/>
			<path class="st1" d="M18,32.2c-8.2,0-14.9-6.7-14.9-14.9C3.1,9,9.8,2.3,18,2.3c8.2,0,14.9,6.7,14.9,14.9l0,0
				C32.9,25.5,26.2,32.2,18,32.2z M18,3.9c-7.4,0-13.4,6-13.4,13.4s6,13.4,13.4,13.4s13.4-6,13.4-13.4C31.4,9.9,25.4,3.9,18,3.9z"/>
		</g>
		<g>
			<circle class="st0" cx="18" cy="17.3" r="11.1"/>
			<path class="st1" d="M18,29.1c-6.5,0-11.9-5.3-11.9-11.9c0-3.2,1.2-6.2,3.5-8.4c2.2-2.2,5.2-3.5,8.4-3.5c0,0,0,0,0,0
				c6.5,0,11.9,5.3,11.9,11.9S24.5,29.1,18,29.1z M18,6.9c-2.8,0-5.4,1.1-7.3,3c-2,2-3,4.6-3,7.3c0,5.7,4.6,10.3,10.3,10.3
				c5.7,0,10.3-4.6,10.3-10.3S23.7,6.9,18,6.9L18,6.9z"/>
		</g>
	</g>
	<g>
		<g>
			<path class="st1" d="M10.9,15.5l-1.5-0.4c0.9-3.8,4.3-6.5,8.1-6.7l0.1,1.5C14.5,10.1,11.7,12.4,10.9,15.5z"/>
		</g>
		<g>
			<path class="st1" d="M9.4,19.4c-0.2-0.7-0.3-1.4-0.3-2.1h1.5c0,0.6,0.1,1.2,0.2,1.7L9.4,19.4z"/>
		</g>
	</g>
</g>
</svg>
