<?xml version="1.0" encoding="utf-8"?>
<!-- Generator: Adobe Illustrator 19.2.1, SVG Export Plug-In . SVG Version: 6.00 Build 0)  -->
<svg version="1.1"
	 id="svg57" inkscape:output_extension="org.inkscape.output.svg.inkscape" inkscape:version="0.46" sodipodi:docbase="/home/jimmac/src/cvs/tango-icon-theme/scalable/actions" sodipodi:docname="edit-delete.svg" sodipodi:version="0.32" xmlns:cc="http://creativecommons.org/ns#" xmlns:dc="http://purl.org/dc/elements/1.1/" xmlns:inkscape="http://www.inkscape.org/namespaces/inkscape" xmlns:rdf="http://www.w3.org/1999/02/22-rdf-syntax-ns#" xmlns:sodipodi="http://sodipodi.sourceforge.net/DTD/sodipodi-0.dtd" xmlns:svg="http://www.w3.org/2000/svg"
	 xmlns="http://www.w3.org/2000/svg" xmlns:xlink="http://www.w3.org/1999/xlink" x="0px" y="0px" viewBox="0 0 48 48"
	 style="enable-background:new 0 0 48 48;" xml:space="preserve">
<style type="text/css">
	.st0{fill:#A3D4FF;}
	.st1{fill:#2A5082;}
	.st2{fill:#FFFFFF;}
</style>
<g>
	<defs>
		
		
			<inkscape:perspective  id="perspective141" inkscape:persp3d-origin="24 : 16 : 1" inkscape:vp_x="0 : 24 : 1" inkscape:vp_y="0 : 1000 : 0" inkscape:vp_z="48 : 24 : 1" sodipodi:type="inkscape:persp3d">
			</inkscape:perspective>
	</defs>
	
		<sodipodi:namedview  bordercolor="#666" borderopacity="0.13333333" id="base" inkscape:current-layer="layer1" inkscape:cx="-117.40141" inkscape:cy="39.043402" inkscape:document-units="px" inkscape:grid-bbox="true" inkscape:grid-points="true" inkscape:guide-bbox="false" inkscape:object-bbox="false" inkscape:object-nodes="true" inkscape:object-paths="false" inkscape:object-points="false" inkscape:pageopacity="0.0" inkscape:pageshadow="2" inkscape:showpageshadow="false" inkscape:window-height="688" inkscape:window-width="872" inkscape:window-x="562" inkscape:window-y="156" inkscape:zoom="1" pagecolor="#ffffff" showborder="true" showgrid="false">
		
			<inkscape:grid  color="#0000ff" empcolor="#0000ff" empopacity="0.4" empspacing="4" id="GridFromPre046Settings" opacity="0.2" originx="0px" originy="0px" spacingx="1px" spacingy="1px" type="xygrid">
			</inkscape:grid>
	</sodipodi:namedview>
	<g>
		<g>
			<path class="st0" d="M41.9,15.1h-2.1v5H8.3v-5H6.1C5,15.1,4,16,4,17.2v12.1h40V17.2C44,16,43,15.1,41.9,15.1z"/>
		</g>
		<g>
			<path class="st1" d="M44.7,30.1H3.3V17.2c0-1.6,1.3-2.9,2.9-2.9h2.1v1.4H6.1c-0.8,0-1.4,0.6-1.4,1.4v11.4h38.6V17.2
				c0-0.8-0.6-1.4-1.4-1.4h-2.1v-1.4h2.1c1.6,0,2.9,1.3,2.9,2.9V30.1z"/>
		</g>
		<g>
			<path class="st1" d="M43.3,9.4h-5V7.9h3.6V7.8c0-1.1-0.9-2.1-2.1-2.1h-2.9V4.3h2.9c1.9,0,3.5,1.6,3.5,3.5V9.4z"/>
		</g>
		<g>
			<path class="st2" d="M14,5.1c-1.6,0-2.9,1.3-2.9,2.9v14.3h25.7V7.9c0-1.7,1.2-2.9,2.9-2.9H14z"/>
			<path class="st1" d="M37.6,22.9H10.4v-15c0-2,1.6-3.6,3.6-3.6h25.7v1.4c-1.3,0-2.1,0.9-2.1,2.1V22.9z M11.9,21.5h24.3V7.9
				c0-0.8,0.2-1.6,0.7-2.1H14c-1.2,0-2.1,1-2.1,2.1V21.5z"/>
		</g>
		<g>
			<rect x="6.9" y="21.5" class="st1" width="34.3" height="1.4"/>
		</g>
		<g>
			<rect x="6.9" y="24.4" class="st1" width="1.4" height="1.4"/>
		</g>
		<g>
			<polygon class="st1" points="9,20.1 7.6,20.1 7.6,10.8 9.7,10.8 9.7,12.2 9,12.2 			"/>
		</g>
		<g>
			<polygon class="st1" points="40.4,20.1 39,20.1 39,12.2 38.3,12.2 38.3,10.8 40.4,10.8 			"/>
		</g>
		<g>
			<rect x="17.6" y="10.1" class="st1" width="12.1" height="1.4"/>
		</g>
		<g>
			<rect x="17.6" y="12.9" class="st1" width="12.1" height="1.4"/>
		</g>
		<g>
			<rect x="17.6" y="15.8" class="st1" width="7.1" height="1.4"/>
		</g>
		<g>
			<rect x="10.4" y="31.5" class="st1" width="1.4" height="8.6"/>
		</g>
		<g>
			<rect x="14.7" y="31.5" class="st1" width="1.4" height="6.4"/>
		</g>
		<g>
			<rect x="19" y="31.5" class="st1" width="1.4" height="2.1"/>
		</g>
		<g>
			<rect x="23.3" y="31.5" class="st1" width="1.4" height="7.1"/>
		</g>
		<g>
			<rect x="27.6" y="31.5" class="st1" width="1.4" height="7.9"/>
		</g>
		<g>
			<rect x="31.9" y="31.5" class="st1" width="1.4" height="2.9"/>
		</g>
		<g>
			<rect x="36.1" y="31.5" class="st1" width="1.4" height="9.3"/>
		</g>
		<g>
			<rect x="31.9" y="35.8" class="st1" width="1.4" height="1.4"/>
		</g>
		<g>
			<rect x="19" y="35.1" class="st1" width="1.4" height="1.4"/>
		</g>
		<g>
			<rect x="27.6" y="40.8" class="st1" width="1.4" height="1.4"/>
		</g>
		<g>
			<rect x="14.7" y="39.4" class="st1" width="1.4" height="1.4"/>
		</g>
		<g>
			<rect x="14.7" y="42.2" class="st1" width="1.4" height="1.4"/>
		</g>
	</g>
</g>
</svg>
