<?xml version="1.0" encoding="utf-8"?>
<!-- Generator: Adobe Illustrator 19.2.1, SVG Export Plug-In . SVG Version: 6.00 Build 0)  -->
<svg version="1.1"
	 id="svg249" inkscape:export-filename="/home/jimmac/gfx/novell/pdes/trunk/docs/BIGmime-text.png" inkscape:export-xdpi="240.00000" inkscape:export-ydpi="240.00000" inkscape:output_extension="org.inkscape.output.svg.inkscape" inkscape:version="0.48.1 r9760" sodipodi:docname="tryton-print-open.svg" sodipodi:version="0.32" xmlns:cc="http://creativecommons.org/ns#" xmlns:dc="http://purl.org/dc/elements/1.1/" xmlns:inkscape="http://www.inkscape.org/namespaces/inkscape" xmlns:rdf="http://www.w3.org/1999/02/22-rdf-syntax-ns#" xmlns:sodipodi="http://sodipodi.sourceforge.net/DTD/sodipodi-0.dtd" xmlns:svg="http://www.w3.org/2000/svg"
	 xmlns="http://www.w3.org/2000/svg" xmlns:xlink="http://www.w3.org/1999/xlink" x="0px" y="0px" viewBox="0 0 48 48"
	 style="enable-background:new 0 0 48 48;" xml:space="preserve">
<style type="text/css">
	.st0{fill:#FFFFFF;}
	.st1{fill:#2B5082;}
	.st2{fill:#A6D0F0;}
</style>
<defs>
	
	
		<inkscape:perspective  id="perspective69" inkscape:persp3d-origin="24 : 16 : 1" inkscape:vp_x="0 : 24 : 1" inkscape:vp_y="0 : 1000 : 0" inkscape:vp_z="48 : 24 : 1" sodipodi:type="inkscape:persp3d">
		</inkscape:perspective>
</defs>
<sodipodi:namedview  bordercolor="#666666" borderopacity="0.32941176" id="base" inkscape:current-layer="layer4" inkscape:cx="13.867684" inkscape:cy="22.33948" inkscape:document-units="px" inkscape:grid-bbox="true" inkscape:pageopacity="0.0" inkscape:pageshadow="2" inkscape:showpageshadow="false" inkscape:window-height="588" inkscape:window-maximized="0" inkscape:window-width="652" inkscape:window-x="166" inkscape:window-y="151" inkscape:zoom="5.6568542" pagecolor="#ffffff" showgrid="false">
	</sodipodi:namedview>
<g id="layer6" inkscape:groupmode="layer" inkscape:label="Shadow">
</g>
<g id="layer1" inkscape:groupmode="layer" inkscape:label="Base">
</g>
<g>
	<g>
		<path class="st0" d="M42.4,22.3h-2.3H7.4H5.1c-1.3,0-2.3,1-2.3,2.3v17.5h41.9V24.6C44.7,23.4,43.7,22.3,42.4,22.3z"/>
	</g>
	<g>
		<path class="st1" d="M45.4,42.9H2.1V24.6c0-1.7,1.4-3,3-3h2.3v1.5H5.1c-0.8,0-1.5,0.7-1.5,1.5v16.7h40.3V24.6
			c0-0.8-0.7-1.5-1.5-1.5h-2.3v-1.5h2.3c1.7,0,3,1.4,3,3V42.9z"/>
	</g>
	<g>
		<path class="st1" d="M43.9,13.2h-4.6v-1.5h3c0-1.3-1-2.3-2.3-2.3h-3V7.9h3c2.1,0,3.8,1.7,3.8,3.8V13.2z"/>
	</g>
	<g>
		<path class="st0" d="M13.5,8.7c-1.7,0-3,1.4-3,3V30h26.6V11.7c0-1.7,1.4-3,3-3H13.5z"/>
		<path class="st1" d="M37.8,30.7H9.7v-19c0-2.1,1.7-3.8,3.8-3.8h26.6v1.5c-1.3,0-2.3,1-2.3,2.3V30.7z M11.2,29.2h25.1V11.7
			c0-0.9,0.3-1.6,0.8-2.3H13.5c-1.3,0-2.3,1-2.3,2.3V29.2z"/>
	</g>
	<g>
		<rect x="5.9" y="29.2" class="st1" width="35.8" height="1.5"/>
	</g>
	<g>
		<path class="st2" d="M37.1,42.1H10.4v-2.3c0-1.7,1.3-3,3-3h20.6c1.7,0,3,1.3,3,3V42.1z"/>
		<path class="st1" d="M37.8,42.9H9.7v-3.8c0-1.7,1.4-3,3-3h22.1c1.7,0,3,1.4,3,3V42.9z M11.2,41.4h25.1v-2.3c0-0.8-0.7-1.5-1.5-1.5
			H12.7c-0.8,0-1.5,0.7-1.5,1.5V41.4z"/>
	</g>
	<g>
		<rect x="5.9" y="38.3" class="st1" width="1.5" height="1.5"/>
	</g>
	<g>
		<rect x="5.9" y="35.3" class="st1" width="1.5" height="1.5"/>
	</g>
	<g>
		<rect x="5.9" y="32.2" class="st1" width="1.5" height="1.5"/>
	</g>
	<g>
		<polygon class="st1" points="8.2,27.7 6.6,27.7 6.6,17.8 8.9,17.8 8.9,19.3 8.2,19.3 		"/>
	</g>
	<g>
		<polygon class="st1" points="40.9,27.7 39.4,27.7 39.4,19.3 38.6,19.3 38.6,17.8 40.9,17.8 		"/>
	</g>
</g>
</svg>
