<?xml version="1.0" encoding="utf-8"?>
<!-- Generator: Adobe Illustrator 19.2.1, SVG Export Plug-In . SVG Version: 6.00 Build 0)  -->
<svg version="1.1"
	 id="svg13684" inkscape:output_extension="org.inkscape.output.svg.inkscape" inkscape:version="0.48.0 r9654" sodipodi:docname="x-office-spreadsheet.svg" sodipodi:version="0.32" xmlns:cc="http://creativecommons.org/ns#" xmlns:dc="http://purl.org/dc/elements/1.1/" xmlns:inkscape="http://www.inkscape.org/namespaces/inkscape" xmlns:rdf="http://www.w3.org/1999/02/22-rdf-syntax-ns#" xmlns:sodipodi="http://sodipodi.sourceforge.net/DTD/sodipodi-0.dtd" xmlns:svg="http://www.w3.org/2000/svg"
	 xmlns="http://www.w3.org/2000/svg" xmlns:xlink="http://www.w3.org/1999/xlink" x="0px" y="0px" viewBox="0 0 48 48"
	 style="enable-background:new 0 0 48 48;" xml:space="preserve">
<style type="text/css">
	.st0{fill:#A6D0F0;}
	.st1{fill:#FFFFFF;}
	.st2{fill:#2B5082;}
</style>
<defs>
	
	
		<inkscape:perspective  id="perspective114" inkscape:persp3d-origin="24 : 16 : 1" inkscape:vp_x="0 : 24 : 1" inkscape:vp_y="0 : 1000 : 0" inkscape:vp_z="48 : 24 : 1" sodipodi:type="inkscape:persp3d">
		</inkscape:perspective>
</defs>
<sodipodi:namedview  bordercolor="#666666" borderopacity="1.0" id="base" inkscape:current-layer="layer2" inkscape:cx="24" inkscape:cy="24" inkscape:document-units="px" inkscape:grid-bbox="true" inkscape:grid-points="true" inkscape:pageopacity="0.0" inkscape:pageshadow="2" inkscape:showpageshadow="false" inkscape:window-height="1007" inkscape:window-maximized="0" inkscape:window-width="1278" inkscape:window-x="0" inkscape:window-y="15" inkscape:zoom="16.5" pagecolor="#ffffff" showgrid="false">
	</sodipodi:namedview>
<g>
	<rect x="7.4" y="13.3" class="st0" width="9.5" height="7.1"/>
	<rect x="7.4" y="22.8" class="st1" width="9.5" height="7.3"/>
	<rect x="7.4" y="32.3" class="st1" width="9.5" height="7.1"/>
	<rect x="19.3" y="22.8" class="st1" width="9.5" height="7.3"/>
	<rect x="19.3" y="32.3" class="st1" width="9.5" height="7.1"/>
	<rect x="31.1" y="13.3" class="st0" width="9.5" height="7.1"/>
	<rect x="31.1" y="22.8" class="st1" width="9.5" height="7.3"/>
	<rect x="19.3" y="13.3" class="st0" width="9.5" height="7.1"/>
	<rect x="31.1" y="32.3" class="st1" width="9.5" height="7.1"/>
	<path class="st2" d="M40.6,6.2H7.4c-1.2,0-2.2,1-2.3,2.3h0v31c0,1.3,1.1,2.4,2.4,2.4h33.2c1.3,0,2.4-1.1,2.4-2.4v-31h0
		C42.8,7.2,41.9,6.2,40.6,6.2z M16.9,39.4H7.4v-7.1h9.5V39.4z M16.9,30.1H7.4v-7.3h9.5V30.1z M16.9,20.4H7.4v-7.1h9.5V20.4z
		 M28.7,39.4h-9.5v-7.1h9.5V39.4z M28.7,30.1h-9.5v-7.3h9.5V30.1z M28.7,20.4h-9.5v-7.1h9.5V20.4z M40.6,39.4h-9.5v-7.1h9.5V39.4z
		 M40.6,30.1h-9.5v-7.3h9.5V30.1z M40.6,20.4h-9.5v-7.1h9.5V20.4z"/>
</g>
</svg>
