<?xml version="1.0" encoding="utf-8"?>
<!-- Generator: Adobe Illustrator 19.2.1, SVG Export Plug-In . SVG Version: 6.00 Build 0)  -->
<svg version="1.1"
	 id="svg11300" inkscape:export-filename="/home/jimmac/Desktop/wi-fi.png" inkscape:export-xdpi="90.000000" inkscape:export-ydpi="90.000000" inkscape:output_extension="org.inkscape.output.svg.inkscape" inkscape:version="0.48.0 r9654" sodipodi:docname="tryton-clock.svg" sodipodi:version="0.32" xmlns:cc="http://creativecommons.org/ns#" xmlns:dc="http://purl.org/dc/elements/1.1/" xmlns:inkscape="http://www.inkscape.org/namespaces/inkscape" xmlns:rdf="http://www.w3.org/1999/02/22-rdf-syntax-ns#" xmlns:sodipodi="http://sodipodi.sourceforge.net/DTD/sodipodi-0.dtd" xmlns:svg="http://www.w3.org/2000/svg"
	 xmlns="http://www.w3.org/2000/svg" xmlns:xlink="http://www.w3.org/1999/xlink" x="0px" y="0px" viewBox="0 0 48 48"
	 style="enable-background:new 0 0 48 48;" xml:space="preserve">
<style type="text/css">
	.st0{fill:#FFFFFF;}
	.st1{fill:#2B5082;}
	.st2{fill:#A6D0F0;}
</style>
<defs>
	
	
		<inkscape:perspective  id="perspective59" inkscape:persp3d-origin="24 : 16 : 1" inkscape:vp_x="0 : 24 : 1" inkscape:vp_y="0 : 1000 : 0" inkscape:vp_z="48 : 24 : 1" sodipodi:type="inkscape:persp3d">
		</inkscape:perspective>
</defs>
<sodipodi:namedview  bordercolor="#666666" borderopacity="0.25490196" fill="#babdb6" id="base" inkscape:current-layer="layer1" inkscape:cx="-2.3315499" inkscape:cy="25.106052" inkscape:document-units="px" inkscape:grid-bbox="true" inkscape:pageopacity="0.0" inkscape:pageshadow="2" inkscape:showpageshadow="false" inkscape:window-height="1007" inkscape:window-maximized="0" inkscape:window-width="1278" inkscape:window-x="0" inkscape:window-y="15" inkscape:zoom="11.313708" pagecolor="#ffffff" showgrid="false" stroke="#c4a000">
	</sodipodi:namedview>
<g>
	<path class="st0" d="M10.5,38.5L10.5,38.5c0.7,0.8,1.5,1.6,2.3,2.3l0.1,0.1c0.8,0.6,1.6,1.2,2.5,1.7c0.1,0.1,0.2,0.1,0.4,0.2
		c0.4,0.2,0.8,0.4,1.2,0.6c0.1,0,0.2,0.1,0.3,0.1c0.4,0.2,0.8,0.3,1.2,0.4c0.2,0.1,0.3,0.1,0.5,0.2c0.4,0.1,0.8,0.2,1.2,0.3
		c0.1,0,0.2,0,0.3,0.1c0.5,0.1,0.9,0.2,1.4,0.2c0.1,0,0.3,0,0.4,0c0.5,0,1,0.1,1.6,0.1c9.6,0,17.5-7.8,17.5-17.5S33.6,9.9,24,9.9
		c-0.5,0-1.1,0-1.6,0.1c-0.1,0-0.2,0-0.4,0c-5.8,0.7-10.7,4.1-13.3,9l-0.1,0.1c-1.3,2.5-2.1,5.3-2.1,8.2C6.5,31.6,8,35.4,10.5,38.5z
		 M24,12.8c8,0,14.5,6.5,14.5,14.5S32,41.9,24,41.9c-3.7,0-7.3-1.4-10-4l1.2-1.3c2.4,2.3,5.5,3.5,8.8,3.5c7,0,12.8-5.7,12.8-12.8
		S31,14.6,24,14.6c-3.3,0-6.4,1.3-8.8,3.6L14,16.9C16.6,14.2,20.2,12.8,24,12.8z M23.6,17.5c2.4,0,4.6,0.9,6.3,2.3l1.1-1.1l1.3,1.2
		l-1.1,1.2c1.4,1.7,2.2,3.9,2.2,6.3c0,5.4-4.4,9.8-9.8,9.8s-9.8-4.4-9.8-9.8C13.7,21.9,18.1,17.5,23.6,17.5z"/>
	<path class="st1" d="M20.3,44.4c-0.4-0.1-0.8-0.2-1.2-0.3C19.5,44.2,19.9,44.3,20.3,44.4z"/>
	<path class="st1" d="M22,44.7c-0.5-0.1-0.9-0.1-1.4-0.2C21.1,44.6,21.5,44.6,22,44.7z"/>
	<path class="st1" d="M18.6,43.9c-0.4-0.1-0.8-0.3-1.2-0.4C17.8,43.7,18.2,43.8,18.6,43.9z"/>
	<path class="st1" d="M24,44.8c-0.5,0-1.1,0-1.6-0.1C23,44.8,23.5,44.8,24,44.8z"/>
	<path class="st1" d="M10.5,38.5c0.7,0.8,1.5,1.6,2.3,2.3C12,40.1,11.2,39.3,10.5,38.5z"/>
	<path class="st1" d="M22,10c-5.6,0.6-10.6,3.9-13.3,9C11.4,14.1,16.3,10.7,22,10z"/>
	<path class="st1" d="M15.5,42.6c-0.9-0.5-1.8-1.1-2.5-1.7C13.8,41.5,14.6,42.1,15.5,42.6z"/>
	<path class="st1" d="M17.1,43.4c-0.4-0.2-0.8-0.4-1.2-0.6C16.3,43,16.7,43.2,17.1,43.4z"/>
	<path class="st1" d="M22.4,10c0.5,0,1.1-0.1,1.6-0.1C23.5,9.9,22.9,9.9,22.4,10z"/>
	<path class="st1" d="M7,18.3c0-0.1,0.1-0.1,0.1-0.2C7.1,18.2,7.1,18.2,7,18.3z"/>
	<path class="st1" d="M20.2,46.2c-0.1,0-0.2-0.1-0.3-0.1C20,46.2,20.1,46.2,20.2,46.2z"/>
	<path class="st1" d="M22.3,46.5c-0.2,0-0.3,0-0.5,0C22,46.5,22.1,46.5,22.3,46.5z"/>
	<path class="st1" d="M15,44.4c-0.1-0.1-0.3-0.1-0.4-0.2C14.8,44.2,14.9,44.3,15,44.4z"/>
	<path class="st1" d="M9.2,39.6C9.2,39.6,9.1,39.6,9.2,39.6C9.1,39.6,9.2,39.6,9.2,39.6z"/>
	<path class="st1" d="M21.8,8.2c0.1,0,0.3,0,0.4,0C22.1,8.2,22,8.2,21.8,8.2z"/>
	<path class="st1" d="M16.7,45.2c-0.1-0.1-0.2-0.1-0.4-0.2C16.5,45.1,16.6,45.1,16.7,45.2z"/>
	<path class="st1" d="M8.1,38.1C8,38.1,8,38.1,8.1,38.1C8,38.1,8,38.1,8.1,38.1z"/>
	<path class="st1" d="M18.6,45.8c-0.2-0.1-0.4-0.1-0.6-0.2C18.2,45.7,18.4,45.8,18.6,45.8z"/>
	<path class="st1" d="M11.8,42.3c-0.1,0-0.1-0.1-0.2-0.1C11.7,42.2,11.8,42.2,11.8,42.3z"/>
	<path class="st1" d="M24,8.1c-0.6,0-1.2,0-1.8,0.1c-0.1,0-0.3,0-0.4,0c-3.7,0.4-7.1,1.8-9.9,4.1l0.6,0.6l-1.3,1.3l-0.7-0.7
		C9.1,14.8,8,16.4,7,18.1c0,0.1-0.1,0.1-0.1,0.2c-0.1,0.2-0.2,0.4-0.3,0.6l0,0l1.6,0.8c0.1-0.2,0.2-0.4,0.3-0.6L8.6,19
		c2.8-5,7.7-8.3,13.3-9c0.1,0,0.2,0,0.4,0c0.5,0,1.1-0.1,1.6-0.1c9.6,0,17.5,7.8,17.5,17.5S33.6,44.8,24,44.8c-0.5,0-1,0-1.6-0.1
		c-0.1,0-0.3,0-0.4,0c-0.5-0.1-0.9-0.1-1.4-0.2c-0.1,0-0.2,0-0.3-0.1c-0.4-0.1-0.8-0.2-1.2-0.3c-0.2,0-0.3-0.1-0.5-0.2
		c-0.4-0.1-0.8-0.3-1.2-0.4c-0.1,0-0.2-0.1-0.3-0.1c-0.4-0.2-0.8-0.4-1.2-0.6c-0.1-0.1-0.2-0.1-0.4-0.2c-0.9-0.5-1.8-1.1-2.5-1.7
		l-0.1-0.1c-0.8-0.7-1.6-1.5-2.3-2.3l0,0c-0.7-0.8-1.3-1.7-1.8-2.6l-1.5,0.9l0,0c0.3,0.5,0.5,0.9,0.8,1.4l0,0c0.3,0.5,0.7,1,1.1,1.4
		l0,0c0.8,0.9,1.6,1.8,2.5,2.5c0.1,0,0.1,0.1,0.2,0.1c0.9,0.7,1.8,1.3,2.8,1.9c0.1,0.1,0.3,0.1,0.4,0.2c0.4,0.2,0.9,0.4,1.3,0.6
		c0.1,0.1,0.2,0.1,0.4,0.2c0.4,0.2,0.9,0.3,1.3,0.5c0.2,0.1,0.4,0.1,0.6,0.2c0.4,0.1,0.9,0.2,1.3,0.3c0.1,0,0.2,0.1,0.3,0.1
		c0.5,0.1,1,0.2,1.6,0.2c0.2,0,0.3,0,0.5,0c0.6,0.1,1.1,0.1,1.7,0.1c10.6,0,19.2-8.6,19.2-19.2S34.6,8.1,24,8.1z"/>
	<path class="st1" d="M24,14.6c7,0,12.8,5.7,12.8,12.8S31,40.1,24,40.1c-3.3,0-6.4-1.2-8.8-3.5L14,37.9c2.7,2.6,6.3,4,10,4
		c8,0,14.5-6.5,14.5-14.5S32,12.8,24,12.8c-3.8,0-7.4,1.4-10.1,4.1l1.2,1.3C17.6,15.9,20.7,14.6,24,14.6z"/>
	<path class="st2" d="M23.6,37.2c5.4,0,9.8-4.4,9.8-9.8c0-2.4-0.8-4.6-2.2-6.3l-4.3,4.5c0.3,0.5,0.5,1.1,0.5,1.7
		c0,1.9-1.5,3.4-3.4,3.4s-3.4-1.5-3.4-3.4s1.5-3.4,3.4-3.4c0.6,0,1.1,0.2,1.6,0.4l4.3-4.6c-1.7-1.4-3.9-2.3-6.3-2.3
		c-5.4,0-9.8,4.4-9.8,9.8C13.7,32.8,18.1,37.2,23.6,37.2z"/>
	<rect x="25.3" y="6.8" class="st1" width="1.8" height="1.8"/>
	<rect x="20.9" y="6.8" class="st1" width="1.8" height="1.8"/>
	<polygon class="st2" points="27.1,5 28,5 28,3.2 20,3.2 20,5 20.9,5 	"/>
	<path class="st1" d="M22.7,6.8h2.7h1.8h2.7V1.4H18.2v5.4h2.7H22.7z M20,3.2h8V5h-0.9h-6.3H20V3.2z"/>
	<path class="st1" d="M26.9,25.6l4.3-4.5l1.1-1.2L31,18.7l-1.1,1.1l-4.3,4.6C26.1,24.7,26.6,25.1,26.9,25.6z"/>
	<circle class="st2" cx="24" cy="27.4" r="1.6"/>
	<path class="st1" d="M25.6,24.4c-0.5-0.2-1-0.4-1.6-0.4c-1.9,0-3.4,1.5-3.4,3.4s1.5,3.4,3.4,3.4s3.4-1.5,3.4-3.4
		c0-0.6-0.2-1.2-0.5-1.7C26.6,25.1,26.1,24.7,25.6,24.4z M24,28.9c-0.9,0-1.6-0.7-1.6-1.6s0.7-1.6,1.6-1.6s1.6,0.7,1.6,1.6
		C25.6,28.2,24.9,28.9,24,28.9z"/>
	<polygon class="st1" points="10.2,10.6 10.9,11.2 11.9,10.2 10.6,8.9 7.3,12.2 8.6,13.5 9.6,12.5 9,11.9 	"/>
	<polygon class="st1" points="11.3,14.2 12.5,12.9 12,12.3 10.9,11.2 10.2,10.6 9,11.9 9.6,12.5 10.6,13.5 	"/>
</g>
</svg>
