<?xml version="1.0" encoding="utf-8"?>
<!-- Generator: Adobe Illustrator 19.2.1, SVG Export Plug-In . SVG Version: 6.00 Build 0)  -->
<svg version="1.1"
	 id="svg97" inkscape:export-filename="/home/jimmac/ximian_art/icons/nautilus/snowdunes/gnome-fs-directory-accept.png" inkscape:export-xdpi="90.000000" inkscape:export-ydpi="90.000000" inkscape:output_extension="org.inkscape.output.svg.inkscape" inkscape:version="0.46" sodipodi:docbase="/home/jimmac/src/cvs/tango-icon-theme/scalable/actions" sodipodi:docname="document-open.svg" sodipodi:version="0.32" xmlns:cc="http://creativecommons.org/ns#" xmlns:dc="http://purl.org/dc/elements/1.1/" xmlns:inkscape="http://www.inkscape.org/namespaces/inkscape" xmlns:rdf="http://www.w3.org/1999/02/22-rdf-syntax-ns#" xmlns:sodipodi="http://sodipodi.sourceforge.net/DTD/sodipodi-0.dtd" xmlns:svg="http://www.w3.org/2000/svg"
	 xmlns="http://www.w3.org/2000/svg" xmlns:xlink="http://www.w3.org/1999/xlink" x="0px" y="0px" viewBox="0 0 48 48"
	 style="enable-background:new 0 0 48 48;" xml:space="preserve">
<style type="text/css">
	.st0{fill:#2B5082;}
	.st1{fill:#A6D0F0;}
</style>
<defs>
	
	
		<inkscape:perspective  id="perspective90" inkscape:persp3d-origin="24 : 16 : 1" inkscape:vp_x="0 : 24 : 1" inkscape:vp_y="0 : 1000 : 0" inkscape:vp_z="48 : 24 : 1" sodipodi:type="inkscape:persp3d">
		</inkscape:perspective>
</defs>
<sodipodi:namedview  bordercolor="#666666" borderopacity="1.0" id="base" inkscape:current-layer="layer3" inkscape:cx="-123.73861" inkscape:cy="37.388301" inkscape:document-units="px" inkscape:grid-bbox="true" inkscape:pageopacity="0.0" inkscape:pageshadow="2" inkscape:showpageshadow="false" inkscape:window-height="818" inkscape:window-width="1027" inkscape:window-x="407" inkscape:window-y="30" inkscape:zoom="1" pagecolor="#ffffff" showgrid="false">
	</sodipodi:namedview>
<g id="layer1" inkscape:groupmode="layer" inkscape:label="Folder">
</g>
<g>
	<g>
		<polygon class="st0" points="9.1,31.4 7.5,30.9 11.2,19.3 45,19.3 45,21.3 37.9,28.3 36.7,27.2 42.8,21 12.5,21 		"/>
	</g>
	<g>
		<path class="st1" d="M22.8,11.6V9.9l-3.4-3.5H1.5v34c0,0.9,0.7,1.7,1.7,1.7H31c0.7,0,1.5-0.5,2-1.1l13.6-12.5V26H31.4l-3.5,2.5H17
			L6.2,38.8H4.9V11.6H22.8z"/>
		<path class="st0" d="M31,43.1H3.2c-1.4,0-2.5-1.2-2.5-2.5v-35h19.1l3.9,3.9v3H5.7v25.5l10.9-10.2h11l3.4-2.5h16.4V29L33.7,41.7
			C33.2,42.3,32.3,43.1,31,43.1z M2.4,7.4v33.2c0,0.4,0.4,0.8,0.8,0.8H31c0.4,0,0.9-0.3,1.4-0.8l13.3-12.3v-1.4H31.6l-3.4,2.5H17.3
			L6.5,39.6H4V10.7H22v-0.5l-3-3H2.4V7.4z"/>
	</g>
	<g>
		<polygon class="st0" points="37.1,20.5 35.7,19.6 40.5,12.4 18.6,12.4 18.6,10.7 42.4,10.7 42.4,12.6 		"/>
	</g>
</g>
</svg>
