<?xml version="1.0" encoding="utf-8"?>
<!-- Generator: Adobe Illustrator 19.2.1, SVG Export Plug-In . SVG Version: 6.00 Build 0)  -->
<svg version="1.1"
	 id="svg3617" inkscape:version="0.48.0 r9654" sodipodi:docname="tryton-lock.svg" xmlns:cc="http://creativecommons.org/ns#" xmlns:dc="http://purl.org/dc/elements/1.1/" xmlns:inkscape="http://www.inkscape.org/namespaces/inkscape" xmlns:rdf="http://www.w3.org/1999/02/22-rdf-syntax-ns#" xmlns:sodipodi="http://sodipodi.sourceforge.net/DTD/sodipodi-0.dtd" xmlns:svg="http://www.w3.org/2000/svg"
	 xmlns="http://www.w3.org/2000/svg" xmlns:xlink="http://www.w3.org/1999/xlink" x="0px" y="0px" viewBox="0 0 15.5 19"
	 style="enable-background:new 0 0 15.5 19;" xml:space="preserve">
<style type="text/css">
	.st0{fill:#A6D0F0;}
	.st1{fill:#2B5082;}
</style>
<sodipodi:namedview  bordercolor="#666666" borderopacity="1.0" fit-margin-bottom="0" fit-margin-left="0" fit-margin-right="0" fit-margin-top="0" id="base" inkscape:current-layer="layer1" inkscape:cx="7.7417992" inkscape:cy="9.4874297" inkscape:document-units="px" inkscape:pageopacity="0.0" inkscape:pageshadow="2" inkscape:window-height="1007" inkscape:window-maximized="0" inkscape:window-width="702" inkscape:window-x="598" inkscape:window-y="10" inkscape:zoom="36.877716" pagecolor="#ffffff" showgrid="false">
	</sodipodi:namedview>
<g>
	<path class="st0" d="M3.1,17.3h9.3V9.7H3.1V17.3z M7.7,11.3c0.7,0,1.2,0.5,1.2,1.2c0,0.3-0.1,0.6-0.3,0.8l0.2,1.3
		c0,0.1,0,0.2-0.1,0.3c-0.1,0.1-0.2,0.1-0.3,0.1H7c-0.1,0-0.2,0-0.3-0.1c-0.1-0.1-0.1-0.2-0.1-0.3l0.2-1.3c-0.2-0.2-0.4-0.5-0.4-0.9
		C6.5,11.9,7.1,11.3,7.7,11.3z M3.6,12.2c0-0.2,0.2-0.3,0.3-0.3c0.2,0,0.3,0.2,0.3,0.3v0.6c0,0.2-0.2,0.3-0.3,0.3
		c-0.2,0-0.3-0.2-0.3-0.3V12.2z M3.6,14c0-0.2,0.2-0.3,0.3-0.3c0.2,0,0.3,0.2,0.3,0.3v2.4c0,0.2-0.2,0.3-0.3,0.3
		c-0.2,0-0.3-0.2-0.3-0.3V14z"/>
	<path class="st1" d="M12.7,9h-0.6V5.4c0-2.4-2-4.4-4.4-4.4C5.3,1,3.4,3,3.4,5.4v2.3C3.4,7.9,3.5,8,3.7,8h1.5c0.2,0,0.3-0.2,0.3-0.3
		V5.4c0-1.2,1-2.2,2.2-2.2c1.2,0,2.2,1,2.2,2.2V9H2.7C2.6,9,2.4,9.2,2.4,9.3v8.3c0,0.2,0.2,0.3,0.3,0.3h10c0.2,0,0.3-0.2,0.3-0.3
		V9.3C13.1,9.2,12.9,9,12.7,9z M7.7,2.5c-1.6,0-2.9,1.3-2.9,2.9v2H4.1v-2c0-2,1.7-3.7,3.7-3.7c2,0,3.7,1.7,3.7,3.7V9h-0.8V5.4
		C10.6,3.8,9.3,2.5,7.7,2.5z M12.4,17.3H3.1V9.7h9.3V17.3z"/>
	<path class="st1" d="M6.7,14.7c0,0.1,0,0.2,0.1,0.3C6.8,15,6.9,15.1,7,15.1h1.5c0.1,0,0.2,0,0.3-0.1c0.1-0.1,0.1-0.2,0.1-0.3
		l-0.2-1.3C8.8,13.2,9,12.9,9,12.6c0-0.7-0.5-1.2-1.2-1.2c-0.7,0-1.2,0.5-1.2,1.2c0,0.3,0.1,0.6,0.4,0.9L6.7,14.7z M7.7,12
		c0.3,0,0.5,0.2,0.5,0.5c0,0.2-0.1,0.3-0.2,0.4c-0.1,0.1-0.2,0.2-0.1,0.3l0.2,1.1H7.4l0.2-1.1c0-0.1,0-0.3-0.1-0.3
		c-0.2-0.1-0.2-0.3-0.2-0.4C7.2,12.3,7.4,12,7.7,12z"/>
	<path class="st1" d="M3.9,16.8c0.2,0,0.3-0.2,0.3-0.3V14c0-0.2-0.2-0.3-0.3-0.3c-0.2,0-0.3,0.2-0.3,0.3v2.4
		C3.6,16.7,3.7,16.8,3.9,16.8z"/>
	<path class="st1" d="M3.9,13.1c0.2,0,0.3-0.2,0.3-0.3v-0.6c0-0.2-0.2-0.3-0.3-0.3c-0.2,0-0.3,0.2-0.3,0.3v0.6
		C3.6,13,3.7,13.1,3.9,13.1z"/>
</g>
</svg>
