<?xml version="1.0" encoding="utf-8"?>
<!-- Generator: Adobe Illustrator 19.2.1, SVG Export Plug-In . SVG Version: 6.00 Build 0)  -->
<svg version="1.1"
	 id="svg11300" inkscape:export-filename="/home/jimmac/Desktop/wi-fi.png" inkscape:export-xdpi="90.000000" inkscape:export-ydpi="90.000000" inkscape:output_extension="org.inkscape.output.svg.inkscape" inkscape:version="0.46" sodipodi:docbase="/home/tigert/cvs/freedesktop.org/tango-icon-theme/scalable/actions" sodipodi:docname="go-jump.svg" sodipodi:version="0.32" xmlns:cc="http://creativecommons.org/ns#" xmlns:dc="http://purl.org/dc/elements/1.1/" xmlns:inkscape="http://www.inkscape.org/namespaces/inkscape" xmlns:rdf="http://www.w3.org/1999/02/22-rdf-syntax-ns#" xmlns:sodipodi="http://sodipodi.sourceforge.net/DTD/sodipodi-0.dtd" xmlns:svg="http://www.w3.org/2000/svg"
	 xmlns="http://www.w3.org/2000/svg" xmlns:xlink="http://www.w3.org/1999/xlink" x="0px" y="0px" viewBox="0 0 48 48"
	 style="enable-background:new 0 0 48 48;" xml:space="preserve">
<style type="text/css">
	.st0{fill:#A6D0F0;}
	.st1{fill:#2B5082;}
</style>
<defs>
	
	
		<inkscape:perspective  id="perspective26" inkscape:persp3d-origin="24 : 16 : 1" inkscape:vp_x="0 : 24 : 1" inkscape:vp_y="0 : 1000 : 0" inkscape:vp_z="48 : 24 : 1" sodipodi:type="inkscape:persp3d">
		</inkscape:perspective>
</defs>
<sodipodi:namedview  bordercolor="#666666" borderopacity="0.25490196" fill="#8ae234" id="base" inkscape:current-layer="layer1" inkscape:cx="30.109761" inkscape:cy="46.696516" inkscape:document-units="px" inkscape:grid-bbox="true" inkscape:pageopacity="0.0" inkscape:pageshadow="2" inkscape:showpageshadow="false" inkscape:window-height="688" inkscape:window-width="872" inkscape:window-x="0" inkscape:window-y="160" inkscape:zoom="4" pagecolor="#ffffff" showgrid="false" stroke="#8ae234">
	</sodipodi:namedview>
<g>
	<g>
		<path class="st0" d="M18.4,19.1c4.7-0.2,9,1.9,11.8,5.3l-4.4,2.8l16,6.7v-17l-4.1,2.8c-3.6-3.8-8.9-6.3-14.6-6.1
			c-7.3,0.3-13.5,4.7-16.5,10.9L7.2,25C9.7,21.6,13.8,19.2,18.4,19.1z"/>
		<path class="st1" d="M42.7,35.4l-19.2-8l5-3.2c-2.7-2.8-6.3-4.3-10.2-4.1l0,0c-4.1,0.2-7.9,2.2-10.4,5.5l-0.6,0.8l-2.2-1.5
			l0.4-0.8c3.2-6.8,9.8-11.2,17.3-11.4c5.5-0.2,10.8,1.9,14.8,5.8l5-3.4V35.4z M27.9,27l12.8,5.4V18.8L37.4,21l-0.6-0.6
			c-3.6-3.8-8.7-6-13.8-5.8c-5,0.2-9.6,2.4-12.8,6.1c2.4-1.6,5.2-2.6,8.2-2.7l0,0c4.9-0.2,9.5,1.9,12.6,5.7l0.7,0.9L27.9,27z"/>
	</g>
</g>
</svg>
