<?xml version="1.0" encoding="utf-8"?>
<!-- Generator: Adobe Illustrator 19.2.1, SVG Export Plug-In . SVG Version: 6.00 Build 0)  -->
<svg version="1.1"
	 id="svg249" inkscape:export-filename="/home/garrett/edit-find-replace-16.png" inkscape:export-xdpi="30" inkscape:export-ydpi="30" inkscape:output_extension="org.inkscape.output.svg.inkscape" inkscape:version="0.46" sodipodi:docbase="/home/jimmac/src/cvs/tango-icon-theme/scalable/actions" sodipodi:docname="edit-find-replace.svg" sodipodi:version="0.32" xmlns:cc="http://creativecommons.org/ns#" xmlns:dc="http://purl.org/dc/elements/1.1/" xmlns:inkscape="http://www.inkscape.org/namespaces/inkscape" xmlns:rdf="http://www.w3.org/1999/02/22-rdf-syntax-ns#" xmlns:sodipodi="http://sodipodi.sourceforge.net/DTD/sodipodi-0.dtd" xmlns:svg="http://www.w3.org/2000/svg"
	 xmlns="http://www.w3.org/2000/svg" xmlns:xlink="http://www.w3.org/1999/xlink" x="0px" y="0px" viewBox="0 0 48 48"
	 style="enable-background:new 0 0 48 48;" xml:space="preserve">
<style type="text/css">
	.st0{fill:#2B5082;}
	.st1{fill:#A6D0F0;}
	.st2{fill:#FFFFFF;}
</style>
<defs>
	
	
		<inkscape:perspective  id="perspective144" inkscape:persp3d-origin="24 : 16 : 1" inkscape:vp_x="0 : 24 : 1" inkscape:vp_y="0 : 1000 : 0" inkscape:vp_z="48 : 24 : 1" sodipodi:type="inkscape:persp3d">
		</inkscape:perspective>
</defs>
<sodipodi:namedview  bordercolor="#434343" borderlayer="true" borderopacity="0.59607843" id="base" inkscape:current-layer="layer6" inkscape:cx="38.123818" inkscape:cy="-7.874336" inkscape:document-units="px" inkscape:grid-bbox="true" inkscape:pageopacity="0.0" inkscape:pageshadow="2" inkscape:showpageshadow="false" inkscape:window-height="705" inkscape:window-width="1102" inkscape:window-x="59" inkscape:window-y="126" inkscape:zoom="1" pagecolor="#ffffff" showgrid="true">
	</sodipodi:namedview>
<g>
	<g>
		<path class="st0" d="M4.4,16.6L2.9,15c-1.1-1.1-1.1-3,0-4.1L3,10.7c1.1-1.1,3-1.1,4.1,0l1.6,1.6l-1.4,1.4l-1.6-1.6
			c-0.4-0.4-1-0.4-1.4,0l-0.2,0.2c-0.4,0.4-0.4,1,0,1.4l1.6,1.6L4.4,16.6z"/>
	</g>
	<g>
		<polygon class="st1" points="4.6,16.4 30,41.8 37.9,45.7 33.9,37.9 8.5,12.4 		"/>
		<path class="st0" d="M37.9,46.7c-0.1,0-0.3,0-0.4-0.1l-7.8-3.9c-0.1,0-0.2-0.1-0.3-0.2L3.9,17c-0.4-0.4-0.4-1,0-1.4l3.9-3.9
			c0.4-0.4,1-0.4,1.4,0l25.4,25.4c0.1,0.1,0.1,0.2,0.2,0.3l3.9,7.8c0.2,0.4,0.1,0.8-0.2,1.1C38.4,46.6,38.1,46.7,37.9,46.7z
			 M30.6,41l5.1,2.5l-2.5-5.1L8.5,13.8L6,16.4L30.6,41z"/>
	</g>
	<g>
		<line class="st2" x1="33.9" y1="37.9" x2="30" y2="41.8"/>
		<rect x="29.2" y="38.8" transform="matrix(0.7071 -0.7071 0.7071 0.7071 -18.7847 34.2857)" class="st0" width="5.5" height="2"/>
	</g>
	<g>
		<rect x="3.2" y="17.8" transform="matrix(0.7071 -0.7071 0.7071 0.7071 -10.9383 11.1955)" class="st0" width="9.7" height="2"/>
	</g>
	<g>
		<rect x="5.6" y="17.3" transform="matrix(0.7071 -0.7071 0.7071 0.7071 -15.1694 11.7334)" class="st0" width="2" height="13.8"/>
	</g>
</g>
<g>
	<g>
		
			<rect x="38.8" y="20.2" transform="matrix(0.7071 -0.7071 0.7071 0.7071 -6.5219 36.0932)" class="st2" width="3.1" height="11.5"/>
		<path class="st0" d="M43.3,31.9l-8.9-8.9l2.9-2.9l8.9,8.9L43.3,31.9z M35.9,22.9l7.4,7.4l1.4-1.4l-7.4-7.4L35.9,22.9z"/>
	</g>
	<g>
		<g>
			
				<rect x="35.1" y="18.7" transform="matrix(0.7071 -0.7071 0.7071 0.7071 -3.8407 31.1584)" class="st0" width="1.1" height="3.1"/>
		</g>
		<g>
			
				<rect x="34.1" y="19.8" transform="matrix(0.7071 -0.7071 0.7071 0.7071 -4.928 30.7022)" class="st0" width="1.1" height="3.1"/>
		</g>
	</g>
	<g>
		<g>
			<circle class="st1" cx="27.3" cy="12.3" r="10.1"/>
			<path class="st0" d="M27.3,22.9c-5.8,0-10.6-4.8-10.6-10.6c0-5.8,4.8-10.6,10.6-10.6c5.8,0,10.6,4.8,10.6,10.6l0,0
				C37.9,18.2,33.1,22.9,27.3,22.9z M27.3,2.8c-5.2,0-9.5,4.3-9.5,9.5s4.3,9.5,9.5,9.5s9.5-4.3,9.5-9.5C36.8,7.1,32.5,2.8,27.3,2.8z
				"/>
		</g>
		<g>
			<circle class="st2" cx="27.3" cy="12.3" r="7.9"/>
			<path class="st0" d="M27.3,20.8c-4.6,0-8.4-3.8-8.4-8.4c0-2.2,0.9-4.4,2.5-6c1.6-1.6,3.7-2.5,6-2.5c0,0,0,0,0,0
				c4.6,0,8.4,3.8,8.4,8.4S31.9,20.8,27.3,20.8z M27.3,5c-2,0-3.8,0.8-5.2,2.1c-1.4,1.4-2.1,3.2-2.1,5.2c0,4,3.3,7.3,7.3,7.3
				c4,0,7.3-3.3,7.3-7.3S31.3,5,27.3,5L27.3,5z"/>
		</g>
	</g>
	<g>
		<g>
			<path class="st0" d="M22.2,11.1l-1.1-0.3c0.7-2.7,3-4.6,5.8-4.8L27,7.2C24.7,7.3,22.8,8.9,22.2,11.1z"/>
		</g>
		<g>
			<path class="st0" d="M21.2,13.8c-0.1-0.5-0.2-1-0.2-1.5h1.1c0,0.4,0,0.8,0.1,1.2L21.2,13.8z"/>
		</g>
	</g>
</g>
</svg>
