<?xml version="1.0" encoding="utf-8"?>
<!-- Generator: Adobe Illustrator 19.2.1, SVG Export Plug-In . SVG Version: 6.00 Build 0)  -->
<svg version="1.1"
	 id="svg1288" inkscape:output_extension="org.inkscape.output.svg.inkscape" inkscape:version="0.46" sodipodi:docbase="/home/jimmac/src/cvs/tango-icon-theme/scalable/apps" sodipodi:docname="office-calendar.svg" sodipodi:version="0.32" xmlns:cc="http://creativecommons.org/ns#" xmlns:dc="http://purl.org/dc/elements/1.1/" xmlns:inkscape="http://www.inkscape.org/namespaces/inkscape" xmlns:rdf="http://www.w3.org/1999/02/22-rdf-syntax-ns#" xmlns:sodipodi="http://sodipodi.sourceforge.net/DTD/sodipodi-0.dtd" xmlns:svg="http://www.w3.org/2000/svg"
	 xmlns="http://www.w3.org/2000/svg" xmlns:xlink="http://www.w3.org/1999/xlink" x="0px" y="0px" viewBox="0 0 48 48"
	 style="enable-background:new 0 0 48 48;" xml:space="preserve">
<style type="text/css">
	.st0{fill:#FFFFFF;}
	.st1{fill:#2D527D;}
	.st2{fill:#A6D0F0;}
	.st3{fill:#2B5082;}
</style>
<g>
	<defs>
		
		
			<inkscape:perspective  id="perspective48" inkscape:persp3d-origin="24 : 16 : 1" inkscape:vp_x="0 : 24 : 1" inkscape:vp_y="0 : 1000 : 0" inkscape:vp_z="48 : 24 : 1" sodipodi:type="inkscape:persp3d">
			</inkscape:perspective>
	</defs>
	
		<sodipodi:namedview  bordercolor="#666666" borderopacity="1.0" id="base" inkscape:current-layer="layer1" inkscape:cx="-136.63043" inkscape:cy="24.165113" inkscape:document-units="px" inkscape:grid-bbox="true" inkscape:pageopacity="0.0" inkscape:pageshadow="2" inkscape:window-height="701" inkscape:window-width="872" inkscape:window-x="562" inkscape:window-y="147" inkscape:zoom="1" pagecolor="#ffffff" showgrid="false">
		</sodipodi:namedview>
	<g>
		<path class="st0" d="M16,4.9h-1.8c-0.5,0-0.8,0.4-0.8,0.8v1.5v3.2c0,0.5,0.4,0.8,0.8,0.8H16c0.5,0,0.8-0.4,0.8-0.8V7.2V5.7
			C16.8,5.3,16.5,4.9,16,4.9z"/>
		<path class="st0" d="M34.6,4.9h-1.8c-0.5,0-0.8,0.4-0.8,0.8v1.5v3.2c0,0.5,0.4,0.8,0.8,0.8h1.8c0.3,0,0.6-0.2,0.8-0.5
			c0-0.1,0.1-0.2,0.1-0.3V7.2V5.7C35.4,5.3,35,4.9,34.6,4.9z"/>
		<path class="st0" d="M9.4,42.1h30c1.7,0,3-1.4,3-3v-5.2c0,0,0,0,0,0V20h-36v19C6.4,40.7,7.7,42.1,9.4,42.1z M21.4,24.3l3.2-1.9
			c0.2-0.1,0.4-0.2,0.7-0.2c0.8,0,1.6,0.5,1.6,1.2v15.2c0,0.8-0.9,1.1-1.9,1.1s-1.9-0.4-1.9-1.1V26.4l-0.7,0.4
			c-0.2,0.1-0.4,0.2-0.6,0.2c-0.7,0-1.2-0.7-1.2-1.5C20.7,25.1,20.9,24.6,21.4,24.3z"/>
		<path class="st1" d="M16,11.3L16,11.3c0.5,0,0.8-0.4,0.8-0.8C16.8,10.9,16.5,11.3,16,11.3z"/>
		<path class="st1" d="M31.9,10.5c0,0.5,0.4,0.8,0.8,0.8C32.3,11.3,31.9,10.9,31.9,10.5z"/>
		<path class="st2" d="M39.4,8.4h-1.6v2.1c0,1.7-1.4,3.1-3.1,3.1h-1.8c-1.7,0-3.1-1.4-3.1-3.1V8.4H19.1v2.1c0,1.7-1.4,3.1-3.1,3.1
			h-1.8c-1.7,0-3.1-1.4-3.1-3.1V8.4H9.4c-1.7,0-3,1.4-3,3v6.3h36v-6.3C42.4,9.7,41,8.4,39.4,8.4z"/>
		<g>
			<path class="st3" d="M39.4,6.1h-1.6V5.7c0-1.7-1.4-3.1-3.1-3.1h-1.8c-1.7,0-3.1,1.4-3.1,3.1v0.3H19.1V5.7c0-1.7-1.4-3.1-3.1-3.1
				h-1.8C12.4,2.6,11,4,11,5.7v0.3H9.4c-2.9,0-5.3,2.4-5.3,5.3v7.4V39c0,2.9,2.4,5.3,5.3,5.3h30c2.9,0,5.3-2.4,5.3-5.3v-5.2v-2.2
				V18.8v-7.4C44.7,8.5,42.3,6.1,39.4,6.1z M31.9,5.7c0-0.5,0.4-0.8,0.8-0.8h1.8c0.5,0,0.8,0.4,0.8,0.8v1.5v3.2c0,0.1,0,0.2-0.1,0.3
				c-0.1,0.3-0.4,0.5-0.8,0.5h-1.8c-0.5,0-0.8-0.4-0.8-0.8V7.2V5.7z M13.3,5.7c0-0.5,0.4-0.8,0.8-0.8H16c0.5,0,0.8,0.4,0.8,0.8v1.5
				v3.2c0,0.5-0.4,0.8-0.8,0.8h0h-1.8c-0.5,0-0.8-0.4-0.8-0.8V7.2V5.7z M6.4,11.4c0-1.7,1.4-3,3-3H11v2.1c0,1.7,1.4,3.1,3.1,3.1H16
				c1.7,0,3.1-1.4,3.1-3.1V8.4h10.5v2.1c0,1.7,1.4,3.1,3.1,3.1h1.8c1.7,0,3.1-1.4,3.1-3.1V8.4h1.6c1.7,0,3,1.4,3,3v6.3h-36V11.4z
				 M42.4,39c0,1.7-1.4,3-3,3h-30c-1.7,0-3-1.4-3-3V20h36v13.8c0,0,0,0,0,0V39z"/>
			<path class="st3" d="M25.2,22.2c-0.3,0-0.5,0-0.7,0.2l-3.2,1.9c-0.5,0.3-0.7,0.8-0.7,1.3c0,0.7,0.5,1.5,1.2,1.5
				c0.2,0,0.4,0,0.6-0.2l0.7-0.4v12.1c0,0.8,0.9,1.1,1.9,1.1s1.9-0.4,1.9-1.1V23.4C26.9,22.7,26,22.2,25.2,22.2z"/>
		</g>
	</g>
</g>
</svg>
