<?xml version="1.0" encoding="utf-8"?>
<!-- Generator: Adobe Illustrator 19.2.1, SVG Export Plug-In . SVG Version: 6.00 Build 0)  -->
<svg version="1.1"
	 id="svg1377" inkscape:output_extension="org.inkscape.output.svg.inkscape" inkscape:version="0.46" sodipodi:docbase="/home/jimmac/src/cvs/tango-icon-theme/scalable/status" sodipodi:docname="dialog-warning.svg" sodipodi:version="0.32" xmlns:cc="http://creativecommons.org/ns#" xmlns:dc="http://purl.org/dc/elements/1.1/" xmlns:inkscape="http://www.inkscape.org/namespaces/inkscape" xmlns:rdf="http://www.w3.org/1999/02/22-rdf-syntax-ns#" xmlns:sodipodi="http://sodipodi.sourceforge.net/DTD/sodipodi-0.dtd" xmlns:svg="http://www.w3.org/2000/svg"
	 xmlns="http://www.w3.org/2000/svg" xmlns:xlink="http://www.w3.org/1999/xlink" x="0px" y="0px" viewBox="0 0 48 48"
	 style="enable-background:new 0 0 48 48;" xml:space="preserve">
<style type="text/css">
	.st0{fill:#FFFFFF;}
	.st1{fill:#2B5082;}
	.st2{fill:#BBBFC3;}
	.st3{fill:#A6D0F0;}
</style>
<defs>
	
	
		<inkscape:perspective  id="perspective48" inkscape:persp3d-origin="24 : 16 : 1" inkscape:vp_x="0 : 24 : 1" inkscape:vp_y="0 : 1000 : 0" inkscape:vp_z="48 : 24 : 1" sodipodi:type="inkscape:persp3d">
		</inkscape:perspective>
</defs>
<sodipodi:namedview  bordercolor="#666666" borderopacity="1.0" id="base" inkscape:current-layer="g7435" inkscape:cx="13.022822" inkscape:cy="24" inkscape:document-units="px" inkscape:grid-bbox="true" inkscape:pageopacity="0.0" inkscape:pageshadow="2" inkscape:window-height="818" inkscape:window-width="1105" inkscape:window-x="0" inkscape:window-y="30" inkscape:zoom="14.757891" pagecolor="#ffffff" showgrid="true">
	
		<inkscape:grid  color="#0000ff" empcolor="#0000ff" empopacity="0.4" empspacing="4" id="GridFromPre046Settings" opacity="0.2" originx="0px" originy="0px" spacingx="1px" spacingy="1px" type="xygrid">
		</inkscape:grid>
</sodipodi:namedview>
<g>
	<g>
		<path class="st0" d="M42.3,34.8L26.5,11.2c-1.5-2.5-3.8-2.5-5.3,0L5.5,34.8c-1.5,2.5-0.3,4.6,2.6,4.6h31.5
			C42.6,39.4,43.8,37.3,42.3,34.8z"/>
		<path class="st1" d="M39.7,40.1H8.1c-1.7,0-3-0.6-3.6-1.7c-0.6-1.1-0.5-2.5,0.3-4l15.8-23.6c0.8-1.4,2-2.2,3.2-2.2l0,0
			c1.3,0,2.4,0.8,3.3,2.3l15.8,23.6c0.8,1.5,1,2.9,0.3,4C42.6,39.5,41.3,40.1,39.7,40.1z M23.9,10.1c-0.7,0-1.4,0.5-2,1.5L6.1,35.2
			c-0.5,0.9-0.7,1.8-0.3,2.5c0.4,0.6,1.2,1,2.3,1h31.5c1.1,0,2-0.3,2.3-1c0.4-0.6,0.3-1.5-0.3-2.5L25.9,11.6
			C25.3,10.6,24.6,10.1,23.9,10.1L23.9,10.1z"/>
	</g>
	<g>
		<g>
			<path class="st2" d="M41.1,42.9v-1.5c1.7,0,3.1-0.9,3.9-2.3c0.8-1.5,0.7-3.1-0.2-4.5l1.2-0.8c1.2,1.8,1.3,4.1,0.3,6
				C45.2,41.7,43.3,42.9,41.1,42.9z"/>
		</g>
		<g>
			<path class="st2" d="M27.7,8.4c-0.8-1.3-2.2-2-3.7-2c-1.5,0-2.9,0.7-3.7,2l-1.2-0.8C20.2,6,22,5,24,5c2,0,3.8,1,4.9,2.7L27.7,8.4
				z"/>
		</g>
		<g>
			<path class="st2" d="M6.9,42.9c-2.2,0-4.1-1.2-5.2-3.1c-1-1.9-1-4.2,0.3-6l1.2,0.8c-0.9,1.4-1,3.1-0.2,4.5
				c0.8,1.5,2.2,2.3,3.9,2.3V42.9z"/>
		</g>
	</g>
	<g>
		<g>
			<rect x="27.9" y="41.6" class="st2" width="1.5" height="1.5"/>
		</g>
		<g>
			<rect x="25" y="41.6" class="st2" width="1.5" height="1.5"/>
		</g>
		<g>
			<rect x="22.1" y="41.6" class="st2" width="1.5" height="1.5"/>
		</g>
		<g>
			<rect x="19.1" y="41.6" class="st2" width="1.5" height="1.5"/>
		</g>
	</g>
	<g>
		<g>
			<path class="st3" d="M23.9,16.1c1.6,0,2.6,1.2,2.6,2.4l-0.7,8.4c-0.1,0.9-0.4,1.6-1.9,1.6c-1.5,0-1.8-0.7-1.9-1.6l-0.7-8.4
				C21.2,17.3,22.3,16.1,23.9,16.1z"/>
			<path class="st1" d="M23.9,29.2c-1.6,0-2.5-0.7-2.6-2.2l-0.7-8.4c-0.1-0.7,0.2-1.5,0.7-2.1c0.6-0.7,1.6-1.1,2.6-1.1
				c1,0,1.9,0.4,2.5,1c0.6,0.6,0.8,1.4,0.8,2.1L26.5,27C26.4,28.5,25.5,29.2,23.9,29.2z M23.9,16.9c-0.6,0-1.1,0.2-1.5,0.6
				c-0.3,0.3-0.4,0.6-0.4,1l0.7,8.4c0,0.5,0.1,0.9,1.2,0.9c1.1,0,1.1-0.4,1.2-0.9l0.7-8.4c0-0.3-0.1-0.7-0.4-1
				C25,17.1,24.5,16.9,23.9,16.9z"/>
		</g>
		<g>
			<circle class="st3" cx="23.9" cy="33.9" r="2.6"/>
			<path class="st1" d="M23.9,37.2c-1.8,0-3.3-1.5-3.3-3.3s1.5-3.3,3.3-3.3c1.8,0,3.3,1.5,3.3,3.3S25.7,37.2,23.9,37.2z M23.9,32.1
				c-1,0-1.8,0.8-1.8,1.8s0.8,1.8,1.8,1.8c1,0,1.8-0.8,1.8-1.8S24.9,32.1,23.9,32.1z"/>
		</g>
	</g>
</g>
</svg>
