<?xml version="1.0" encoding="utf-8"?>
<!-- Generator: Adobe Illustrator 19.2.1, SVG Export Plug-In . SVG Version: 6.00 Build 0)  -->
<svg version="1.1"
	 id="svg11300" inkscape:export-filename="/home/jimmac/Desktop/wi-fi.png" inkscape:export-xdpi="90.000000" inkscape:export-ydpi="90.000000" inkscape:version="0.43" sodipodi:docbase="/home/andreas/projekt/tango/scalable" sodipodi:docname="dialog-cancel.svg" sodipodi:version="0.32" xmlns:cc="http://web.resource.org/cc/" xmlns:dc="http://purl.org/dc/elements/1.1/" xmlns:inkscape="http://www.inkscape.org/namespaces/inkscape" xmlns:rdf="http://www.w3.org/1999/02/22-rdf-syntax-ns#" xmlns:sodipodi="http://inkscape.sourceforge.net/DTD/sodipodi-0.dtd" xmlns:svg="http://www.w3.org/2000/svg"
	 xmlns="http://www.w3.org/2000/svg" xmlns:xlink="http://www.w3.org/1999/xlink" x="0px" y="0px" viewBox="0 0 48 48"
	 style="enable-background:new 0 0 48 48;" xml:space="preserve">
<style type="text/css">
	.st0{fill:#A3D4FF;}
	.st1{fill:#2A5082;}
</style>
<sodipodi:namedview  bordercolor="#666666" borderopacity="0.25490196" fill="#a04e0b" id="base" inkscape:current-layer="layer1" inkscape:cx="34.529937" inkscape:cy="26.100244" inkscape:document-units="px" inkscape:grid-bbox="true" inkscape:guide-bbox="true" inkscape:pageopacity="0.0" inkscape:pageshadow="2" inkscape:showpageshadow="false" inkscape:window-height="724" inkscape:window-width="1270" inkscape:window-x="0" inkscape:window-y="25" inkscape:zoom="16" pagecolor="#ffffff" showgrid="false" showguides="true" stroke="#4e9a06">
	</sodipodi:namedview>
<g>
	<polygon class="st0" points="4.7,12.1 16.9,24.2 4.7,36.3 12,43.6 24.1,31.5 36.3,43.6 43.6,36.3 31.4,24.2 43.6,12.1 36.3,4.8 
		24.1,16.9 12,4.8 	"/>
	<path class="st1" d="M12,45l-8.7-8.7l12.1-12.1L3.3,12.1L12,3.4l12.1,12.1L36.3,3.4l8.7,8.7L32.8,24.2L45,36.3L36.3,45L24.1,32.9
		L12,45z M24.1,30.1l12.1,12.1l5.9-5.9L30,24.2l12.1-12.1l-5.9-5.9L24.1,18.3L12,6.2l-5.9,5.9l12.1,12.1L6.1,36.3l5.9,5.9L24.1,30.1
		z"/>
</g>
</svg>
