<?xml version="1.0" encoding="utf-8"?>
<!-- Generator: Adobe Illustrator 19.2.1, SVG Export Plug-In . SVG Version: 6.00 Build 0)  -->
<svg version="1.1"
	 id="svg5816" inkscape:output_extension="org.inkscape.output.svg.inkscape" inkscape:version="0.46" sodipodi:docbase="/home/jimmac/src/cvs/tango-icon-theme/scalable/apps" sodipodi:docname="accessories-calculator.svg" sodipodi:version="0.32" xmlns:cc="http://creativecommons.org/ns#" xmlns:dc="http://purl.org/dc/elements/1.1/" xmlns:inkscape="http://www.inkscape.org/namespaces/inkscape" xmlns:rdf="http://www.w3.org/1999/02/22-rdf-syntax-ns#" xmlns:sodipodi="http://sodipodi.sourceforge.net/DTD/sodipodi-0.dtd" xmlns:svg="http://www.w3.org/2000/svg"
	 xmlns="http://www.w3.org/2000/svg" xmlns:xlink="http://www.w3.org/1999/xlink" x="0px" y="0px" viewBox="0 0 48 48"
	 style="enable-background:new 0 0 48 48;" xml:space="preserve">
<style type="text/css">
	.st0{fill:#2B5082;}
	.st1{fill:#A6D0F0;}
	.st2{fill:#BBBFC3;}
</style>
<defs>
	
	
		<inkscape:perspective  id="perspective84" inkscape:persp3d-origin="24 : 16 : 1" inkscape:vp_x="0 : 24 : 1" inkscape:vp_y="0 : 1000 : 0" inkscape:vp_z="48 : 24 : 1" sodipodi:type="inkscape:persp3d">
		</inkscape:perspective>
</defs>
<sodipodi:namedview  bordercolor="#666666" borderopacity="1.0" fill="#2e3436" id="base" inkscape:current-layer="layer1" inkscape:cx="27.992697" inkscape:cy="20.441822" inkscape:document-units="px" inkscape:grid-bbox="true" inkscape:pageopacity="0.0" inkscape:pageshadow="2" inkscape:window-height="743" inkscape:window-width="872" inkscape:window-x="254" inkscape:window-y="105" inkscape:zoom="1" pagecolor="#ffffff" showgrid="false">
	</sodipodi:namedview>
<g>
	<g>
		<path class="st0" d="M37.7,2.4H11.3c-2,0-3.7,1.7-3.7,3.8v36c0,1.6,1.3,3,2.9,3h28.1c1.6,0,2.9-1.3,2.9-3v-36
			C41.4,4.1,39.8,2.4,37.7,2.4z M39.3,42.2c0,0.4-0.3,0.7-0.7,0.7H10.4c-0.4,0-0.7-0.3-0.7-0.7v-36c0-0.9,0.7-1.6,1.6-1.6h26.5
			c0.9,0,1.6,0.7,1.6,1.6V42.2z"/>
	</g>
	<path class="st1" d="M36.6,6.8H12v10.4h24.6V6.8z M34,14.6H14.7V9.4H34V14.6z"/>
	<rect x="13.4" y="20" class="st2" width="5.3" height="6.2"/>
	<rect x="21.7" y="20" class="st0" width="5.3" height="6.2"/>
	<rect x="30" y="20" class="st0" width="5.3" height="6.2"/>
	<rect x="13.4" y="34.9" class="st0" width="5.3" height="5.7"/>
	<rect x="21.7" y="34.9" class="st0" width="5.3" height="5.7"/>
	<rect x="30" y="34.9" class="st0" width="5.3" height="5.7"/>
	<rect x="13.4" y="27.9" class="st0" width="5.3" height="5.7"/>
	<rect x="21.7" y="27.9" class="st0" width="5.3" height="5.7"/>
	<rect x="30" y="27.9" class="st0" width="5.3" height="5.7"/>
	<rect x="12.4" y="7.8" class="st1" width="23.3" height="8"/>
</g>
</svg>
