<?xml version="1.0" encoding="UTF-8" standalone="no"?>
<!-- Generator: Adobe Illustrator 19.2.1, SVG Export Plug-In . SVG Version: 6.00 Build 0)  -->

<svg
   xmlns:dc="http://purl.org/dc/elements/1.1/"
   xmlns:cc="http://creativecommons.org/ns#"
   xmlns:rdf="http://www.w3.org/1999/02/22-rdf-syntax-ns#"
   xmlns:svg="http://www.w3.org/2000/svg"
   xmlns="http://www.w3.org/2000/svg"
   xmlns:sodipodi="http://sodipodi.sourceforge.net/DTD/sodipodi-0.dtd"
   xmlns:inkscape="http://www.inkscape.org/namespaces/inkscape"
   version="1.1"
   id="svg11300"
   inkscape:export-filename="/home/jimmac/Desktop/wi-fi.png"
   inkscape:export-xdpi="90.000000"
   inkscape:export-ydpi="90.000000"
   inkscape:output_extension="org.inkscape.output.svg.inkscape"
   inkscape:version="0.48.4 r9939"
   sodipodi:docname="tryton-go-previous.svg"
   sodipodi:version="0.32"
   x="0px"
   y="0px"
   viewBox="0 0 48 48"
   style="enable-background:new 0 0 48 48;"
   xml:space="preserve"
   width="100%"
   height="100%"><metadata
     id="metadata19"><rdf:RDF><cc:Work
         rdf:about=""><dc:format>image/svg+xml</dc:format><dc:type
           rdf:resource="http://purl.org/dc/dcmitype/StillImage" /><dc:title></dc:title></cc:Work></rdf:RDF></metadata><style
     type="text/css"
     id="style3">
	.st0{fill:#FFFFFF;}
</style><defs
     id="defs5"><inkscape:perspective
       id="perspective128"
       inkscape:persp3d-origin="24 : 16 : 1"
       inkscape:vp_x="0 : 24 : 1"
       inkscape:vp_y="0 : 1000 : 0"
       inkscape:vp_z="48 : 24 : 1"
       sodipodi:type="inkscape:persp3d" /></defs><sodipodi:namedview
     bordercolor="#666666"
     borderopacity="0.25490196"
     fill="#4e9a06"
     id="base"
     inkscape:current-layer="svg11300"
     inkscape:cx="-8.8436059"
     inkscape:cy="22.724566"
     inkscape:document-units="px"
     inkscape:grid-bbox="true"
     inkscape:pageopacity="0.0"
     inkscape:pageshadow="2"
     inkscape:showpageshadow="false"
     inkscape:window-height="818"
     inkscape:window-width="1280"
     inkscape:window-x="2379"
     inkscape:window-y="103"
     inkscape:zoom="5.6568543"
     pagecolor="#ffffff"
     showgrid="false"
     stroke="#4e9a06"
     inkscape:window-maximized="0" /><g
     id="g13"
     style="fill:#2b5082;fill-opacity:1"><path
       class="st0"
       d="M 3.7,6.8 C 3.2,8.3 3.6,10.7 3.6,12.3 v 27.9 c 0,3.1 2.7,4.3 5.4,4.3 h 29.7 c 2.5,0 5.4,-0.6 5.7,-3.6 0.6,-5.4 0.1,-11.1 0.1,-16.5 v -16 c 0,-0.1 0,-0.2 0,-0.4 0,-0.2 0,-0.3 -0.1,-0.4 C 43.9,4.8 41.8,3.8 39.1,3.8 H 9.6 C 6.9,3.6 4.7,4 3.7,6.8 l 0,0 z m 2.8,5.8 C 6.5,11.7 5.7,6.5 7.8,6.5 h 27.5 c 1.2,0 5.8,-0.8 6.1,1.3 v 27.5 c 0,0.9 0.8,6.1 -1.3,6.1 H 12.6 c -0.9,0 -6.1,0.8 -6.1,-1.3 l 0,-27.5 0,0 z"
       id="path15"
       inkscape:connector-curvature="0"
       style="fill:#2b5082;fill-opacity:1" /></g><path
     style="fill:#a3d4ff;fill-opacity:1"
     inkscape:connector-curvature="0"
     id="path17"
     d="m 21,16.6 c -2.1,2.1 -4.2,4.2 -6.3,6.3 -0.6,0.6 -0.5,1.5 0,2.1 l 6.3,6.3 c 1.3,1.3 3.4,-0.8 2.1,-2.1 l -3.8,-3.8 c 3,0 10,0 13,0 1.9,0 1.9,-2.9 0,-2.9 -3,0 -10.1,0 -13,0 1.3,-1.3 2.6,-2.6 3.8,-3.8 1.3,-1.3 -0.7,-3.4 -2.1,-2.1 l 0,0 z"
     class="st0" /></svg>