<?xml version="1.0" encoding="utf-8"?>
<!-- Generator: Adobe Illustrator 19.2.1, SVG Export Plug-In . SVG Version: 6.00 Build 0)  -->
<svg version="1.1"
	 id="svg2994" inkscape:output_extension="org.inkscape.output.svg.inkscape" inkscape:version="0.46" sodipodi:docbase="/home/jimmac/src/cvs/tango-icon-theme/scalable/devices" sodipodi:docname="printer.svg" sodipodi:version="0.32" xmlns:cc="http://creativecommons.org/ns#" xmlns:dc="http://purl.org/dc/elements/1.1/" xmlns:inkscape="http://www.inkscape.org/namespaces/inkscape" xmlns:rdf="http://www.w3.org/1999/02/22-rdf-syntax-ns#" xmlns:sodipodi="http://sodipodi.sourceforge.net/DTD/sodipodi-0.dtd" xmlns:svg="http://www.w3.org/2000/svg"
	 xmlns="http://www.w3.org/2000/svg" xmlns:xlink="http://www.w3.org/1999/xlink" x="0px" y="0px" viewBox="0 0 48 48"
	 style="enable-background:new 0 0 48 48;" xml:space="preserve">
<style type="text/css">
	.st0{fill:#FFFFFF;}
	.st1{fill:#2B5082;}
	.st2{fill:#A6D0F0;}
</style>
<defs>
	
	
		<inkscape:perspective  id="perspective79" inkscape:persp3d-origin="24 : 16 : 1" inkscape:vp_x="0 : 24 : 1" inkscape:vp_y="0 : 1000 : 0" inkscape:vp_z="48 : 24 : 1" sodipodi:type="inkscape:persp3d">
		</inkscape:perspective>
</defs>
<sodipodi:namedview  bordercolor="#666666" borderopacity="0.090196078" id="base" inkscape:current-layer="layer1" inkscape:cx="29.124539" inkscape:cy="4.6034265" inkscape:document-units="px" inkscape:grid-bbox="true" inkscape:guide-bbox="true" inkscape:pageopacity="0.0" inkscape:pageshadow="2" inkscape:showpageshadow="false" inkscape:window-height="688" inkscape:window-width="872" inkscape:window-x="491" inkscape:window-y="160" inkscape:zoom="1" pagecolor="#ffffff" showgrid="false" showguides="true">
	</sodipodi:namedview>
<g>
	<g>
		<path class="st0" d="M40.8,21.1h-2h-29h-2c-1.1,0-2,0.9-2,2v15.5h37.1V23.2C42.9,22,41.9,21.1,40.8,21.1z"/>
	</g>
	<g>
		<path class="st1" d="M43.5,39.3H5.1V23.2c0-1.5,1.2-2.7,2.7-2.7h2v1.3h-2c-0.7,0-1.3,0.6-1.3,1.3V38h35.7V23.2
			c0-0.7-0.6-1.3-1.3-1.3h-2v-1.3h2c1.5,0,2.7,1.2,2.7,2.7V39.3z"/>
	</g>
	<g>
		<path class="st1" d="M42.2,13.1h-4v-1.3h2.7c0-1.1-0.9-2-2-2h-2.7V8.3h2.7c1.9,0,3.4,1.5,3.4,3.4V13.1z"/>
	</g>
	<g>
		<path class="st0" d="M15.2,9c-1.5,0-2.7,1.2-2.7,2.7v16.2h23.6V11.7c0-1.5,1.2-2.7,2.7-2.7H15.2z"/>
		<path class="st1" d="M36.8,28.6H11.9V11.7c0-1.9,1.5-3.4,3.4-3.4h23.6v1.3c-1.1,0-2,0.9-2,2V28.6z M13.2,27.2h22.2V11.7
			c0-0.8,0.3-1.5,0.7-2H15.2c-1.1,0-2,0.9-2,2V27.2z"/>
	</g>
	<g>
		<rect x="8.5" y="27.2" class="st1" width="31.7" height="1.3"/>
	</g>
	<g>
		<path class="st2" d="M36.1,38.7H12.5v-1.7c0-1.7,1.3-3,3-3h17.6c1.7,0,3,1.3,3,3V38.7z"/>
		<path class="st1" d="M36.8,39.3H11.9V36c0-1.5,1.2-2.7,2.7-2.7h19.5c1.5,0,2.7,1.2,2.7,2.7V39.3z M13.2,38h22.2v-2
			c0-0.7-0.6-1.3-1.3-1.3H14.5c-0.7,0-1.3,0.6-1.3,1.3V38z"/>
	</g>
	<g>
		<rect x="8.5" y="35.3" class="st1" width="1.3" height="1.3"/>
	</g>
	<g>
		<rect x="8.5" y="32.6" class="st1" width="1.3" height="1.3"/>
	</g>
	<g>
		<rect x="8.5" y="29.9" class="st1" width="1.3" height="1.3"/>
	</g>
	<g>
		<polygon class="st1" points="10.5,25.9 9.2,25.9 9.2,17.1 11.2,17.1 11.2,18.4 10.5,18.4 		"/>
	</g>
	<g>
		<polygon class="st1" points="39.5,25.9 38.1,25.9 38.1,18.4 37.5,18.4 37.5,17.1 39.5,17.1 		"/>
	</g>
	<g>
		<g>
			<rect x="18.6" y="13.7" class="st1" width="11.5" height="1.3"/>
		</g>
		<g>
			<rect x="18.6" y="16.4" class="st1" width="11.5" height="1.3"/>
		</g>
		<g>
			<rect x="18.6" y="19.1" class="st1" width="6.7" height="1.3"/>
		</g>
	</g>
</g>
</svg>
