<?xml version="1.0" encoding="utf-8"?>
<!-- Generator: Adobe Illustrator 19.2.1, SVG Export Plug-In . SVG Version: 6.00 Build 0)  -->
<svg version="1.1"
	 id="svg1256" inkscape:output_extension="org.inkscape.output.svg.inkscape" inkscape:version="0.48.2 r9819" sodipodi:docname="x-office-address-book.svg" sodipodi:version="0.32" xmlns:cc="http://creativecommons.org/ns#" xmlns:dc="http://purl.org/dc/elements/1.1/" xmlns:inkscape="http://www.inkscape.org/namespaces/inkscape" xmlns:rdf="http://www.w3.org/1999/02/22-rdf-syntax-ns#" xmlns:sodipodi="http://sodipodi.sourceforge.net/DTD/sodipodi-0.dtd" xmlns:svg="http://www.w3.org/2000/svg"
	 xmlns="http://www.w3.org/2000/svg" xmlns:xlink="http://www.w3.org/1999/xlink" x="0px" y="0px" viewBox="0 0 48 48"
	 style="enable-background:new 0 0 48 48;" xml:space="preserve">
<style type="text/css">
	.st0{fill:#A6D0F0;}
	.st1{fill:#2B5082;}
	.st2{fill:#FFFFFF;}
	.st3{fill:#E8E9EA;}
</style>
<defs>
	
	
		<inkscape:perspective  id="perspective58" inkscape:persp3d-origin="24 : 16 : 1" inkscape:vp_x="0 : 24 : 1" inkscape:vp_y="0 : 1000 : 0" inkscape:vp_z="48 : 24 : 1" sodipodi:type="inkscape:persp3d">
		</inkscape:perspective>
</defs>
<sodipodi:namedview  bordercolor="#666666" borderopacity="0.27843137" fill="#ef2929" id="base" inkscape:current-layer="layer1" inkscape:cx="24" inkscape:cy="24" inkscape:document-units="px" inkscape:grid-bbox="true" inkscape:pageopacity="0.0" inkscape:pageshadow="2" inkscape:showpageshadow="false" inkscape:window-height="723" inkscape:window-maximized="0" inkscape:window-width="1094" inkscape:window-x="0" inkscape:window-y="15" inkscape:zoom="9.5208333" pagecolor="#ffffff" showgrid="false" stroke="#cc0000">
	</sodipodi:namedview>
<g>
	<g>
		<polygon class="st0" points="45.3,39.5 28.4,39.5 26.9,41 21.1,41 19.6,39.5 2.8,39.5 2.8,13.1 45.3,13.1 		"/>
		<path class="st1" d="M27.3,41.7h-6.5l-1.5-1.5H2V12.4h44v27.8H28.7L27.3,41.7z M21.4,40.2h5.3l1.5-1.5h16.4V13.8h-41v24.9h16.4
			L21.4,40.2z"/>
	</g>
	<g>
		<path class="st2" d="M25.5,38H24V15.3c0-2.4,1.4-4.4,4.4-4.4h13.2v25.6H28.4C27,36.6,26,37,25.5,38z"/>
		<path class="st1" d="M25.9,38.8h-2.6V15.3c0-3.1,2.1-5.1,5.1-5.1h13.9v27.1H28.4c-1.5,0-2,0.5-2.3,1.1L25.9,38.8z M24.8,37.3h0.3
			c0.9-1.3,2.3-1.5,3.3-1.5h12.5V11.6H28.4c-2.7,0-3.7,1.9-3.7,3.7V37.3z"/>
	</g>
	<g>
		<path class="st2" d="M22.6,38H24V15.3c0-2.4-1.4-4.4-4.4-4.4H6.4v25.6h13.2C21,36.6,22,37,22.6,38z"/>
		<path class="st1" d="M24.8,38.8h-2.6l-0.2-0.4c-0.3-0.6-0.8-1.1-2.3-1.1H5.7V10.2h13.9c3.1,0,5.1,2.1,5.1,5.1V38.8z M23,37.3h0.3
			v-22c0-1.8-1-3.7-3.7-3.7H7.2v24.2h12.5C20.7,35.8,22.1,36,23,37.3z"/>
	</g>
	<g>
		<path class="st2" d="M22.6,38H24V15.3c0-2.4-1-4.8-3.3-5.6L10.1,6.6v25.6l10.6,3.2C22,35.9,22.3,36.8,22.6,38z"/>
		<path class="st1" d="M24,38.8h-1.5c-0.3,0-0.6-0.2-0.7-0.6c-0.3-1.2-0.5-1.8-1.4-2.1L9.9,32.9c-0.3-0.1-0.5-0.4-0.5-0.7V6.6
			c0-0.2,0.1-0.4,0.3-0.6c0.2-0.1,0.4-0.2,0.6-0.1L20.9,9c2.4,0.8,3.9,3.2,3.9,6.3V38C24.8,38.4,24.4,38.8,24,38.8z M23.1,37.3h0.2
			v-22c0-0.9-0.2-4-2.8-4.9l-9.6-2.9v24.1l10.1,3C22.3,35.2,22.8,36.2,23.1,37.3z"/>
	</g>
	<g>
		<polygon class="st3" points="37.9,20 35.4,17.8 32.8,20 32.8,9.4 37.9,9.4 		"/>
		<path class="st1" d="M38.7,21.7l-3.3-2.9l-3.3,2.9v-13h6.6V21.7z M35.4,16.8l1.8,1.6v-8.2h-3.7v8.2L35.4,16.8z"/>
	</g>
</g>
</svg>
