<?xml version="1.0" encoding="utf-8"?>
<!-- Generator: Adobe Illustrator 19.2.1, SVG Export Plug-In . SVG Version: 6.00 Build 0)  -->
<svg version="1.1"
	 id="svg11300" inkscape:export-filename="/home/jimmac/Desktop/wi-fi.png" inkscape:export-xdpi="90.000000" inkscape:export-ydpi="90.000000" inkscape:output_extension="org.inkscape.output.svg.inkscape" inkscape:version="0.46" sodipodi:docbase="/home/garrett/Source/tango-icon-theme/scalable/places" sodipodi:docname="start-here.svg" sodipodi:version="0.32" xmlns:cc="http://creativecommons.org/ns#" xmlns:dc="http://purl.org/dc/elements/1.1/" xmlns:inkscape="http://www.inkscape.org/namespaces/inkscape" xmlns:rdf="http://www.w3.org/1999/02/22-rdf-syntax-ns#" xmlns:sodipodi="http://sodipodi.sourceforge.net/DTD/sodipodi-0.dtd" xmlns:svg="http://www.w3.org/2000/svg"
	 xmlns="http://www.w3.org/2000/svg" xmlns:xlink="http://www.w3.org/1999/xlink" x="0px" y="0px" viewBox="0 0 48 48"
	 style="enable-background:new 0 0 48 48;" xml:space="preserve">
<style type="text/css">
	.st0{fill:#2B5082;}
	.st1{fill:#A6D0F0;}
</style>
<g>
	<defs>
		
		
			<inkscape:perspective  id="perspective61" inkscape:persp3d-origin="24 : 16 : 1" inkscape:vp_x="0 : 24 : 1" inkscape:vp_y="0 : 1000 : 0" inkscape:vp_z="48 : 24 : 1" sodipodi:type="inkscape:persp3d">
			</inkscape:perspective>
	</defs>
	
		<sodipodi:namedview  bordercolor="#666666" borderopacity="0.25490196" fill="#eeeeec" id="base" inkscape:current-layer="layer1" inkscape:cx="8.021467" inkscape:cy="21.330644" inkscape:document-units="px" inkscape:grid-bbox="true" inkscape:pageopacity="0.0" inkscape:pageshadow="2" inkscape:showpageshadow="false" inkscape:window-height="818" inkscape:window-width="1032" inkscape:window-x="0" inkscape:window-y="30" inkscape:zoom="11.313708" pagecolor="#ffffff" showgrid="true" stroke="#ef2929">
		
			<inkscape:grid  color="#0000ff" empcolor="#0000ff" empopacity="0.4" empspacing="4" id="GridFromPre046Settings" opacity="0.2" originx="0px" originy="0px" spacingx="1px" spacingy="1px" type="xygrid">
			</inkscape:grid>
	</sodipodi:namedview>
	<path class="st0" d="M24.4,5.9c-10,0-18.2,8.1-18.2,18.2c0,10,8.1,18.2,18.2,18.2c10,0,18.2-8.1,18.2-18.2
		C42.6,14,34.4,5.9,24.4,5.9L24.4,5.9z M24.4,40.1c-8.9,0-16.1-7.2-16.1-16.1C8.4,15.2,15.6,8,24.4,8c8.9,0,16.1,7.2,16.1,16.1
		C40.5,32.9,33.3,40.1,24.4,40.1L24.4,40.1z M24.4,40.1"/>
	<path class="st1" d="M26.9,25l4-7.5l-7.5,4L26.9,25z M26.9,25"/>
	<path class="st0" d="M34.4,14.5c-0.3-0.5-0.9-0.7-1.4-0.4l-11.8,6.3c-0.2,0.1-0.3,0.2-0.4,0.4l-6.3,11.8c-0.2,0.4-0.1,0.9,0.2,1.2
		c0.1,0.1,0.2,0.1,0.2,0.2c0.3,0.2,0.7,0.2,1,0v0l0,0c0,0,0,0,0,0l11.8-6.3c0.2-0.1,0.3-0.2,0.4-0.4l6.3-11.8c0,0,0,0,0-0.1l0,0l0,0
		C34.6,15.1,34.6,14.8,34.4,14.5L34.4,14.5z M17.9,30.6l4-7.5l3.5,3.5L17.9,30.6z M26.9,25l-3.5-3.5l7.5-4L26.9,25z M26.9,25"/>
</g>
</svg>
