<?xml version="1.0" encoding="utf-8"?>
<!-- Generator: Adobe Illustrator 19.2.1, SVG Export Plug-In . SVG Version: 6.00 Build 0)  -->
<svg version="1.1"
	 id="svg79606" inkscape:output_extension="org.inkscape.output.svg.inkscape" inkscape:version="0.48.0 r9654" sodipodi:docname="tryton-attachment-hi.svg" sodipodi:version="0.32" xmlns:cc="http://creativecommons.org/ns#" xmlns:dc="http://purl.org/dc/elements/1.1/" xmlns:inkscape="http://www.inkscape.org/namespaces/inkscape" xmlns:rdf="http://www.w3.org/1999/02/22-rdf-syntax-ns#" xmlns:sodipodi="http://sodipodi.sourceforge.net/DTD/sodipodi-0.dtd" xmlns:svg="http://www.w3.org/2000/svg"
	 xmlns="http://www.w3.org/2000/svg" xmlns:xlink="http://www.w3.org/1999/xlink" x="0px" y="0px" viewBox="0 0 48 48"
	 style="enable-background:new 0 0 48 48;" xml:space="preserve">
<style type="text/css">
	.st0{fill:#FFFFFF;}
	.st1{fill:#A6D0F0;}
	.st2{fill:#2B5082;}
	.st3{fill:#BBBFC3;}
</style>
<defs>
	
	
		<inkscape:perspective  id="perspective20" inkscape:persp3d-origin="24 : 16 : 1" inkscape:vp_x="0 : 24 : 1" inkscape:vp_y="0 : 1000 : 0" inkscape:vp_z="48 : 24 : 1" sodipodi:type="inkscape:persp3d">
		</inkscape:perspective>
</defs>
<sodipodi:namedview  bordercolor="#666666" borderopacity="0.23529412" id="base" inkscape:current-layer="layer1" inkscape:cx="2.0843146" inkscape:cy="24" inkscape:document-units="px" inkscape:grid-bbox="true" inkscape:pageopacity="0.0" inkscape:pageshadow="2" inkscape:showpageshadow="false" inkscape:window-height="1007" inkscape:window-maximized="0" inkscape:window-width="1278" inkscape:window-x="0" inkscape:window-y="15" inkscape:zoom="9.2291667" pagecolor="#ffffff" showgrid="true" stroke="#d3d7cf">
	
		<inkscape:grid  color="#0000ff" empcolor="#0000ff" empopacity="0.4" empspacing="4" enabled="true" id="GridFromPre046Settings" opacity="0.2" originx="0px" originy="0px" snapvisiblegridlinesonly="true" spacingx="1px" spacingy="1px" type="xygrid" visible="true">
		</inkscape:grid>
</sodipodi:namedview>
<g>
	<g>
		<g>
			<path class="st0" d="M39.2,3.4H15.6l-6.7,6.7V43c0,0.9,0.8,1.7,1.7,1.7h28.6c0.9,0,1.7-0.8,1.7-1.7V5C40.9,4.1,40.2,3.4,39.2,3.4
				z"/>
		</g>
		<g>
			<polygon class="st1" points="8.9,10.9 16.5,10.9 16.5,3.4 			"/>
		</g>
		<g>
			<path class="st2" d="M39.2,45.6H10.6c-1.5,0-2.7-1.2-2.7-2.7V9.7l7.3-7.3h24c1.5,0,2.7,1.2,2.7,2.7v2.5h-2V5
				c0-0.4-0.3-0.7-0.7-0.7H16.1l-6.2,6.2V43c0,0.4,0.3,0.7,0.7,0.7h28.6c0.4,0,0.7-0.3,0.7-0.7v-7.6h2V43
				C41.9,44.4,40.7,45.6,39.2,45.6z"/>
		</g>
		<g>
			<polygon class="st2" points="17.5,11.9 11.4,11.9 11.4,9.9 15.5,9.9 15.5,5.9 17.5,5.9 			"/>
		</g>
		<g>
			<path class="st2" d="M27.3,41.4c-2.1,0-4.2-0.8-5.8-2.4c-3.2-3.2-3.2-8.3,0-11.5L38,11.1c2.2-2.2,5.9-2.2,8.2,0
				c2.2,2.2,2.2,5.9,0,8.2L29.7,35.7c-1.3,1.3-3.5,1.3-4.8,0c-1.3-1.3-1.3-3.5,0-4.8l16.4-16.4l1.4,1.4L26.3,32.3
				c-0.5,0.5-0.5,1.4,0,2c0.5,0.5,1.4,0.5,2,0l16.4-16.4c1.5-1.5,1.5-3.9,0-5.3c-1.5-1.5-3.9-1.5-5.3,0L22.9,28.9
				c-2.4,2.4-2.4,6.3,0,8.7c2.4,2.4,6.3,2.4,8.7,0l13.1-13l1.4,1.4L33,39C31.5,40.6,29.4,41.4,27.3,41.4z"/>
		</g>
	</g>
	<g>
		<g>
			<g>
				<line class="st3" x1="20.3" y1="11" x2="20.3" y2="22.4"/>
			</g>
			<g>
				<rect x="19.3" y="11" class="st3" width="2" height="11.3"/>
			</g>
		</g>
		<g>
			<g>
				<line class="st3" x1="14.6" y1="16.7" x2="26" y2="16.7"/>
			</g>
			<g>
				<rect x="14.6" y="15.7" class="st3" width="11.3" height="2"/>
			</g>
		</g>
	</g>
</g>
</svg>
