<?xml version="1.0" encoding="utf-8"?>
<!-- Generator: Adobe Illustrator 19.2.1, SVG Export Plug-In . SVG Version: 6.00 Build 0)  -->
<svg version="1.1"
	 id="svg249" inkscape:export-filename="/home/jimmac/gfx/novell/pdes/trunk/docs/BIGmime-text.png" inkscape:export-xdpi="240.00000" inkscape:export-ydpi="240.00000" inkscape:output_extension="org.inkscape.output.svg.inkscape" inkscape:version="0.46" sodipodi:docbase="/home/jimmac/src/cvs/tango-icon-theme/scalable/actions" sodipodi:docname="document-properties.svg" sodipodi:version="0.32" xmlns:cc="http://creativecommons.org/ns#" xmlns:dc="http://purl.org/dc/elements/1.1/" xmlns:inkscape="http://www.inkscape.org/namespaces/inkscape" xmlns:rdf="http://www.w3.org/1999/02/22-rdf-syntax-ns#" xmlns:sodipodi="http://sodipodi.sourceforge.net/DTD/sodipodi-0.dtd" xmlns:svg="http://www.w3.org/2000/svg"
	 xmlns="http://www.w3.org/2000/svg" xmlns:xlink="http://www.w3.org/1999/xlink" x="0px" y="0px" viewBox="0 0 48 48"
	 style="enable-background:new 0 0 48 48;" xml:space="preserve">
<style type="text/css">
	.st0{fill:#2B5082;}
</style>
<defs>
	
	
		<inkscape:perspective  id="perspective83" inkscape:persp3d-origin="24 : 16 : 1" inkscape:vp_x="0 : 24 : 1" inkscape:vp_y="0 : 1000 : 0" inkscape:vp_z="48 : 24 : 1" sodipodi:type="inkscape:persp3d">
		</inkscape:perspective>
</defs>
<sodipodi:namedview  bordercolor="#666666" borderopacity="0.25490196" id="base" inkscape:current-layer="layer6" inkscape:cx="12.252821" inkscape:cy="-2.6701998" inkscape:document-units="px" inkscape:grid-bbox="true" inkscape:pageopacity="0.0" inkscape:pageshadow="2" inkscape:showpageshadow="false" inkscape:window-height="688" inkscape:window-width="872" inkscape:window-x="562" inkscape:window-y="160" inkscape:zoom="5.6568542" pagecolor="#ffffff" showgrid="false">
	</sodipodi:namedview>
<g>
	<g>
		<path class="st0" d="M38.6,4.1H9.5c-2.7,0-4.8,1-5.3,3.8c0,0.1-0.1,0.3-0.1,0.4c0,0.1,0,0.2,0,0.4v15.9c0,5.4-0.5,11,0.1,16.4
			c0.3,3,3.2,3.6,5.6,3.6h29.3c2.6,0,5.3-1.1,5.3-4.2V12.7c0-1.6,0.4-3.9-0.1-5.4C43.4,4.5,41.2,4.1,38.6,4.1z M41.7,13v27.2
			c0,2.1-5.1,1.3-6,1.3H8.4c-2.1,0-1.3-5.1-1.3-6V8.3C7.3,6.2,12,7,13.1,7h27.2C42.4,7,41.7,12.1,41.7,13z"/>
	</g>
	<g>
		<g>
			<path class="st0" d="M30.3,31.6c1,0.9,1.9,0.3,2.2,0l6.2-6.2c0.6-0.6,0.6-1.6,0-2.2L32.5,17c-0.6-0.6-1.6-0.6-2.2,0
				c-0.6,0.6-0.6,1.6,0,2.2l5.1,5.1l-5.1,5.1C29.7,30,29.6,31,30.3,31.6L30.3,31.6z M30.3,31.6"/>
		</g>
		<g>
			<path class="st0" d="M18.4,17c-0.6-0.6-1.6-0.6-2.2,0L10,23.2c-0.6,0.6-0.6,1.6,0,2.2l6.2,6.2c0.3,0.3,1.2,0.9,2.2,0.1
				c0.6-0.6,0.6-1.6,0-2.2l-5.1-5.1l5.1-5.2C19,18.6,19,17.6,18.4,17L18.4,17z M18.4,17"/>
		</g>
		<g>
			<path class="st0" d="M20.5,39.5c-0.1,0-0.3,0-0.4-0.1c-0.7-0.2-1.1-1-0.9-1.7L28,10c0.2-0.7,1-1.1,1.7-0.9c0.7,0.2,1.1,1,0.9,1.7
				l-8.7,27.8C21.6,39.2,21.1,39.5,20.5,39.5z"/>
		</g>
	</g>
</g>
</svg>
